<svg width="25" height="26" viewBox="0 0 25 26" fill="none" xmlns="http://www.w3.org/2000/svg">
<path d="M18.9763 23.9429H5.98989C4.44412 23.9429 3.03056 23.1598 2.21701 21.8378C1.40345 20.5158 1.33226 18.909 2.02379 17.5158L3.77294 14.0073C4.34243 12.8683 5.25768 12.1564 6.2848 12.0446C7.31192 11.9327 8.35938 12.4412 9.1526 13.4276L9.37633 13.7124C9.82378 14.2615 10.3424 14.5564 10.8509 14.5056C11.3594 14.4649 11.8272 14.0988 12.1729 13.4785L14.095 10.0107C14.8882 8.57679 15.9458 7.83441 17.095 7.88526C18.234 7.94628 19.2102 8.80051 19.8611 10.3056L23.0441 17.7395C23.634 19.1124 23.4916 20.6785 22.6678 21.9293C21.8543 23.2005 20.4712 23.9429 18.9763 23.9429ZM6.56955 13.57C6.52887 13.57 6.48819 13.57 6.44751 13.5802C5.93904 13.631 5.47124 14.0378 5.13565 14.6988L3.3865 18.2073C2.92887 19.1124 2.97972 20.1802 3.50853 21.0446C4.03734 21.909 4.97294 22.4276 5.98989 22.4276H18.9662C19.9628 22.4276 20.8475 21.9497 21.3967 21.1158C21.9458 20.2819 22.0373 19.2853 21.6407 18.37L18.4577 10.9361C18.0712 10.0209 17.5323 9.46153 17.0136 9.44119C16.5356 9.41068 15.9153 9.91916 15.4272 10.7836L13.5051 14.2514C12.9153 15.309 11.9899 15.97 10.9831 16.0615C9.97633 16.1429 8.94921 15.6548 8.1865 14.6988L7.96277 14.4141C7.53565 13.8548 7.04751 13.57 6.56955 13.57Z" fill="#195950"/>
<path d="M7.39327 9.70524C5.29836 9.70524 3.57971 7.99677 3.57971 5.89168C3.57971 3.7866 5.28819 2.07812 7.39327 2.07812C9.49835 2.07812 11.2068 3.7866 11.2068 5.89168C11.2068 7.99677 9.49835 9.70524 7.39327 9.70524ZM7.39327 3.60355C6.13225 3.60355 5.10514 4.63067 5.10514 5.89168C5.10514 7.1527 6.13225 8.17982 7.39327 8.17982C8.65429 8.17982 9.68141 7.1527 9.68141 5.89168C9.68141 4.63067 8.65429 3.60355 7.39327 3.60355Z" fill="#195950"/>
</svg>
