<svg width="20" height="20" viewBox="0 0 20 20" fill="none" xmlns="http://www.w3.org/2000/svg">
<path d="M7.97495 15.6805C7.81662 15.6805 7.65828 15.6222 7.53328 15.4972L2.47495 10.4388C2.23328 10.1972 2.23328 9.79717 2.47495 9.5555L7.53328 4.49717C7.77495 4.2555 8.17495 4.2555 8.41662 4.49717C8.65829 4.73883 8.65829 5.13883 8.41662 5.3805L3.79995 9.99717L8.41662 14.6138C8.65829 14.8555 8.65829 15.2555 8.41662 15.4972C8.29995 15.6222 8.13328 15.6805 7.97495 15.6805Z" fill="white"/>
<path d="M17.0833 10.6221H3.05835C2.71668 10.6221 2.43335 10.3387 2.43335 9.99707C2.43335 9.6554 2.71668 9.37207 3.05835 9.37207H17.0833C17.425 9.37207 17.7083 9.6554 17.7083 9.99707C17.7083 10.3387 17.425 10.6221 17.0833 10.6221Z" fill="white"/>
</svg>
