<svg width="400" height="400" viewBox="0 0 400 400" fill="none" xmlns="http://www.w3.org/2000/svg">
<path d="M400 305.92H0V306.12H400V305.92Z" fill="#EBEBEB"/>
<path d="M359.92 318.792H333.424V318.992H359.92V318.792Z" fill="#EBEBEB"/>
<path d="M264.976 320.968H258.024V321.168H264.976V320.968Z" fill="#EBEBEB"/>
<path d="M332.624 311.368H317.272V311.568H332.624V311.368Z" fill="#EBEBEB"/>
<path d="M76.52 312.712H41.968V312.912H76.52V312.712Z" fill="#EBEBEB"/>
<path d="M88.712 312.712H83.648V312.912H88.712V312.712Z" fill="#EBEBEB"/>
<path d="M180.12 316.088H105.176V316.288H180.12V316.088Z" fill="#EBEBEB"/>
<path d="M189.6 270.24H35.128C33.9179 270.238 32.758 269.756 31.9031 268.899C31.0482 268.043 30.568 266.882 30.568 265.672V48.528C30.5785 47.3248 31.0634 46.1744 31.9172 45.3266C32.771 44.4788 33.9248 44.0021 35.128 44H189.6C190.812 44 191.973 44.4813 192.83 45.3379C193.687 46.1946 194.168 47.3565 194.168 48.568V265.672C194.168 266.884 193.687 268.045 192.83 268.902C191.973 269.759 190.812 270.24 189.6 270.24ZM35.128 44.16C33.9709 44.1621 32.862 44.6233 32.0445 45.4422C31.2271 46.2611 30.768 47.3709 30.768 48.528V265.672C30.768 266.829 31.2271 267.939 32.0445 268.758C32.862 269.577 33.9709 270.038 35.128 270.04H189.6C190.758 270.038 191.868 269.577 192.686 268.758C193.505 267.94 193.966 266.83 193.968 265.672V48.528C193.966 47.3702 193.505 46.2604 192.686 45.4417C191.868 44.623 190.758 44.1621 189.6 44.16H35.128Z" fill="#EBEBEB"/>
<path d="M362.648 270.24H208.168C206.957 270.238 205.796 269.756 204.94 268.9C204.084 268.044 203.602 266.883 203.6 265.672V48.528C203.613 47.3241 204.099 46.1737 204.954 45.3261C205.809 44.4785 206.964 44.002 208.168 44H362.648C363.85 44.0042 365.002 44.4818 365.854 45.3294C366.706 46.177 367.189 47.3262 367.2 48.528V265.672C367.2 266.881 366.721 268.04 365.868 268.896C365.015 269.753 363.857 270.236 362.648 270.24ZM208.168 44.16C207.01 44.1621 205.9 44.623 205.082 45.4417C204.263 46.2604 203.802 47.3702 203.8 48.528V265.672C203.802 266.83 204.263 267.94 205.082 268.758C205.9 269.577 207.01 270.038 208.168 270.04H362.648C363.806 270.038 364.916 269.577 365.734 268.758C366.553 267.94 367.014 266.83 367.016 265.672V48.528C367.014 47.3702 366.553 46.2604 365.734 45.4417C364.916 44.623 363.806 44.1621 362.648 44.16H208.168Z" fill="#EBEBEB"/>
<path d="M256.48 70.8879H55.216V186.192H256.48V70.8879Z" fill="#E6E6E6"/>
<path d="M259.472 70.8879H56.616V186.192H259.472V70.8879Z" fill="#F0F0F0"/>
<path d="M255.288 181.48V75.592L60.808 75.592V181.48H255.288Z" fill="#FAFAFA"/>
<path d="M84.672 181.48L109.272 75.592H141.512L116.92 181.48H84.672Z" fill="white"/>
<path d="M122.136 181.48L146.728 75.592H161.288L136.696 181.48H122.136Z" fill="white"/>
<path d="M179.912 181.48L204.504 75.592H229.376L204.784 181.48H179.912Z" fill="white"/>
<path d="M255.28 181.48V75.592H254.744V181.48H255.28Z" fill="#E6E6E6"/>
<path d="M164.088 70.8879H152V186.192H164.088V70.8879Z" fill="#F0F0F0"/>
<path d="M152 181.48V75.592H151.464V181.48H152Z" fill="#E6E6E6"/>
<path d="M158.256 70.8879H157.832V186.192H158.256V70.8879Z" fill="#E6E6E6"/>
<path d="M183.864 231.288H166.8V305.912H183.864V231.288Z" fill="#E6E6E6"/>
<path d="M176.48 305.92H183.864V293.536H168.728L176.48 305.92Z" fill="#F5F5F5"/>
<path d="M51.48 231.288H34.416V305.912H51.48V231.288Z" fill="#E6E6E6"/>
<path d="M183.864 231.288H45.032V301.656H183.864V231.288Z" fill="#F5F5F5"/>
<path d="M52.424 305.92H45.032V293.536H60.176L52.424 305.92Z" fill="#F5F5F5"/>
<path d="M178.136 237.208H50.768V263.16H178.136V237.208Z" fill="#F0F0F0"/>
<path d="M114.448 257.768C112.948 257.768 111.481 257.323 110.234 256.489C108.986 255.656 108.014 254.471 107.441 253.085C106.867 251.698 106.717 250.173 107.01 248.702C107.304 247.23 108.027 245.879 109.088 244.819C110.15 243.758 111.502 243.037 112.973 242.745C114.445 242.453 115.97 242.604 117.356 243.18C118.741 243.755 119.925 244.728 120.758 245.976C121.59 247.225 122.034 248.692 122.032 250.192C122.03 252.202 121.23 254.129 119.808 255.55C118.386 256.97 116.458 257.768 114.448 257.768ZM114.448 243.408C113.106 243.408 111.795 243.806 110.679 244.551C109.563 245.297 108.694 246.356 108.18 247.596C107.667 248.836 107.533 250.2 107.794 251.516C108.056 252.832 108.702 254.04 109.651 254.989C110.6 255.938 111.809 256.584 113.125 256.846C114.44 257.108 115.805 256.973 117.044 256.46C118.284 255.946 119.343 255.077 120.089 253.961C120.834 252.845 121.232 251.534 121.232 250.192C121.232 248.393 120.517 246.667 119.245 245.395C117.973 244.123 116.247 243.408 114.448 243.408Z" fill="white"/>
<path d="M178.136 269.432H50.768V295.384H178.136V269.432Z" fill="#F0F0F0"/>
<path d="M114.448 289.992C112.948 289.992 111.482 289.547 110.235 288.714C108.987 287.881 108.015 286.696 107.441 285.31C106.867 283.924 106.717 282.4 107.01 280.928C107.302 279.457 108.025 278.106 109.085 277.045C110.146 275.985 111.497 275.262 112.968 274.97C114.44 274.677 115.964 274.827 117.35 275.401C118.736 275.975 119.921 276.947 120.754 278.195C121.587 279.442 122.032 280.908 122.032 282.408C122.03 284.419 121.23 286.347 119.808 287.768C118.387 289.19 116.459 289.99 114.448 289.992ZM114.448 275.632C113.106 275.632 111.794 276.03 110.678 276.776C109.562 277.522 108.693 278.582 108.18 279.822C107.666 281.062 107.533 282.426 107.795 283.742C108.057 285.059 108.704 286.267 109.654 287.216C110.603 288.164 111.813 288.81 113.129 289.071C114.446 289.331 115.81 289.196 117.05 288.681C118.289 288.167 119.348 287.296 120.093 286.179C120.837 285.062 121.234 283.75 121.232 282.408C121.23 280.61 120.514 278.887 119.242 277.616C117.97 276.346 116.246 275.632 114.448 275.632Z" fill="white"/>
<path d="M201.152 305.92H257.856V250.632H201.152V305.92Z" fill="#E6E6E6"/>
<path d="M332.376 250.624H257.856V305.912H332.376V250.624Z" fill="#F0F0F0"/>
<g style="mix-blend-mode:multiply" opacity="0.7">
<path d="M201.152 255.088L332.376 255.088V245.92L201.152 245.92V255.088Z" fill="#E6E6E6"/>
</g>
<path d="M198.288 250.624H257.848V245.328H198.288V250.624Z" fill="#E6E6E6"/>
<path d="M335.24 245.336H257.856V250.632H335.24V245.336Z" fill="#F0F0F0"/>
<path d="M357.251 294.366C361.87 284.392 357.529 272.56 347.554 267.941C337.579 263.321 325.748 267.662 321.128 277.637C316.509 287.612 320.85 299.443 330.825 304.063C340.8 308.683 352.631 304.341 357.251 294.366Z" fill="#E6E6E6"/>
<g style="mix-blend-mode:multiply" opacity="0.7">
<path d="M334.672 271.344C333 271.656 331.512 271.24 331.36 270.416C331.208 269.592 332.448 268.68 334.128 268.368C335.808 268.056 337.288 268.472 337.44 269.296C337.592 270.12 336.352 271.032 334.672 271.344Z" fill="#E6E6E6"/>
</g>
<g style="mix-blend-mode:multiply" opacity="0.7">
<path d="M327.011 276.218C328.204 274.999 328.686 273.537 328.089 272.953C327.492 272.37 326.041 272.885 324.849 274.105C323.657 275.324 323.175 276.786 323.772 277.37C324.369 277.953 325.819 277.438 327.011 276.218Z" fill="#E6E6E6"/>
</g>
<g style="mix-blend-mode:multiply" opacity="0.7">
<path d="M333.736 278.592C332.376 279.624 330.76 279.784 330.128 278.952C329.496 278.12 330.08 276.608 331.44 275.576C332.8 274.544 334.4 274.4 335.048 275.2C335.696 276 335.096 277.6 333.736 278.592Z" fill="#E6E6E6"/>
</g>
<path d="M344.376 84.584H287.04V172.488H344.376V84.584Z" fill="#E6E6E6"/>
<path d="M349.232 84.584H288.376V172.488H349.232V84.584Z" fill="#F5F5F5"/>
<path d="M345.344 168.608V88.4641H292.248V168.608H345.344Z" fill="white"/>
<path d="M336 130.784V126.288H301.592V130.784H336Z" fill="#F5F5F5"/>
<path d="M336.008 119.448V114.952H301.6V119.448H336.008Z" fill="#F5F5F5"/>
<path d="M336.008 108.104V103.608H301.6V108.104H336.008Z" fill="#F5F5F5"/>
<path d="M336.008 142.12V137.624H301.6V142.12H336.008Z" fill="#F5F5F5"/>
<path d="M336.008 153.464V148.968H301.6V153.464H336.008Z" fill="#F5F5F5"/>
<path d="M200 342.048C285.666 342.048 355.112 337.994 355.112 332.992C355.112 327.991 285.666 323.936 200 323.936C114.334 323.936 44.888 327.991 44.888 332.992C44.888 337.994 114.334 342.048 200 342.048Z" fill="#F5F5F5"/>
<path d="M169.4 326.032L175.464 324.36L173.208 309.872L167.144 311.544L169.4 326.032Z" fill="#FFC3BD"/>
<path d="M117.808 326.184H124.096L125.664 311.616H119.376L117.808 326.184Z" fill="#FFC3BD"/>
<path d="M124.616 325.456H116.944C116.819 325.457 116.698 325.5 116.6 325.578C116.503 325.657 116.435 325.766 116.408 325.888L115.168 331.488C115.139 331.624 115.141 331.765 115.174 331.9C115.207 332.036 115.27 332.162 115.359 332.269C115.447 332.377 115.559 332.463 115.685 332.522C115.811 332.58 115.949 332.61 116.088 332.608C118.552 332.568 120.36 332.416 123.464 332.416C125.376 332.416 131.144 332.616 133.784 332.616C136.424 332.616 136.768 330.008 135.688 329.768C130.84 328.712 127.184 327.248 125.64 325.856C125.361 325.6 124.995 325.457 124.616 325.456Z" fill="#263238"/>
<path d="M175.2 323.672L168.576 325.496C168.456 325.527 168.35 325.6 168.277 325.7C168.204 325.801 168.168 325.924 168.176 326.048L168.464 331.776C168.475 331.911 168.516 332.042 168.584 332.159C168.652 332.277 168.746 332.377 168.858 332.454C168.969 332.531 169.097 332.581 169.231 332.602C169.365 332.624 169.502 332.615 169.632 332.576C172.032 331.88 175.424 330.792 178.432 329.96C181.944 328.992 185.032 328.36 189.144 327.216C191.64 326.528 191.632 323.824 190.528 323.88C185.496 324.152 181.592 325.104 176.8 323.704C176.28 323.545 175.726 323.533 175.2 323.672Z" fill="#263238"/>
<path d="M152.224 129.232C152.472 129.528 152.824 129.952 153.152 130.312L154.152 131.456C154.824 132.256 155.528 132.96 156.24 133.68C157.672 135.128 159.128 136.536 160.648 137.816C163.648 140.384 166.936 142.616 170.104 143.568C170.485 143.693 170.872 143.797 171.264 143.88L171.832 143.976C172.176 144.024 171.832 143.976 171.832 144.04C171.832 144.104 171.896 144.04 172.152 143.992C172.474 143.884 172.787 143.75 173.088 143.592C173.878 143.162 174.635 142.672 175.352 142.128C176.152 141.56 176.952 140.928 177.704 140.264C180.832 137.608 183.944 134.552 186.96 131.544L190.752 134.36C188.504 138.325 185.873 142.06 182.896 145.512C181.292 147.409 179.462 149.105 177.448 150.56C176.828 150.991 176.175 151.374 175.496 151.704C174.61 152.138 173.659 152.425 172.68 152.552C172.127 152.612 171.569 152.612 171.016 152.552L169.96 152.456C169.272 152.352 168.576 152.248 167.912 152.088C166.615 151.798 165.346 151.393 164.12 150.88C162.943 150.394 161.794 149.841 160.68 149.224C158.557 148.034 156.537 146.669 154.64 145.144C152.794 143.67 151.042 142.083 149.392 140.392C148.576 139.56 147.776 138.707 146.992 137.832C146.6 137.392 146.192 136.952 145.84 136.496C145.488 136.04 145.112 135.608 144.688 135.04L152.224 129.232Z" fill="#FFC3BD"/>
<path d="M154.424 148.456L156.872 150.912L168.136 141.888L164.104 138.76L154.424 148.456Z" fill="#263238"/>
<path d="M141.224 131.944C140.76 137.936 154.264 150.176 154.264 150.176L166.2 139.824C166.2 139.824 161.168 134.496 155.528 129.144C151.64 125.464 141.728 125.456 141.224 131.944Z" fill="#263238"/>
<path opacity="0.5" d="M141.224 131.944C140.76 137.936 154.264 150.176 154.264 150.176L166.2 139.824C166.2 139.824 161.168 134.496 155.528 129.144C151.64 125.464 141.728 125.456 141.224 131.944Z" fill="url(#paint0_linear_252_12787)"/>
<path opacity="0.2" d="M158.4 146.592C158.28 146.032 158.128 145.472 157.96 144.92C156.408 139.992 152.864 135.528 147.312 135.024C144.808 134.8 144.112 136.56 144.264 139.144C147.251 143.121 150.599 146.814 154.264 150.176L155.272 149.304L156.872 150.904L158.8 149.36C158.736 148.429 158.602 147.503 158.4 146.592Z" fill="black"/>
<path d="M186.456 133.696L188.248 128.416L195.32 130.232C193.874 131.911 192.267 133.444 190.52 134.808L186.456 133.696Z" fill="#FFC3BD"/>
<path d="M191.048 126.144L196.904 128.176L195.32 130.232L188.248 128.416L191.048 126.144Z" fill="#FFC3BD"/>
<path opacity="0.2" d="M173.208 309.872L174.376 317.344L168.304 319.016L167.144 311.544L173.208 309.872Z" fill="black"/>
<path opacity="0.2" d="M119.368 311.624H125.664L124.856 319.136H118.56L119.368 311.624Z" fill="black"/>
<path d="M115.656 129.04C117.505 135.829 118.842 142.747 119.656 149.736C120.248 154.608 120.608 159.256 120.832 163.48C121.352 173.368 121.136 180.904 121.432 183.48C126.352 183.144 144.888 181.88 155.032 181.144C159.608 145.36 150.88 126.928 150.88 126.928C148.223 126.43 145.538 126.096 142.84 125.928C142.272 125.928 141.696 125.872 141.112 125.864C136.34 125.92 131.574 126.251 126.84 126.856C125.936 126.96 125.032 127.096 124.152 127.24C119.616 127.944 115.656 129.04 115.656 129.04Z" fill="#263238"/>
<path opacity="0.5" d="M115.656 129.04C117.505 135.829 118.842 142.747 119.656 149.736C120.248 154.608 120.608 159.256 120.832 163.48C121.352 173.368 121.136 180.904 121.432 183.48C126.352 183.144 144.888 181.88 155.032 181.144C159.608 145.36 150.88 126.928 150.88 126.928C148.223 126.43 145.538 126.096 142.84 125.928C142.272 125.928 141.696 125.872 141.112 125.864C136.34 125.92 131.574 126.251 126.84 126.856C125.936 126.96 125.032 127.096 124.152 127.24C119.616 127.944 115.656 129.04 115.656 129.04Z" fill="url(#paint1_linear_252_12787)"/>
<path d="M147.464 147.544L140.136 148.032C140.027 148.036 139.919 148.002 139.833 147.934C139.746 147.867 139.687 147.771 139.664 147.664L139.6 147.312C139.589 147.238 139.56 147.169 139.514 147.11C139.469 147.052 139.409 147.006 139.341 146.977C139.273 146.948 139.198 146.937 139.124 146.945C139.051 146.953 138.98 146.981 138.92 147.024L134.976 150.272C134.928 150.318 134.892 150.375 134.872 150.438C134.851 150.501 134.846 150.568 134.857 150.633C134.868 150.699 134.895 150.761 134.935 150.813C134.975 150.866 135.028 150.908 135.088 150.936L140.088 153.592C140.148 153.633 140.22 153.655 140.293 153.656C140.366 153.656 140.437 153.635 140.498 153.595C140.559 153.554 140.607 153.497 140.635 153.429C140.663 153.362 140.67 153.288 140.656 153.216L140.592 152.872C140.582 152.822 140.582 152.77 140.593 152.719C140.605 152.669 140.627 152.622 140.658 152.581C140.689 152.54 140.728 152.507 140.774 152.482C140.819 152.458 140.869 152.443 140.92 152.44L148.248 151.952C148.299 151.949 148.349 151.936 148.395 151.912C148.44 151.889 148.48 151.856 148.512 151.816C148.544 151.776 148.567 151.729 148.579 151.68C148.591 151.63 148.593 151.578 148.584 151.528L147.944 147.912C147.921 147.803 147.86 147.706 147.772 147.639C147.684 147.571 147.575 147.538 147.464 147.544Z" fill="white"/>
<path d="M134.4 145.728L141.728 145.24C141.838 145.234 141.946 145.268 142.033 145.336C142.12 145.403 142.179 145.5 142.2 145.608L142.264 145.96C142.276 146.034 142.307 146.103 142.353 146.161C142.399 146.22 142.459 146.266 142.528 146.294C142.597 146.323 142.672 146.334 142.746 146.326C142.82 146.318 142.891 146.291 142.952 146.248L146.896 143C146.943 142.953 146.979 142.894 146.999 142.83C147.019 142.767 147.023 142.699 147.011 142.633C147 142.567 146.972 142.505 146.931 142.451C146.89 142.398 146.837 142.356 146.776 142.328L141.784 139.68C141.724 139.639 141.652 139.617 141.579 139.616C141.506 139.616 141.435 139.637 141.374 139.677C141.313 139.718 141.265 139.775 141.237 139.843C141.209 139.91 141.202 139.984 141.216 140.056L141.272 140.4C141.282 140.45 141.282 140.501 141.271 140.551C141.259 140.601 141.237 140.647 141.206 140.688C141.175 140.728 141.135 140.761 141.09 140.785C141.045 140.808 140.995 140.822 140.944 140.824L133.616 141.32C133.565 141.323 133.515 141.336 133.469 141.359C133.424 141.383 133.384 141.416 133.352 141.456C133.32 141.496 133.297 141.543 133.285 141.592C133.273 141.642 133.271 141.694 133.28 141.744L133.928 145.352C133.947 145.461 134.006 145.56 134.093 145.629C134.18 145.698 134.289 145.734 134.4 145.728Z" fill="white"/>
<path d="M126.792 126.832C131.526 126.227 136.292 125.896 141.064 125.84C141.648 125.84 142.232 125.84 142.8 125.904H143C144.016 128.008 145.336 134.272 140.656 134.92C134.304 135.8 127.12 130.312 124.104 127.2C124.984 127.072 125.896 126.936 126.792 126.832Z" fill="#263238"/>
<path opacity="0.2" d="M124.136 138.096C124.2 143.243 122.763 148.297 120 152.64C119.912 151.68 119.8 150.712 119.68 149.736C119.232 146.072 118.656 142.28 117.888 138.448L124.136 138.096Z" fill="black"/>
<path d="M127.096 110.664C128.312 115.2 129.8 123.544 126.8 126.832C128.316 128.208 130.11 129.242 132.06 129.864C134.01 130.487 136.071 130.683 138.104 130.44C142.048 130.08 142.056 127.304 141.072 125.84C135.864 124.976 135.728 121.168 136.376 117.536L127.096 110.664Z" fill="#FFC3BD"/>
<path opacity="0.2" d="M130.88 113.472L136.368 117.528C136.206 118.375 136.118 119.234 136.104 120.096C134.128 119.952 131.304 117.992 130.944 115.96C130.77 115.142 130.748 114.298 130.88 113.472Z" fill="black"/>
<path d="M150.184 86.7439C152.512 91.6399 143.368 103.544 135.904 102.24C131.69 101.439 127.519 100.425 123.408 99.1999C119.784 98.1439 118.456 93.3599 121.904 92.7519C133.6 90.6639 146.328 78.6159 150.184 86.7439Z" fill="#263238"/>
<path d="M126.064 103.8C126.864 109.984 127.04 113.648 130.408 116.6C135.464 121.072 142.936 117.688 144.008 111.376C144.96 105.696 143.464 96.5279 137.208 94.4799C135.826 94.0154 134.349 93.9131 132.916 94.1827C131.484 94.4524 130.145 95.085 129.027 96.02C127.909 96.9551 127.049 98.1614 126.53 99.5235C126.012 100.886 125.851 102.358 126.064 103.8Z" fill="#FFC3BD"/>
<path d="M138.112 111.712C137.381 111.778 136.644 111.667 135.965 111.389C135.285 111.11 134.683 110.672 134.208 110.112C134.179 110.082 134.162 110.042 134.162 110C134.162 109.958 134.179 109.918 134.208 109.888C134.222 109.872 134.24 109.86 134.259 109.851C134.278 109.843 134.299 109.839 134.32 109.839C134.341 109.839 134.362 109.843 134.381 109.851C134.4 109.86 134.418 109.872 134.432 109.888C134.881 110.398 135.444 110.796 136.074 111.051C136.705 111.305 137.386 111.408 138.064 111.352C138.085 111.351 138.106 111.354 138.126 111.361C138.146 111.368 138.164 111.379 138.18 111.393C138.195 111.407 138.208 111.424 138.217 111.443C138.226 111.462 138.231 111.483 138.232 111.504C138.241 111.525 138.244 111.548 138.243 111.572C138.241 111.595 138.234 111.617 138.223 111.637C138.211 111.657 138.195 111.674 138.176 111.687C138.157 111.7 138.135 111.709 138.112 111.712Z" fill="#263238"/>
<path d="M130.4 106.6C132.744 101.496 133.248 96.272 128.96 94.672C124.672 93.072 121.072 95.216 119.88 98.44C118.688 101.664 126.992 114.04 130.4 106.6Z" fill="#263238"/>
<path d="M125.544 96.864C129.848 99.944 144.6 100.128 142.52 94.592C140.96 90.448 130.712 90.576 125.544 96.864Z" fill="#263238"/>
<path d="M123.736 110.848C124.664 112.114 126.057 112.959 127.608 113.2C129.664 113.504 130.432 111.6 129.648 109.792C128.936 108.192 127.008 106.048 125.048 106.592C123.088 107.136 122.608 109.28 123.736 110.848Z" fill="#FFC3BD"/>
<path d="M176.256 315.32L165.992 318.144C165.992 318.144 153.128 277.6 149.992 255.336C149.152 249.432 147.864 241.128 145.888 232.28C143.4 221.136 140.288 209.08 137.712 199.64C135.008 189.696 132.912 182.664 132.912 182.664L154.984 181.12C154.984 181.12 166.92 233.2 168.192 252.32C169.52 272.272 176.256 315.32 176.256 315.32Z" fill="url(#paint2_linear_252_12787)"/>
<path opacity="0.3" d="M176.256 315.32L165.992 318.144C165.992 318.144 153.128 277.6 149.992 255.336C149.152 249.432 147.864 241.128 145.888 232.28C143.4 221.136 140.288 209.08 137.712 199.64C135.008 189.696 132.912 182.664 132.912 182.664L154.984 181.12C154.984 181.12 166.92 233.2 168.192 252.32C169.52 272.272 176.256 315.32 176.256 315.32Z" fill="#FAFAFA"/>
<path opacity="0.2" d="M145.864 232.28C143.376 221.136 140.264 209.08 137.688 199.64L139.976 194.704C145.448 201.208 146.92 221.344 145.864 232.28Z" fill="black"/>
<path d="M143.096 181.952C143.096 181.952 140.696 235.808 138.056 254.048C135.144 274.048 127.76 317.68 127.76 317.68H116.24C116.24 317.68 116.048 276.288 119.656 256.936C123.768 234.904 121.432 183.464 121.432 183.464L143.096 181.952Z" fill="url(#paint3_linear_252_12787)"/>
<path opacity="0.3" d="M143.096 181.952C143.096 181.952 140.696 235.808 138.056 254.048C135.144 274.048 127.76 317.68 127.76 317.68H116.24C116.24 317.68 116.048 276.288 119.656 256.936C123.768 234.904 121.432 183.464 121.432 183.464L143.096 181.952Z" fill="#FAFAFA"/>
<path d="M129.144 317.928H115.576V313.872L130.736 313.608L129.144 317.928Z" fill="url(#paint4_linear_252_12787)"/>
<path d="M176.968 315.376L165.376 318.576L163.704 314.576L176.92 310.912L176.968 315.376Z" fill="url(#paint5_linear_252_12787)"/>
<path d="M135.616 104.88C135.616 105.384 135.944 105.776 136.28 105.752C136.616 105.728 136.848 105.296 136.816 104.792C136.784 104.288 136.48 103.896 136.152 103.92C135.824 103.944 135.576 104.368 135.616 104.88Z" fill="#263238"/>
<path d="M141.336 104.48C141.336 104.984 141.664 105.376 142 105.352C142.336 105.328 142.568 104.896 142.536 104.392C142.504 103.888 142.2 103.496 141.872 103.52C141.544 103.544 141.304 104 141.336 104.48Z" fill="#263238"/>
<path d="M139.536 104.856C140.247 106.361 141.162 107.761 142.256 109.016C141.456 109.912 139.792 109.52 139.792 109.52L139.536 104.856Z" fill="#ED847E"/>
<path d="M133.712 103.152C133.766 103.156 133.821 103.145 133.87 103.121C133.919 103.097 133.961 103.061 133.992 103.016C134.189 102.698 134.456 102.431 134.775 102.235C135.093 102.039 135.452 101.92 135.824 101.888C135.903 101.888 135.978 101.857 136.033 101.801C136.089 101.746 136.12 101.67 136.12 101.592C136.12 101.513 136.089 101.438 136.033 101.383C135.978 101.327 135.903 101.296 135.824 101.296C135.352 101.325 134.894 101.466 134.487 101.709C134.081 101.951 133.738 102.287 133.488 102.688C133.445 102.755 133.431 102.836 133.447 102.914C133.464 102.992 133.51 103.06 133.576 103.104C133.618 103.128 133.664 103.144 133.712 103.152Z" fill="#263238"/>
<path d="M143.648 102.336C143.703 102.341 143.758 102.331 143.808 102.308C143.858 102.284 143.9 102.247 143.931 102.201C143.961 102.155 143.978 102.101 143.981 102.046C143.983 101.991 143.97 101.936 143.944 101.888C143.717 101.473 143.393 101.118 143.001 100.853C142.608 100.589 142.158 100.422 141.688 100.368C141.649 100.365 141.609 100.369 141.572 100.382C141.535 100.394 141.501 100.414 141.472 100.441C141.442 100.467 141.419 100.499 141.402 100.534C141.386 100.57 141.377 100.609 141.376 100.648C141.374 100.726 141.401 100.802 141.454 100.86C141.506 100.918 141.578 100.954 141.656 100.96C142.026 101.013 142.379 101.152 142.686 101.366C142.993 101.58 143.246 101.863 143.424 102.192C143.448 102.231 143.481 102.265 143.519 102.29C143.558 102.315 143.602 102.331 143.648 102.336Z" fill="#263238"/>
<path d="M126.696 326.56C127.123 326.594 127.55 326.481 127.904 326.24C128.017 326.142 128.104 326.017 128.158 325.878C128.212 325.739 128.232 325.589 128.216 325.44C128.216 325.354 128.192 325.269 128.147 325.195C128.102 325.122 128.037 325.063 127.96 325.024C127.264 324.664 125.232 325.912 125.008 326.056C124.982 326.069 124.961 326.09 124.948 326.116C124.935 326.142 124.931 326.171 124.936 326.2C124.94 326.23 124.952 326.258 124.972 326.281C124.992 326.304 125.019 326.32 125.048 326.328C125.587 326.466 126.14 326.544 126.696 326.56ZM127.632 325.256C127.698 325.251 127.765 325.265 127.824 325.296C127.864 325.296 127.912 325.352 127.92 325.472C127.933 325.572 127.921 325.673 127.884 325.766C127.848 325.86 127.789 325.943 127.712 326.008C127.368 326.296 126.552 326.336 125.48 326.12C126.135 325.696 126.866 325.402 127.632 325.256Z" fill="url(#paint6_linear_252_12787)"/>
<path d="M125.088 326.336H125.152C125.808 325.984 127.064 324.6 126.928 323.936C126.909 323.825 126.851 323.725 126.764 323.653C126.678 323.581 126.568 323.542 126.456 323.544C126.343 323.529 126.228 323.539 126.119 323.572C126.01 323.605 125.91 323.661 125.824 323.736C125.096 324.328 124.944 326.136 124.936 326.224C124.934 326.25 124.939 326.277 124.95 326.3C124.961 326.324 124.978 326.345 125 326.36C125.031 326.361 125.062 326.352 125.088 326.336ZM126.352 323.784H126.4C126.592 323.784 126.608 323.896 126.616 323.936C126.696 324.344 125.896 325.392 125.248 325.88C125.291 325.165 125.547 324.479 125.984 323.912C126.087 323.826 126.218 323.78 126.352 323.784Z" fill="url(#paint7_linear_252_12787)"/>
<path d="M176.048 324.344C177.08 324.272 178.88 324.024 179.384 323.256C179.462 323.139 179.51 323.005 179.524 322.866C179.538 322.726 179.517 322.586 179.464 322.456C179.438 322.379 179.392 322.31 179.332 322.256C179.272 322.201 179.199 322.163 179.12 322.144C178.272 321.944 176.168 323.84 175.92 324.064C175.896 324.084 175.879 324.111 175.872 324.141C175.865 324.172 175.868 324.203 175.88 324.232C175.892 324.266 175.915 324.296 175.945 324.316C175.976 324.336 176.012 324.346 176.048 324.344ZM179.04 322.448C179.071 322.456 179.099 322.472 179.122 322.494C179.144 322.517 179.16 322.545 179.168 322.576C179.21 322.655 179.232 322.743 179.232 322.832C179.232 322.921 179.21 323.009 179.168 323.088C178.888 323.52 177.904 323.848 176.504 324C177.344 323.272 178.544 322.4 179.04 322.448Z" fill="url(#paint8_linear_252_12787)"/>
<path d="M176.048 324.344C176.084 324.356 176.124 324.356 176.16 324.344C176.8 323.808 177.896 322.096 177.592 321.448C177.52 321.288 177.352 321.12 176.944 321.192C176.798 321.216 176.658 321.269 176.532 321.349C176.407 321.429 176.3 321.533 176.216 321.656C175.624 322.504 175.912 324.184 175.92 324.256C175.926 324.281 175.938 324.304 175.955 324.323C175.972 324.342 175.993 324.358 176.016 324.368L176.048 324.344ZM177.168 321.44C177.288 321.44 177.312 321.512 177.32 321.536C177.504 321.928 176.8 323.232 176.176 323.888C176.054 323.176 176.154 322.444 176.464 321.792C176.526 321.702 176.605 321.627 176.697 321.569C176.79 321.511 176.893 321.473 177 321.456C177.055 321.444 177.112 321.439 177.168 321.44Z" fill="url(#paint9_linear_252_12787)"/>
<path d="M115.544 181.424C115.529 180.795 115.298 180.191 114.888 179.714C114.478 179.237 113.915 178.917 113.296 178.808L94.576 176.696C93.8302 176.674 93.106 176.948 92.5607 177.457C92.0154 177.967 91.6932 178.67 91.664 179.416L86.176 228.04C86.0418 228.772 86.2005 229.528 86.6179 230.145C87.0354 230.761 87.6782 231.189 88.408 231.336L147.824 238.04C148.568 238.06 149.291 237.785 149.834 237.276C150.378 236.767 150.699 236.064 150.728 235.32L155.344 194.52C155.48 193.787 155.323 193.031 154.905 192.414C154.487 191.797 153.843 191.369 153.112 191.224L120.8 187.536C117.984 187.2 115.808 184.688 115.544 181.424Z" fill="#263238"/>
<path d="M123.44 192.088C123.474 191.811 123.453 191.531 123.376 191.263C123.299 190.994 123.169 190.745 122.994 190.528C122.818 190.311 122.601 190.132 122.354 190.002C122.108 189.871 121.838 189.792 121.56 189.768L102.84 187.656C102.098 187.613 101.364 187.818 100.752 188.24C100.141 188.662 99.6872 189.276 99.464 189.984L87.624 228.536C87.5006 228.843 87.4504 229.174 87.4774 229.504C87.5044 229.833 87.6077 230.152 87.7793 230.434C87.9509 230.717 88.186 230.956 88.4659 231.132C88.7459 231.308 89.0629 231.416 89.392 231.448L148.8 238.152C149.542 238.197 150.277 237.992 150.889 237.57C151.501 237.148 151.954 236.533 152.176 235.824L161.936 204.048C162.059 203.741 162.11 203.41 162.083 203.08C162.056 202.751 161.952 202.432 161.781 202.15C161.609 201.867 161.374 201.628 161.094 201.452C160.814 201.276 160.497 201.168 160.168 201.136L127.84 197.488C127.19 197.439 126.557 197.258 125.979 196.957C125.401 196.655 124.891 196.239 124.479 195.734C124.068 195.228 123.763 194.645 123.585 194.018C123.406 193.391 123.357 192.734 123.44 192.088Z" fill="url(#paint10_linear_252_12787)"/>
<path d="M122.44 138.264L120.672 140.8C120.072 141.664 119.488 142.536 118.912 143.424C117.76 145.184 116.648 146.968 115.56 148.752C114.472 150.536 113.488 152.368 112.544 154.192C111.6 156.016 110.784 157.856 110.104 159.696L110.04 159.856V159.92C110.025 159.967 110.006 160.012 109.984 160.056C109.984 160.2 109.912 160.328 109.88 160.496C109.824 160.832 109.784 161.232 109.744 161.664C109.684 162.602 109.684 163.542 109.744 164.48C109.856 166.464 110.08 168.56 110.392 170.648C110.992 174.84 111.784 179.144 112.592 183.376L108.112 184.864C106.223 180.756 104.637 176.515 103.368 172.176C102.697 169.938 102.163 167.662 101.768 165.36C101.559 164.121 101.428 162.871 101.376 161.616C101.349 160.909 101.365 160.201 101.424 159.496C101.424 159.12 101.52 158.696 101.576 158.304L101.728 157.64L101.808 157.312L101.872 157.08C103.206 152.56 105.039 148.203 107.336 144.088C108.44 142.067 109.613 140.096 110.856 138.176C111.48 137.216 112.112 136.272 112.768 135.328C113.424 134.384 114.08 133.488 114.84 132.496L122.44 138.264Z" fill="#FFC3BD"/>
<path d="M105.84 143.912L103.816 146.736L114.568 156.352L116.992 151.864L105.84 143.912Z" fill="#263238"/>
<path d="M115.656 129.04C109.76 130.232 104.592 144.648 104.592 144.648L116.896 154.672C116.896 154.672 120.896 147.344 124.152 140.272C127.664 132.568 122.8 127.6 115.656 129.04Z" fill="#263238"/>
<path opacity="0.5" d="M115.656 129.04C109.76 130.232 104.592 144.648 104.592 144.648L116.896 154.672C116.896 154.672 120.896 147.344 124.152 140.272C127.664 132.568 122.8 127.6 115.656 129.04Z" fill="url(#paint11_linear_252_12787)"/>
<path d="M111.912 182.128L116.16 186.928L108.472 189.28C108.472 189.28 105.76 184.416 108.176 182.688L111.912 182.128Z" fill="#FFC3BD"/>
<path d="M116.52 192.144L110.08 193.784L108.472 189.248L116.16 186.896L116.52 192.144Z" fill="#FFC3BD"/>
<path d="M260.632 106.584C260.479 105.974 260.118 105.436 259.612 105.062C259.105 104.688 258.484 104.502 257.856 104.536L239.136 106.688C238.405 106.835 237.761 107.265 237.345 107.883C236.929 108.502 236.773 109.26 236.912 109.992L242.512 158.6C242.541 159.345 242.864 160.048 243.409 160.556C243.955 161.064 244.679 161.336 245.424 161.312L304.8 154.496C305.531 154.349 306.175 153.92 306.591 153.301C307.007 152.683 307.163 151.925 307.024 151.192L302.336 110.392C302.303 109.649 301.979 108.948 301.434 108.441C300.89 107.934 300.168 107.661 299.424 107.68L267.104 111.392C264.312 111.68 261.6 109.704 260.632 106.584Z" fill="#263238"/>
<path d="M269.6 88.8641C273.737 106.969 276.381 125.383 277.504 143.92C262.741 145.669 247.981 147.048 233.224 148.056C232.115 127.817 228.914 107.748 223.672 88.1681C234.099 85.3628 244.485 82.3574 254.832 79.1521C259.824 82.2348 264.747 85.4721 269.6 88.8641Z" fill="url(#paint12_linear_252_12787)"/>
<path opacity="0.7" d="M269.6 88.8641C273.737 106.969 276.381 125.383 277.504 143.92C262.741 145.669 247.981 147.048 233.224 148.056C232.115 127.817 228.914 107.748 223.672 88.1681C234.099 85.3628 244.485 82.3574 254.832 79.1521C259.824 82.2348 264.747 85.4721 269.6 88.8641Z" fill="#FAFAFA"/>
<path d="M267.112 98.1361C255.576 101.032 244.005 103.699 232.4 106.136C232.28 106.159 232.156 106.158 232.036 106.133C231.916 106.108 231.802 106.06 231.701 105.991C231.6 105.922 231.513 105.833 231.447 105.73C231.38 105.628 231.334 105.513 231.312 105.392C231.262 105.149 231.308 104.897 231.441 104.688C231.574 104.478 231.783 104.329 232.024 104.272C243.619 101.792 255.173 99.0694 266.688 96.1041C266.814 96.0789 266.944 96.0799 267.069 96.1071C267.195 96.1343 267.314 96.1871 267.418 96.2621C267.522 96.3372 267.61 96.4329 267.676 96.5434C267.742 96.6538 267.784 96.7766 267.8 96.9041C267.857 97.1581 267.819 97.4245 267.692 97.6519C267.565 97.8793 267.358 98.0517 267.112 98.1361Z" fill="url(#paint13_linear_252_12787)"/>
<path d="M268.36 104.64C256.765 107.307 245.147 109.739 233.504 111.936C233.383 111.958 233.259 111.955 233.139 111.929C233.019 111.902 232.906 111.852 232.805 111.782C232.705 111.711 232.619 111.621 232.554 111.517C232.488 111.413 232.444 111.297 232.424 111.176C232.377 110.931 232.427 110.678 232.565 110.47C232.702 110.262 232.916 110.116 233.16 110.064C244.792 107.797 256.397 105.293 267.976 102.552C268.101 102.529 268.229 102.532 268.353 102.56C268.477 102.589 268.593 102.642 268.696 102.717C268.798 102.792 268.884 102.887 268.949 102.996C269.014 103.105 269.056 103.226 269.072 103.352C269.14 103.617 269.104 103.898 268.972 104.138C268.84 104.377 268.621 104.557 268.36 104.64Z" fill="url(#paint14_linear_252_12787)"/>
<path d="M269.48 111.2C257.837 113.654 246.173 115.867 234.488 117.84C234.365 117.859 234.24 117.854 234.12 117.824C233.999 117.794 233.886 117.74 233.787 117.665C233.688 117.59 233.604 117.497 233.542 117.389C233.48 117.282 233.44 117.163 233.424 117.04C233.402 116.915 233.406 116.787 233.435 116.663C233.463 116.539 233.517 116.422 233.591 116.32C233.666 116.217 233.76 116.13 233.869 116.064C233.978 115.998 234.098 115.955 234.224 115.936C245.893 113.899 257.544 111.616 269.176 109.088C269.304 109.069 269.434 109.077 269.559 109.11C269.684 109.143 269.8 109.202 269.902 109.282C270.003 109.362 270.086 109.462 270.147 109.576C270.208 109.69 270.245 109.815 270.256 109.944C270.314 110.213 270.266 110.494 270.121 110.729C269.977 110.963 269.747 111.132 269.48 111.2Z" fill="url(#paint15_linear_252_12787)"/>
<path d="M270.472 117.76C258.787 119.995 247.08 121.987 235.352 123.736C235.231 123.753 235.107 123.746 234.988 123.714C234.87 123.683 234.759 123.629 234.661 123.555C234.564 123.48 234.482 123.387 234.421 123.281C234.359 123.175 234.32 123.058 234.304 122.936C234.267 122.686 234.331 122.431 234.48 122.228C234.63 122.024 234.854 121.888 235.104 121.848C246.837 120.024 258.531 117.96 270.184 115.656C270.312 115.639 270.443 115.649 270.567 115.685C270.692 115.721 270.807 115.782 270.907 115.865C271.007 115.947 271.089 116.049 271.147 116.165C271.206 116.28 271.24 116.407 271.248 116.536C271.299 116.801 271.247 117.075 271.103 117.302C270.959 117.53 270.733 117.694 270.472 117.76Z" fill="url(#paint16_linear_252_12787)"/>
<path d="M257.336 126.664C250.264 127.757 243.187 128.768 236.104 129.696C235.981 129.709 235.857 129.698 235.738 129.663C235.619 129.628 235.509 129.569 235.413 129.491C235.317 129.413 235.237 129.317 235.179 129.208C235.12 129.099 235.084 128.979 235.072 128.856C235.042 128.609 235.108 128.359 235.257 128.16C235.406 127.96 235.626 127.825 235.872 127.784C242.944 126.819 250.013 125.765 257.08 124.624C257.206 124.611 257.334 124.623 257.456 124.66C257.577 124.697 257.69 124.758 257.788 124.839C257.886 124.92 257.966 125.02 258.024 125.133C258.083 125.246 258.118 125.369 258.128 125.496C258.169 125.755 258.11 126.02 257.963 126.237C257.816 126.453 257.592 126.606 257.336 126.664Z" fill="url(#paint17_linear_252_12787)"/>
<path d="M269.6 88.864C265.755 89.9307 261.899 90.9974 258.032 92.064C257.056 87.7387 255.989 83.4427 254.832 79.176C259.824 82.2427 264.747 85.472 269.6 88.864Z" fill="url(#paint18_linear_252_12787)"/>
<path d="M270.728 115.2C270.7 114.923 270.615 114.655 270.481 114.411C270.346 114.167 270.163 113.953 269.943 113.782C269.723 113.611 269.471 113.486 269.202 113.415C268.933 113.344 268.652 113.328 268.376 113.368L249.656 115.512C248.923 115.638 248.253 116.004 247.752 116.553C247.251 117.102 246.947 117.803 246.888 118.544L244 158.768C243.953 159.094 243.983 159.427 244.087 159.739C244.191 160.052 244.366 160.336 244.599 160.569C244.832 160.802 245.116 160.977 245.429 161.081C245.741 161.185 246.074 161.215 246.4 161.168L305.784 154.4C306.517 154.277 307.187 153.913 307.689 153.365C308.191 152.817 308.494 152.117 308.552 151.376L310.952 118.216C311.004 117.887 310.978 117.551 310.877 117.234C310.775 116.917 310.601 116.628 310.367 116.391C310.134 116.154 309.848 115.974 309.533 115.868C309.218 115.761 308.882 115.73 308.552 115.776L276.232 119.488C275.586 119.587 274.927 119.553 274.295 119.388C273.663 119.223 273.072 118.931 272.556 118.53C272.041 118.128 271.613 117.626 271.299 117.054C270.984 116.481 270.79 115.85 270.728 115.2Z" fill="url(#paint19_linear_252_12787)"/>
<path d="M225.256 146.4C223.592 162.976 221.544 179.464 219.112 195.864C204.515 193.549 189.907 191.312 175.288 189.152C178.189 169.488 180.525 149.68 182.296 129.728C193.032 130.709 203.781 131.733 214.544 132.8C218.144 137.28 221.715 141.813 225.256 146.4Z" fill="url(#paint20_linear_252_12787)"/>
<path opacity="0.7" d="M225.256 146.4C223.592 162.976 221.544 179.464 219.112 195.864C204.515 193.549 189.907 191.312 175.288 189.152C178.189 169.488 180.525 149.68 182.296 129.728C193.032 130.709 203.781 131.733 214.544 132.8C218.144 137.28 221.715 141.813 225.256 146.4Z" fill="#FAFAFA"/>
<path d="M220.096 153.432C208.363 152.04 196.595 150.707 184.792 149.432C184.551 149.4 184.332 149.275 184.183 149.083C184.033 148.892 183.965 148.649 183.992 148.408C184.024 148.169 184.148 147.951 184.338 147.802C184.527 147.653 184.768 147.583 185.008 147.608C196.784 148.877 208.555 150.197 220.32 151.568C220.565 151.608 220.785 151.74 220.934 151.939C221.084 152.137 221.15 152.386 221.12 152.632C221.084 152.871 220.958 153.087 220.768 153.236C220.577 153.385 220.337 153.455 220.096 153.432Z" fill="url(#paint21_linear_252_12787)"/>
<path d="M219.432 159.416C207.699 157.965 195.939 156.563 184.152 155.208C183.91 155.172 183.691 155.044 183.542 154.85C183.393 154.656 183.324 154.411 183.352 154.168C183.386 153.928 183.512 153.711 183.703 153.561C183.894 153.412 184.135 153.343 184.376 153.368C196.147 154.707 207.909 156.091 219.664 157.52C219.911 157.56 220.132 157.694 220.281 157.894C220.431 158.094 220.496 158.344 220.464 158.592C220.436 158.838 220.311 159.063 220.118 159.217C219.925 159.372 219.678 159.443 219.432 159.416Z" fill="url(#paint22_linear_252_12787)"/>
<path d="M218.736 165.4C207.003 163.88 195.251 162.411 183.48 160.992C183.238 160.956 183.019 160.828 182.87 160.634C182.721 160.44 182.652 160.195 182.68 159.952C182.716 159.711 182.843 159.494 183.035 159.345C183.228 159.196 183.47 159.127 183.712 159.152C195.445 160.555 207.2 162.005 218.976 163.504C219.223 163.544 219.444 163.678 219.593 163.878C219.743 164.078 219.808 164.328 219.776 164.576C219.746 164.823 219.62 165.047 219.425 165.202C219.231 165.356 218.983 165.427 218.736 165.4Z" fill="url(#paint23_linear_252_12787)"/>
<path d="M218.008 171.376C206.275 169.776 194.541 168.243 182.808 166.776C182.565 166.742 182.345 166.614 182.195 166.42C182.046 166.225 181.978 165.98 182.008 165.736C182.04 165.494 182.166 165.274 182.359 165.124C182.553 164.974 182.797 164.907 183.04 164.936C194.773 166.398 206.52 167.912 218.28 169.48C218.528 169.52 218.751 169.655 218.901 169.857C219.05 170.059 219.115 170.311 219.08 170.56C219.064 170.685 219.024 170.805 218.961 170.913C218.899 171.022 218.815 171.117 218.715 171.193C218.615 171.269 218.501 171.324 218.38 171.356C218.259 171.387 218.132 171.394 218.008 171.376Z" fill="url(#paint24_linear_252_12787)"/>
<path d="M203.256 175.4C196.184 174.435 189.112 173.483 182.04 172.544C181.919 172.529 181.802 172.491 181.696 172.43C181.589 172.37 181.496 172.289 181.422 172.192C181.348 172.095 181.293 171.984 181.262 171.866C181.231 171.748 181.223 171.625 181.24 171.504C181.272 171.262 181.398 171.042 181.591 170.892C181.785 170.742 182.029 170.675 182.272 170.704C189.355 171.627 196.427 172.565 203.488 173.52C203.736 173.558 203.958 173.691 204.108 173.892C204.258 174.093 204.322 174.344 204.288 174.592C204.256 174.835 204.13 175.056 203.937 175.207C203.744 175.358 203.5 175.427 203.256 175.4Z" fill="url(#paint25_linear_252_12787)"/>
<path d="M225.256 146.4L213.376 145.088C213.792 140.981 214.181 136.872 214.544 132.76C218.144 137.267 221.715 141.813 225.256 146.4Z" fill="url(#paint26_linear_252_12787)"/>
<defs>
<linearGradient id="paint0_linear_252_12787" x1="153.706" y1="126.658" x2="153.706" y2="150.176" gradientUnits="userSpaceOnUse">
<stop stop-color="#56B948"/>
<stop offset="1" stop-color="#195950"/>
</linearGradient>
<linearGradient id="paint1_linear_252_12787" x1="136.007" y1="125.864" x2="136.007" y2="183.48" gradientUnits="userSpaceOnUse">
<stop stop-color="#56B948"/>
<stop offset="1" stop-color="#195950"/>
</linearGradient>
<linearGradient id="paint2_linear_252_12787" x1="154.584" y1="181.12" x2="154.584" y2="318.144" gradientUnits="userSpaceOnUse">
<stop stop-color="#56B948"/>
<stop offset="1" stop-color="#195950"/>
</linearGradient>
<linearGradient id="paint3_linear_252_12787" x1="129.667" y1="181.952" x2="129.667" y2="317.68" gradientUnits="userSpaceOnUse">
<stop stop-color="#56B948"/>
<stop offset="1" stop-color="#195950"/>
</linearGradient>
<linearGradient id="paint4_linear_252_12787" x1="123.156" y1="313.608" x2="123.156" y2="317.928" gradientUnits="userSpaceOnUse">
<stop stop-color="#56B948"/>
<stop offset="1" stop-color="#195950"/>
</linearGradient>
<linearGradient id="paint5_linear_252_12787" x1="170.336" y1="310.912" x2="170.336" y2="318.576" gradientUnits="userSpaceOnUse">
<stop stop-color="#56B948"/>
<stop offset="1" stop-color="#195950"/>
</linearGradient>
<linearGradient id="paint6_linear_252_12787" x1="126.578" y1="324.959" x2="126.578" y2="326.566" gradientUnits="userSpaceOnUse">
<stop stop-color="#56B948"/>
<stop offset="1" stop-color="#195950"/>
</linearGradient>
<linearGradient id="paint7_linear_252_12787" x1="125.937" y1="323.537" x2="125.937" y2="326.36" gradientUnits="userSpaceOnUse">
<stop stop-color="#56B948"/>
<stop offset="1" stop-color="#195950"/>
</linearGradient>
<linearGradient id="paint8_linear_252_12787" x1="177.698" y1="322.129" x2="177.698" y2="324.344" gradientUnits="userSpaceOnUse">
<stop stop-color="#56B948"/>
<stop offset="1" stop-color="#195950"/>
</linearGradient>
<linearGradient id="paint9_linear_252_12787" x1="176.744" y1="321.175" x2="176.744" y2="324.368" gradientUnits="userSpaceOnUse">
<stop stop-color="#56B948"/>
<stop offset="1" stop-color="#195950"/>
</linearGradient>
<linearGradient id="paint10_linear_252_12787" x1="124.78" y1="187.65" x2="124.78" y2="238.158" gradientUnits="userSpaceOnUse">
<stop stop-color="#56B948"/>
<stop offset="1" stop-color="#195950"/>
</linearGradient>
<linearGradient id="paint11_linear_252_12787" x1="114.956" y1="128.792" x2="114.956" y2="154.672" gradientUnits="userSpaceOnUse">
<stop stop-color="#56B948"/>
<stop offset="1" stop-color="#195950"/>
</linearGradient>
<linearGradient id="paint12_linear_252_12787" x1="250.588" y1="79.1521" x2="250.588" y2="148.056" gradientUnits="userSpaceOnUse">
<stop stop-color="#56B948"/>
<stop offset="1" stop-color="#195950"/>
</linearGradient>
<linearGradient id="paint13_linear_252_12787" x1="249.559" y1="96.0859" x2="249.559" y2="106.153" gradientUnits="userSpaceOnUse">
<stop stop-color="#56B948"/>
<stop offset="1" stop-color="#195950"/>
</linearGradient>
<linearGradient id="paint14_linear_252_12787" x1="250.756" y1="102.537" x2="250.756" y2="111.951" gradientUnits="userSpaceOnUse">
<stop stop-color="#56B948"/>
<stop offset="1" stop-color="#195950"/>
</linearGradient>
<linearGradient id="paint15_linear_252_12787" x1="251.845" y1="109.078" x2="251.845" y2="117.851" gradientUnits="userSpaceOnUse">
<stop stop-color="#56B948"/>
<stop offset="1" stop-color="#195950"/>
</linearGradient>
<linearGradient id="paint16_linear_252_12787" x1="252.781" y1="115.648" x2="252.781" y2="123.745" gradientUnits="userSpaceOnUse">
<stop stop-color="#56B948"/>
<stop offset="1" stop-color="#195950"/>
</linearGradient>
<linearGradient id="paint17_linear_252_12787" x1="246.603" y1="124.619" x2="246.603" y2="129.701" gradientUnits="userSpaceOnUse">
<stop stop-color="#56B948"/>
<stop offset="1" stop-color="#195950"/>
</linearGradient>
<linearGradient id="paint18_linear_252_12787" x1="262.216" y1="79.176" x2="262.216" y2="92.064" gradientUnits="userSpaceOnUse">
<stop stop-color="#56B948"/>
<stop offset="1" stop-color="#195950"/>
</linearGradient>
<linearGradient id="paint19_linear_252_12787" x1="277.478" y1="113.346" x2="277.478" y2="161.19" gradientUnits="userSpaceOnUse">
<stop stop-color="#56B948"/>
<stop offset="1" stop-color="#195950"/>
</linearGradient>
<linearGradient id="paint20_linear_252_12787" x1="200.272" y1="129.728" x2="200.272" y2="195.864" gradientUnits="userSpaceOnUse">
<stop stop-color="#56B948"/>
<stop offset="1" stop-color="#195950"/>
</linearGradient>
<linearGradient id="paint21_linear_252_12787" x1="202.557" y1="147.603" x2="202.557" y2="153.436" gradientUnits="userSpaceOnUse">
<stop stop-color="#56B948"/>
<stop offset="1" stop-color="#195950"/>
</linearGradient>
<linearGradient id="paint22_linear_252_12787" x1="201.909" y1="153.363" x2="201.909" y2="159.422" gradientUnits="userSpaceOnUse">
<stop stop-color="#56B948"/>
<stop offset="1" stop-color="#195950"/>
</linearGradient>
<linearGradient id="paint23_linear_252_12787" x1="201.229" y1="159.147" x2="201.229" y2="165.406" gradientUnits="userSpaceOnUse">
<stop stop-color="#56B948"/>
<stop offset="1" stop-color="#195950"/>
</linearGradient>
<linearGradient id="paint24_linear_252_12787" x1="200.545" y1="164.929" x2="200.545" y2="171.386" gradientUnits="userSpaceOnUse">
<stop stop-color="#56B948"/>
<stop offset="1" stop-color="#195950"/>
</linearGradient>
<linearGradient id="paint25_linear_252_12787" x1="192.764" y1="170.697" x2="192.764" y2="175.406" gradientUnits="userSpaceOnUse">
<stop stop-color="#56B948"/>
<stop offset="1" stop-color="#195950"/>
</linearGradient>
<linearGradient id="paint26_linear_252_12787" x1="219.316" y1="132.76" x2="219.316" y2="146.4" gradientUnits="userSpaceOnUse">
<stop stop-color="#56B948"/>
<stop offset="1" stop-color="#195950"/>
</linearGradient>
</defs>
</svg>
