<svg width="400" height="400" viewBox="0 0 400 400" fill="none" xmlns="http://www.w3.org/2000/svg">
<path d="M400 305.92H0V306.12H400V305.92Z" fill="#EBEBEB"/>
<path d="M68.464 313.536H41.968V313.736H68.464V313.536Z" fill="#EBEBEB"/>
<path d="M170.936 311.368H136.912V311.568H170.936V311.368Z" fill="#EBEBEB"/>
<path d="M90.128 316.344H74.776V316.544H90.128V316.344Z" fill="#EBEBEB"/>
<path d="M359.92 319.624H347.736V319.824H359.92V319.624Z" fill="#EBEBEB"/>
<path d="M340.608 319.624H313.176V319.824H340.608V319.624Z" fill="#EBEBEB"/>
<path d="M265.464 313.864H246.4V314.064H265.464V313.864Z" fill="#EBEBEB"/>
<path d="M189.6 270.24H35.136C33.9245 270.24 32.7626 269.759 31.9059 268.902C31.0493 268.045 30.568 266.884 30.568 265.672V48.528C30.5785 47.3234 31.0645 46.1718 31.92 45.3238C32.7755 44.4757 33.9314 44 35.136 44H189.6C190.812 44 191.973 44.4813 192.83 45.3379C193.687 46.1946 194.168 47.3565 194.168 48.568V265.672C194.168 266.884 193.687 268.045 192.83 268.902C191.973 269.759 190.812 270.24 189.6 270.24ZM35.136 44.16C33.9782 44.1621 32.8684 44.623 32.0497 45.4417C31.231 46.2604 30.7701 47.3702 30.768 48.528V265.672C30.7701 266.83 31.231 267.94 32.0497 268.758C32.8684 269.577 33.9782 270.038 35.136 270.04H189.6C190.758 270.038 191.868 269.577 192.686 268.758C193.505 267.94 193.966 266.83 193.968 265.672V48.528C193.966 47.3702 193.505 46.2604 192.686 45.4417C191.868 44.623 190.758 44.1621 189.6 44.16H35.136Z" fill="#EBEBEB"/>
<path d="M362.648 270.24H208.168C206.957 270.238 205.796 269.756 204.94 268.9C204.084 268.044 203.602 266.883 203.6 265.672V48.528C203.613 47.3241 204.099 46.1737 204.954 45.3261C205.809 44.4785 206.964 44.002 208.168 44H362.648C363.85 44.0042 365.002 44.4818 365.854 45.3294C366.706 46.177 367.189 47.3262 367.2 48.528V265.672C367.2 266.881 366.721 268.04 365.868 268.896C365.014 269.753 363.857 270.236 362.648 270.24ZM208.168 44.16C207.01 44.1621 205.9 44.623 205.082 45.4417C204.263 46.2604 203.802 47.3702 203.8 48.528V265.672C203.802 266.83 204.263 267.94 205.082 268.758C205.9 269.577 207.01 270.038 208.168 270.04H362.648C363.806 270.038 364.916 269.577 365.734 268.758C366.553 267.94 367.014 266.83 367.016 265.672V48.528C367.014 47.3702 366.553 46.2604 365.734 45.4417C364.916 44.623 363.806 44.1621 362.648 44.16H208.168Z" fill="#EBEBEB"/>
<path d="M246 157.096H332.296V70.5679L246 70.5679V157.096Z" fill="#F0F0F0"/>
<path d="M246 70.5759H244.512V157.104H246V70.5759Z" fill="#E0E0E0"/>
<path d="M253.624 151.632H324.68V76.0321L253.624 76.0321V151.632Z" fill="#FAFAFA"/>
<path d="M281.6 135.2H304.104C308.984 135.2 312.248 131.248 311.392 126.4L307.016 101.336C306.53 98.9108 305.238 96.7214 303.349 95.1237C301.461 93.526 299.088 92.614 296.616 92.5359H274.168C269.288 92.5359 266.024 96.4879 266.88 101.336L271.256 126.4C271.739 128.817 273.022 131 274.899 132.597C276.776 134.194 279.137 135.111 281.6 135.2Z" fill="#F0F0F0"/>
<path d="M83.976 183.376H64.776V301.816H83.976V183.376Z" fill="#F0F0F0"/>
<path d="M168.224 301.824H66.736V305.912H168.224V301.824Z" fill="#F0F0F0"/>
<path d="M83.976 301.824H169.912L169.912 183.384H83.976L83.976 301.824Z" fill="#F5F5F5"/>
<path d="M87.432 266.2H166.456V245.048H87.432V266.2Z" fill="#F0F0F0"/>
<path d="M87.432 293.88H166.456V272.728H87.432V293.88Z" fill="#F0F0F0"/>
<path d="M157.104 243.752H96.784C96.2626 243.752 95.84 244.175 95.84 244.696V245.712C95.84 246.233 96.2626 246.656 96.784 246.656H157.104C157.625 246.656 158.048 246.233 158.048 245.712V244.696C158.048 244.175 157.625 243.752 157.104 243.752Z" fill="#F5F5F5"/>
<path d="M157.104 271.44H96.784C96.2626 271.44 95.84 271.863 95.84 272.384V273.4C95.84 273.921 96.2626 274.344 96.784 274.344H157.104C157.625 274.344 158.048 273.921 158.048 273.4V272.384C158.048 271.863 157.625 271.44 157.104 271.44Z" fill="#F5F5F5"/>
<path d="M87.432 211.056H166.456V189.904H87.432V211.056Z" fill="#F0F0F0"/>
<path d="M87.432 238.528H166.456V217.376H87.432V238.528Z" fill="#F0F0F0"/>
<path d="M157.104 188.616H96.784C96.2626 188.616 95.84 189.039 95.84 189.56V190.576C95.84 191.097 96.2626 191.52 96.784 191.52H157.104C157.625 191.52 158.048 191.097 158.048 190.576V189.56C158.048 189.039 157.625 188.616 157.104 188.616Z" fill="#F5F5F5"/>
<path d="M157.104 216.072H96.784C96.2626 216.072 95.84 216.495 95.84 217.016V218.032C95.84 218.553 96.2626 218.976 96.784 218.976H157.104C157.625 218.976 158.048 218.553 158.048 218.032V217.016C158.048 216.495 157.625 216.072 157.104 216.072Z" fill="#F5F5F5"/>
<path d="M166.8 64.0481H59.032V158.656H166.8V64.0481Z" fill="#E6E6E6"/>
<path d="M178.352 60.3679H52.056C51.9156 60.3679 51.7766 60.3957 51.6469 60.4497C51.5173 60.5036 51.3997 60.5827 51.3008 60.6824C51.2019 60.782 51.1237 60.9003 51.0707 61.0303C51.0177 61.1603 50.9909 61.2995 50.992 61.4399C50.992 61.7221 51.1041 61.9927 51.3036 62.1923C51.5031 62.3918 51.7738 62.5039 52.056 62.5039H178.352C178.635 62.5039 178.906 62.3921 179.107 62.1928C179.308 61.9935 179.422 61.7228 179.424 61.4399C179.424 61.1556 179.311 60.8829 179.11 60.6819C178.909 60.4809 178.636 60.3679 178.352 60.3679Z" fill="#E6E6E6"/>
<path d="M171.376 64.0481H61.168V158.656H171.376V64.0481Z" fill="#F0F0F0"/>
<path d="M166.8 158.656H59.032V161.688H169.952L166.8 158.656Z" fill="#E6E6E6"/>
<path d="M178.992 158.656H68.792L71.936 161.688H182.144L178.992 158.656Z" fill="#F0F0F0"/>
<path d="M164.976 152.256V70.448H67.576V152.256H164.976Z" fill="#FAFAFA"/>
<path d="M89.688 152.256L127.256 70.448H145L107.424 152.256H89.688Z" fill="white"/>
<path d="M111.232 152.256L148.808 70.448H155.72L118.152 152.256H111.232Z" fill="white"/>
<path d="M164.976 152.256V70.448H164.16V152.256H164.976Z" fill="#E6E6E6"/>
<g opacity="0.4">
<path d="M67.648 58.4561H56.632V136.528H67.648V58.4561Z" fill="#F0F0F0"/>
<path d="M71.944 58.4561H63.36V136.528H71.944V58.4561Z" fill="#E6E6E6"/>
<path d="M78.664 58.4561H67.648V136.528H78.664V58.4561Z" fill="#F0F0F0"/>
<path d="M82.96 58.4561H74.376V136.528H82.96V58.4561Z" fill="#E6E6E6"/>
<path d="M89.68 58.4561H78.664V136.528H89.68V58.4561Z" fill="#F0F0F0"/>
</g>
<g opacity="0.4">
<path d="M160.88 58.4561H154.528V136.528H160.88V58.4561Z" fill="#F0F0F0"/>
<path d="M163.344 58.4561H158.4V136.528H163.344V58.4561Z" fill="#E6E6E6"/>
<path d="M167.224 58.4561H160.872V136.528H167.224V58.4561Z" fill="#F0F0F0"/>
<path d="M169.696 58.4561H164.752V136.528H169.696V58.4561Z" fill="#E6E6E6"/>
<path d="M173.576 58.4561H167.224V136.528H173.576V58.4561Z" fill="#F0F0F0"/>
</g>
<path d="M285.48 215.368C285.386 216.525 285.637 217.684 286.201 218.699C286.766 219.714 287.619 220.538 288.651 221.068C289.684 221.598 290.851 221.81 292.005 221.677C293.158 221.545 294.246 221.073 295.132 220.322C296.017 219.57 296.66 218.574 296.979 217.457C297.298 216.341 297.279 215.155 296.924 214.049C296.569 212.944 295.894 211.968 294.985 211.246C294.076 210.524 292.973 210.088 291.816 209.992C290.263 209.866 288.724 210.361 287.536 211.369C286.348 212.377 285.608 213.815 285.48 215.368Z" fill="#E0E0E0"/>
<path d="M301.807 224.72C305.02 224.247 307.241 221.259 306.768 218.046C306.296 214.834 303.308 212.612 300.095 213.085C296.882 213.558 294.661 216.545 295.134 219.758C295.606 222.971 298.594 225.192 301.807 224.72Z" fill="#E0E0E0"/>
<path d="M305.376 219.64C305.282 220.797 305.533 221.956 306.097 222.971C306.662 223.986 307.515 224.81 308.547 225.34C309.58 225.87 310.747 226.082 311.901 225.949C313.054 225.817 314.142 225.345 315.028 224.594C315.913 223.842 316.556 222.846 316.875 221.729C317.194 220.613 317.175 219.427 316.82 218.321C316.465 217.216 315.79 216.24 314.881 215.518C313.972 214.796 312.869 214.36 311.712 214.264C310.943 214.199 310.168 214.287 309.433 214.523C308.698 214.758 308.016 215.137 307.427 215.636C306.839 216.136 306.355 216.746 306.002 217.433C305.65 218.121 305.438 218.87 305.376 219.64Z" fill="#E0E0E0"/>
<path d="M274.56 218.448C274.466 219.605 274.717 220.764 275.281 221.779C275.846 222.794 276.699 223.618 277.731 224.148C278.764 224.678 279.931 224.89 281.085 224.758C282.238 224.625 283.326 224.153 284.212 223.402C285.097 222.65 285.74 221.654 286.059 220.537C286.378 219.421 286.359 218.235 286.004 217.129C285.649 216.024 284.974 215.048 284.065 214.326C283.156 213.604 282.053 213.168 280.896 213.072C279.343 212.946 277.804 213.441 276.616 214.449C275.428 215.457 274.688 216.895 274.56 218.448Z" fill="#E0E0E0"/>
<path d="M320.575 224.716C323.788 224.243 326.009 221.255 325.536 218.043C325.064 214.83 322.076 212.608 318.863 213.081C315.65 213.554 313.429 216.542 313.902 219.754C314.374 222.967 317.362 225.189 320.575 224.716Z" fill="#E0E0E0"/>
<path d="M276.316 218.426C278.784 216.315 279.073 212.603 276.962 210.135C274.852 207.667 271.14 207.377 268.672 209.488C266.204 211.599 265.914 215.311 268.025 217.779C270.136 220.247 273.848 220.536 276.316 218.426Z" fill="#E0E0E0"/>
<path d="M258.336 217.112C258.242 218.269 258.493 219.429 259.057 220.443C259.622 221.458 260.475 222.282 261.507 222.812C262.54 223.342 263.707 223.554 264.861 223.422C266.014 223.289 267.102 222.817 267.988 222.066C268.873 221.314 269.516 220.318 269.835 219.201C270.154 218.085 270.135 216.899 269.78 215.793C269.425 214.688 268.75 213.712 267.841 212.99C266.932 212.268 265.829 211.832 264.672 211.736C263.119 211.61 261.58 212.105 260.392 213.113C259.204 214.121 258.464 215.559 258.336 217.112Z" fill="#E0E0E0"/>
<path d="M251.624 218.696C251.624 218.696 252.632 242.752 291.288 242.752C329.944 242.752 330.952 218.696 330.952 218.696H251.624Z" fill="#F0F0F0"/>
<path d="M353.008 242.752H345.656V305.912H353.008V242.752Z" fill="#E6E6E6"/>
<path d="M354.968 242.752H350.64V305.912H354.968V242.752Z" fill="#F0F0F0"/>
<path d="M321.728 242.752H314.376V305.912H321.728V242.752Z" fill="#E6E6E6"/>
<path d="M323.104 242.752H318.776V305.912H323.104V242.752Z" fill="#F0F0F0"/>
<path d="M251.944 250.416H356.312V242.76H251.944V250.416Z" fill="#F0F0F0"/>
<path d="M220.048 242.752H212.696V305.912H220.048V242.752Z" fill="#E6E6E6"/>
<path d="M221.424 242.752H217.096V305.912H221.424V242.752Z" fill="#F0F0F0"/>
<path d="M211.384 250.416H248.8V242.76H211.384V250.416Z" fill="#E6E6E6"/>
<path d="M251.32 242.752H243.968V305.912H251.32V242.752Z" fill="#E6E6E6"/>
<path d="M253.288 242.752H248.96V305.912H253.288V242.752Z" fill="#F0F0F0"/>
<path d="M200 342.048C285.666 342.048 355.112 337.994 355.112 332.992C355.112 327.991 285.666 323.936 200 323.936C114.334 323.936 44.888 327.991 44.888 332.992C44.888 337.994 114.334 342.048 200 342.048Z" fill="#F5F5F5"/>
<path d="M284.384 325.048C284.385 326.647 283.819 328.194 282.786 329.414C281.753 330.635 280.321 331.449 278.744 331.712C259.334 334.987 239.514 334.987 220.104 331.712C218.534 331.442 217.11 330.624 216.085 329.404C215.06 328.185 214.5 326.641 214.504 325.048V260.248H284.416L284.384 325.048Z" fill="url(#paint0_linear_252_12169)"/>
<path opacity="0.3" d="M214.464 261.416V270.512C218.672 272.072 232.488 273.216 249.424 273.216C266.36 273.216 280.2 272.072 284.384 270.512V261.416H214.464Z" fill="black"/>
<path d="M285.696 268.352C285.696 270.408 269.824 272.072 249.424 272.072C229.024 272.072 213.152 270.408 213.152 268.352L212.488 260.272H286.4L285.696 268.352Z" fill="url(#paint1_linear_252_12169)"/>
<path d="M249.424 263.984C269.823 263.984 286.36 262.322 286.36 260.272C286.36 258.222 269.823 256.56 249.424 256.56C229.025 256.56 212.488 258.222 212.488 260.272C212.488 262.322 229.025 263.984 249.424 263.984Z" fill="url(#paint2_linear_252_12169)"/>
<path opacity="0.3" d="M249.424 263.984C269.823 263.984 286.36 262.322 286.36 260.272C286.36 258.222 269.823 256.56 249.424 256.56C229.025 256.56 212.488 258.222 212.488 260.272C212.488 262.322 229.025 263.984 249.424 263.984Z" fill="black"/>
<path opacity="0.2" d="M223.84 320.488C223.121 320.486 222.433 320.2 221.925 319.691C221.417 319.183 221.13 318.495 221.128 317.776V280.624C221.13 279.905 221.417 279.217 221.925 278.709C222.433 278.201 223.121 277.914 223.84 277.912C224.558 277.916 225.245 278.203 225.753 278.711C226.261 279.219 226.548 279.906 226.552 280.624V317.776C226.548 318.494 226.261 319.181 225.753 319.689C225.245 320.197 224.558 320.484 223.84 320.488Z" fill="black"/>
<path opacity="0.2" d="M275.016 320.488C274.297 320.486 273.609 320.2 273.101 319.691C272.592 319.183 272.306 318.495 272.304 317.776V280.624C272.306 279.905 272.592 279.217 273.101 278.709C273.609 278.201 274.297 277.914 275.016 277.912C275.734 277.916 276.421 278.203 276.929 278.711C277.437 279.219 277.724 279.906 277.728 280.624V317.776C277.724 318.494 277.437 319.181 276.929 319.689C276.421 320.197 275.734 320.484 275.016 320.488Z" fill="black"/>
<path opacity="0.2" d="M257.952 320.488C257.234 320.484 256.547 320.197 256.039 319.689C255.531 319.181 255.244 318.494 255.24 317.776V280.624C255.244 279.906 255.531 279.219 256.039 278.711C256.547 278.203 257.234 277.916 257.952 277.912C258.671 277.914 259.359 278.201 259.867 278.709C260.375 279.217 260.662 279.905 260.664 280.624V317.776C260.662 318.495 260.375 319.183 259.867 319.691C259.359 320.2 258.671 320.486 257.952 320.488Z" fill="black"/>
<path opacity="0.2" d="M240.896 320.488C240.178 320.484 239.491 320.197 238.983 319.689C238.475 319.181 238.188 318.494 238.184 317.776V280.624C238.188 279.906 238.475 279.219 238.983 278.711C239.491 278.203 240.178 277.916 240.896 277.912C241.615 277.914 242.303 278.201 242.811 278.709C243.319 279.217 243.606 279.905 243.608 280.624V317.776C243.606 318.495 243.319 319.183 242.811 319.691C242.303 320.2 241.615 320.486 240.896 320.488Z" fill="black"/>
<path d="M154.304 111.328C154.304 112.062 154.086 112.78 153.678 113.39C153.271 114.001 152.691 114.477 152.013 114.758C151.334 115.039 150.588 115.112 149.868 114.969C149.148 114.826 148.486 114.472 147.967 113.953C147.448 113.434 147.095 112.772 146.951 112.052C146.808 111.332 146.882 110.586 147.163 109.908C147.444 109.229 147.919 108.65 148.53 108.242C149.14 107.834 149.858 107.616 150.592 107.616C151.576 107.616 152.521 108.007 153.217 108.703C153.913 109.4 154.304 110.344 154.304 111.328Z" fill="#263238"/>
<path d="M147.608 111.864C147.572 111.865 147.536 111.856 147.505 111.837C147.474 111.819 147.449 111.792 147.432 111.76C147.187 111.309 147.033 110.815 146.978 110.304C146.924 109.794 146.971 109.278 147.116 108.786C147.262 108.294 147.502 107.835 147.825 107.436C148.147 107.037 148.545 106.705 148.996 106.46C149.447 106.215 149.941 106.061 150.452 106.006C150.962 105.952 151.478 105.999 151.97 106.144C152.462 106.29 152.921 106.53 153.32 106.853C153.719 107.175 154.051 107.573 154.296 108.024C154.32 108.071 154.324 108.125 154.31 108.176C154.295 108.226 154.261 108.269 154.216 108.296C154.193 108.309 154.168 108.317 154.141 108.32C154.115 108.322 154.089 108.32 154.063 108.313C154.038 108.305 154.015 108.293 153.994 108.276C153.974 108.26 153.957 108.239 153.944 108.216C153.499 107.399 152.749 106.792 151.857 106.529C150.965 106.266 150.005 106.368 149.188 106.812C148.371 107.257 147.764 108.007 147.501 108.899C147.238 109.791 147.34 110.751 147.784 111.568C147.797 111.591 147.805 111.617 147.808 111.643C147.81 111.669 147.808 111.695 147.801 111.721C147.793 111.746 147.781 111.77 147.764 111.79C147.748 111.81 147.727 111.827 147.704 111.84C147.674 111.855 147.641 111.864 147.608 111.864Z" fill="#263238"/>
<path d="M144 128.288C143.277 128.285 142.569 128.082 141.954 127.701C141.34 127.32 140.843 126.776 140.519 126.129C140.195 125.483 140.056 124.759 140.118 124.039C140.181 123.318 140.442 122.629 140.872 122.048C141.179 121.637 141.563 121.291 142.004 121.029C142.445 120.767 142.933 120.594 143.44 120.52C143.466 120.516 143.492 120.517 143.518 120.523C143.543 120.529 143.567 120.54 143.588 120.556C143.609 120.571 143.627 120.591 143.64 120.614C143.653 120.637 143.661 120.662 143.664 120.688C143.671 120.74 143.657 120.793 143.626 120.835C143.594 120.876 143.548 120.904 143.496 120.912C142.576 121.047 141.748 121.542 141.193 122.287C140.637 123.033 140.401 123.968 140.536 124.888C140.671 125.808 141.165 126.637 141.911 127.192C142.657 127.747 143.592 127.983 144.512 127.848C144.565 127.84 144.619 127.853 144.663 127.884C144.706 127.916 144.736 127.963 144.744 128.016C144.752 128.069 144.74 128.124 144.708 128.167C144.677 128.211 144.629 128.24 144.576 128.248C144.385 128.273 144.193 128.287 144 128.288Z" fill="#263238"/>
<path d="M164.168 134.336C163.418 134.335 162.684 134.115 162.056 133.704C162.011 133.675 161.98 133.629 161.968 133.577C161.956 133.525 161.965 133.47 161.992 133.424C162.023 133.381 162.069 133.351 162.121 133.34C162.173 133.33 162.227 133.34 162.272 133.368C163.052 133.874 164.001 134.05 164.91 133.856C165.819 133.663 166.614 133.116 167.12 132.336C167.626 131.556 167.802 130.607 167.608 129.698C167.415 128.789 166.868 127.994 166.088 127.488C166.043 127.459 166.012 127.413 166 127.361C165.988 127.309 165.997 127.254 166.024 127.208C166.055 127.165 166.101 127.135 166.153 127.124C166.205 127.114 166.259 127.124 166.304 127.152C167.171 127.717 167.779 128.602 167.995 129.614C168.211 130.626 168.017 131.683 167.456 132.552C167.179 132.985 166.818 133.357 166.395 133.649C165.972 133.94 165.495 134.144 164.992 134.248C164.721 134.305 164.445 134.334 164.168 134.336Z" fill="#263238"/>
<path d="M148.512 122.904C151.41 122.904 153.76 120.555 153.76 117.656C153.76 114.758 151.41 112.408 148.512 112.408C145.614 112.408 143.264 114.758 143.264 117.656C143.264 120.555 145.614 122.904 148.512 122.904Z" fill="#263238"/>
<path d="M153.438 129.642C156.156 126.924 156.156 122.517 153.438 119.799C150.72 117.081 146.313 117.081 143.595 119.799C140.877 122.517 140.877 126.924 143.595 129.642C146.313 132.36 150.72 132.36 153.438 129.642Z" fill="#263238"/>
<path d="M149.248 141.264C153.498 141.264 156.944 137.818 156.944 133.568C156.944 129.318 153.498 125.872 149.248 125.872C144.998 125.872 141.552 129.318 141.552 133.568C141.552 137.818 144.998 141.264 149.248 141.264Z" fill="#263238"/>
<path d="M164.438 135.858C165.414 131.721 162.852 127.576 158.715 126.6C154.579 125.624 150.434 128.186 149.457 132.322C148.481 136.459 151.043 140.604 155.18 141.58C159.316 142.557 163.461 139.995 164.438 135.858Z" fill="#263238"/>
<path d="M182.472 149.968C182.472 150.592 182.472 151.384 182.528 152.104C182.584 152.824 182.584 153.592 182.632 154.336C182.736 155.824 182.84 157.328 183 158.824C183.288 161.827 183.691 164.816 184.208 167.792C184.344 168.528 184.464 169.28 184.616 170.016L184.968 171.832C185.056 172.12 184.968 172.064 184.856 172.056C184.744 172.048 184.856 172.2 185.328 172.2C186.536 172.079 187.712 171.74 188.8 171.2C189.44 170.912 190.096 170.6 190.752 170.264C191.408 169.928 192.072 169.544 192.672 169.208L195.008 171.904C194.451 172.542 193.858 173.149 193.232 173.72C192.616 174.307 191.964 174.854 191.28 175.36C190.563 175.9 189.806 176.384 189.016 176.808C188.117 177.299 187.153 177.66 186.152 177.88C185.535 178.015 184.903 178.068 184.272 178.04C183.502 177.995 182.747 177.805 182.048 177.48C181.304 177.131 180.642 176.629 180.104 176.008C179.642 175.468 179.264 174.861 178.984 174.208C178.767 173.709 178.59 173.192 178.456 172.664L178.144 171.496C177.92 170.696 177.736 169.936 177.544 169.152C176.796 166.007 176.219 162.824 175.816 159.616C175.616 158.016 175.456 156.416 175.36 154.776C175.312 153.976 175.272 153.176 175.248 152.328C175.224 151.48 175.248 150.728 175.248 149.776L182.472 149.968Z" fill="#FFB573"/>
<path d="M178.592 141.344C185.416 146.568 185.144 156.416 185.144 156.416L172.936 159.336C172.936 159.336 169.192 149.432 170.712 145.808C172.296 142.032 174.752 138.4 178.592 141.344Z" fill="url(#paint3_linear_252_12169)"/>
<path opacity="0.7" d="M178.592 141.344C185.416 146.568 185.144 156.416 185.144 156.416L172.936 159.336C172.936 159.336 169.192 149.432 170.712 145.808C172.296 142.032 174.752 138.4 178.592 141.344Z" fill="white"/>
<path d="M192.216 170.128L194.232 166.736L199.288 172.144C199.288 172.144 195.664 174.464 191.904 172.808L192.216 170.128Z" fill="#FFB573"/>
<path d="M196.72 165.112L203.208 168.936L199.288 172.144L194.232 166.736L196.72 165.112Z" fill="#FFB573"/>
<path d="M140.392 327.088L147.368 327.76L151.704 311.416L144.72 310.744L140.392 327.088Z" fill="#FFB573"/>
<path d="M104.632 313.352L110.896 316.632L118.344 301.864L112.08 298.584L104.632 313.352Z" fill="#FFB573"/>
<path d="M112.568 313.76L106.968 308.072C106.875 307.972 106.748 307.911 106.612 307.899C106.476 307.887 106.341 307.926 106.232 308.008L101.088 311.792C100.963 311.892 100.861 312.018 100.788 312.16C100.715 312.303 100.672 312.459 100.663 312.619C100.654 312.779 100.679 312.939 100.735 313.088C100.792 313.238 100.879 313.374 100.992 313.488C102.976 315.44 104.032 316.28 106.496 318.784C108.016 320.32 111.136 323.944 113.232 326.072C115.328 328.2 117.536 326.24 116.856 325.168C113.8 320.368 113.288 317.352 113.096 314.912C113.061 314.478 112.874 314.07 112.568 313.76Z" fill="#263238"/>
<path d="M148.456 325.64H140C139.849 325.642 139.702 325.693 139.582 325.785C139.462 325.877 139.376 326.006 139.336 326.152L137.528 332.8C137.483 332.958 137.475 333.124 137.506 333.286C137.537 333.447 137.606 333.599 137.706 333.729C137.807 333.859 137.936 333.964 138.085 334.034C138.233 334.105 138.396 334.14 138.56 334.136C141.528 334.136 142.936 334.136 146.64 334.136H157.976C161.056 334.136 161.704 331.024 160.424 330.736C154.712 329.472 151.416 327.728 149.656 326.064C149.322 325.779 148.895 325.628 148.456 325.64Z" fill="#263238"/>
<path opacity="0.2" d="M151.696 311.424L149.464 319.848H142.304L144.712 310.752L151.696 311.424Z" fill="black"/>
<path opacity="0.2" d="M112.072 298.584L118.344 301.872L114.504 309.48L108.232 306.192L112.072 298.584Z" fill="black"/>
<path d="M176.528 140.336C176.528 140.336 179.616 141.688 169.264 182.648L140.512 180.16C142.008 168.504 142.64 161.288 139.128 136.784C143.227 136.304 147.355 136.12 151.48 136.232C155.853 136.298 160.216 136.675 164.536 137.36C168.581 138.149 172.583 139.142 176.528 140.336Z" fill="url(#paint4_linear_252_12169)"/>
<path opacity="0.7" d="M176.528 140.336C176.528 140.336 179.616 141.688 169.264 182.648L140.512 180.16C142.008 168.504 142.64 161.288 139.128 136.784C143.227 136.304 147.355 136.12 151.48 136.232C155.853 136.298 160.216 136.675 164.536 137.36C168.581 138.149 172.583 139.142 176.528 140.336Z" fill="white"/>
<path d="M151.48 136C151.48 136 149.88 136 147.92 136C146.76 137.784 151.656 142.992 157.88 148.112C159.384 143.448 161.752 143.464 161.752 143.464L151.48 136Z" fill="white"/>
<path d="M164.528 137.256C164.528 137.256 165.256 137.36 167 137.76C168.152 139.544 168.8 144.008 165.4 147.896C164.064 143.096 161.76 143.528 161.76 143.528L164.528 137.256Z" fill="white"/>
<path d="M154.04 121.64C154.504 125.912 154.656 133.64 151.48 136.232C151.48 136.232 154.872 139.704 161.752 143.528C166.744 140.072 164.536 137.36 164.536 137.36C159.944 135.84 160.368 132.376 161.464 129.176L154.04 121.64Z" fill="#FFB573"/>
<path opacity="0.2" d="M157.072 124.72L161.464 129.176C161.194 129.917 160.991 130.68 160.856 131.456C159.096 131.048 156.536 129.208 156.504 127.32C156.535 126.426 156.727 125.545 157.072 124.72Z" fill="black"/>
<path d="M170.536 107.704C173.48 110.312 174.344 116.664 171.544 120.976C170.703 116.605 170.365 112.152 170.536 107.704Z" fill="#263238"/>
<path d="M153.144 112.672C152.632 119.704 152.272 122.672 155.312 126.728C159.888 132.832 168.64 131.912 171.24 125.176C173.584 119.104 174.024 108.624 167.568 104.928C166.149 104.1 164.542 103.65 162.899 103.62C161.257 103.591 159.635 103.984 158.187 104.761C156.74 105.538 155.516 106.673 154.633 108.058C153.75 109.443 153.238 111.032 153.144 112.672Z" fill="#FFB573"/>
<path d="M152.208 118.336C157.408 118.136 160.288 111.336 158.984 108.464C164.88 111.536 173.808 113.952 172.816 110C171.48 104.664 165.024 100.752 157.08 103.6C152.48 105.6 148.544 110 152.208 118.336Z" fill="#263238"/>
<path d="M150.624 118.328C150.846 119.673 151.587 120.876 152.688 121.68C154.16 122.728 155.504 121.56 155.608 119.856C155.704 118.312 155.056 115.912 153.328 115.544C152.95 115.469 152.558 115.49 152.19 115.604C151.822 115.719 151.488 115.924 151.219 116.201C150.95 116.478 150.755 116.817 150.651 117.189C150.547 117.56 150.538 117.952 150.624 118.328Z" fill="#FFB573"/>
<path d="M169.264 182.648C169.264 182.648 175.768 225.088 172.144 252.352C169.4 272.952 151.696 317.4 151.696 317.4L140.2 317.088C140.2 317.088 152.072 274.008 154.528 257.088C158.728 228.112 148.208 180.856 148.208 180.856L169.264 182.648Z" fill="#263238"/>
<path opacity="0.2" d="M158.048 191.344L151.912 201.016C153.76 212.484 154.932 224.051 155.424 235.656C164.048 220.216 160 199.512 158.048 191.344Z" fill="black"/>
<path d="M153.488 318.04L139.04 317.648L139.92 313L154.848 313.088L153.488 318.04Z" fill="url(#paint5_linear_252_12169)"/>
<path d="M162.976 182.192C162.976 182.192 158.176 229.184 147.208 254.752C138.336 275.392 117.184 308.408 117.184 308.408L108.736 303.464C108.736 303.464 122.336 266.752 129.048 252.992C145.424 219.256 130.192 192.192 140.512 180.192L162.976 182.192Z" fill="#263238"/>
<path d="M118.104 309.128L107.328 303.216L109.08 298.608L120.56 305.088L118.104 309.128Z" fill="url(#paint6_linear_252_12169)"/>
<path d="M140.224 178.44L138.704 180.904C138.592 181.088 138.808 181.32 139.144 181.344L169.296 183.952C169.552 183.952 169.784 183.864 169.808 183.704L170.296 181.152C170.296 180.976 170.112 180.808 169.832 180.784L140.712 178.264C140.622 178.25 140.531 178.259 140.446 178.29C140.36 178.321 140.284 178.372 140.224 178.44Z" fill="url(#paint7_linear_252_12169)"/>
<path d="M143.856 182.032L143.056 181.968C142.904 181.968 142.792 181.864 142.808 181.768L143.464 178.456C143.464 178.352 143.632 178.288 143.784 178.304L144.584 178.368C144.744 178.368 144.856 178.472 144.832 178.568L144.184 181.88C144.152 181.976 144 182.048 143.856 182.032Z" fill="#263238"/>
<path d="M167.08 184.04L166.28 183.976C166.12 183.976 166.008 183.872 166.032 183.776L166.688 180.464C166.688 180.368 166.848 180.296 167 180.312L167.8 180.376C167.952 180.376 168.064 180.48 168.048 180.576L167.392 183.888C167.376 184 167.2 184.056 167.08 184.04Z" fill="#263238"/>
<path d="M155.464 183.04L154.664 182.968C154.512 182.968 154.4 182.864 154.416 182.768L155.072 179.456C155.072 179.36 155.232 179.288 155.392 179.304L156.192 179.376C156.344 179.376 156.456 179.48 156.44 179.576L155.784 182.888C155.768 182.984 155.624 183.048 155.464 183.04Z" fill="#263238"/>
<path d="M164.16 116.168C164.08 116.736 164.32 117.24 164.688 117.288C165.056 117.336 165.424 116.92 165.488 116.352C165.552 115.784 165.32 115.28 164.952 115.232C164.584 115.184 164.232 115.6 164.16 116.168Z" fill="#263238"/>
<path d="M170.576 117.032C170.504 117.6 170.744 118.104 171.112 118.152C171.48 118.2 171.848 117.784 171.912 117.216C171.976 116.648 171.752 116.144 171.384 116.096C171.016 116.048 170.656 116.464 170.576 117.032Z" fill="#263238"/>
<path d="M171.2 116.104L172.624 115.896C172.624 115.896 171.792 116.864 171.2 116.104Z" fill="#263238"/>
<path d="M168.056 117.656C168.389 119.018 168.906 120.329 169.592 121.552C169.276 121.72 168.926 121.817 168.568 121.837C168.21 121.856 167.853 121.797 167.52 121.664L168.056 117.656Z" fill="#ED893E"/>
<path d="M164.192 123.36C163.067 122.993 162.123 122.213 161.552 121.176C161.538 121.143 161.536 121.106 161.548 121.072C161.56 121.038 161.584 121.009 161.616 120.992C161.65 120.975 161.689 120.973 161.725 120.985C161.761 120.997 161.791 121.022 161.808 121.056C162.163 121.679 162.661 122.21 163.26 122.605C163.859 123 164.543 123.247 165.256 123.328C165.292 123.328 165.327 123.342 165.352 123.368C165.378 123.393 165.392 123.428 165.392 123.464C165.392 123.5 165.378 123.535 165.352 123.56C165.327 123.586 165.292 123.6 165.256 123.6C164.893 123.56 164.537 123.48 164.192 123.36Z" fill="#263238"/>
<path d="M161.24 112.88C161.193 112.861 161.152 112.831 161.12 112.792C161.094 112.767 161.073 112.736 161.058 112.703C161.044 112.669 161.037 112.633 161.037 112.596C161.037 112.56 161.044 112.523 161.058 112.49C161.073 112.456 161.094 112.425 161.12 112.4C161.512 112.05 161.983 111.799 162.493 111.671C163.003 111.543 163.537 111.541 164.048 111.664C164.083 111.674 164.116 111.691 164.144 111.714C164.172 111.737 164.196 111.765 164.213 111.797C164.23 111.829 164.24 111.864 164.244 111.901C164.247 111.937 164.243 111.973 164.232 112.008C164.212 112.079 164.164 112.139 164.099 112.175C164.035 112.211 163.959 112.22 163.888 112.2C163.467 112.106 163.03 112.114 162.613 112.223C162.195 112.331 161.81 112.537 161.488 112.824C161.453 112.851 161.413 112.87 161.37 112.879C161.327 112.889 161.283 112.889 161.24 112.88Z" fill="#263238"/>
<path d="M173.272 114.584C173.23 114.568 173.192 114.543 173.16 114.512C172.88 114.183 172.526 113.924 172.127 113.758C171.728 113.591 171.295 113.52 170.864 113.552C170.828 113.56 170.79 113.56 170.753 113.553C170.717 113.545 170.682 113.53 170.652 113.508C170.622 113.486 170.596 113.458 170.578 113.426C170.559 113.393 170.548 113.357 170.544 113.32C170.532 113.247 170.55 113.172 170.594 113.112C170.637 113.052 170.703 113.012 170.776 113C171.298 112.953 171.824 113.032 172.31 113.229C172.796 113.427 173.227 113.738 173.568 114.136C173.607 114.182 173.63 114.24 173.633 114.3C173.637 114.36 173.621 114.42 173.587 114.471C173.554 114.521 173.505 114.559 173.448 114.58C173.392 114.6 173.33 114.602 173.272 114.584Z" fill="#263238"/>
<path d="M179.6 174.944C180.118 173.33 180.949 171.835 182.045 170.542C183.141 169.249 184.481 168.185 185.988 167.41C187.495 166.636 189.14 166.165 190.829 166.026C192.518 165.887 194.218 166.082 195.832 166.6C197.446 167.118 198.942 167.949 200.234 169.045C201.527 170.141 202.591 171.481 203.366 172.988C204.141 174.495 204.611 176.14 204.75 177.829C204.889 179.519 204.694 181.218 204.176 182.832L199.2 198.4L174.624 190.504L179.6 174.944Z" fill="url(#paint8_linear_252_12169)"/>
<path opacity="0.3" d="M179.6 174.944C180.118 173.33 180.949 171.835 182.045 170.542C183.141 169.249 184.481 168.185 185.988 167.41C187.495 166.636 189.14 166.165 190.829 166.026C192.518 165.887 194.218 166.082 195.832 166.6C197.446 167.118 198.942 167.949 200.234 169.045C201.527 170.141 202.591 171.481 203.366 172.988C204.141 174.495 204.611 176.14 204.75 177.829C204.889 179.519 204.694 181.218 204.176 182.832L199.2 198.4L174.624 190.504L179.6 174.944Z" fill="black"/>
<path d="M155.352 167.152L150.856 181.152C150.79 181.353 150.765 181.565 150.782 181.776C150.798 181.987 150.857 182.193 150.953 182.381C151.05 182.569 151.183 182.737 151.345 182.873C151.507 183.009 151.694 183.112 151.896 183.176L174.616 190.472L179.608 174.936C180.655 171.68 182.953 168.973 185.995 167.41C189.037 165.847 192.575 165.556 195.832 166.6L171.584 158.808C168.325 157.766 164.786 158.059 161.743 159.624C158.7 161.188 156.401 163.895 155.352 167.152Z" fill="url(#paint9_linear_252_12169)"/>
<path d="M167.544 177.768L173.808 158.272C173.83 158.202 173.836 158.128 173.826 158.056C173.817 157.983 173.792 157.913 173.753 157.851C173.715 157.789 173.663 157.736 173.602 157.695C173.541 157.655 173.472 157.628 173.4 157.616L167 156.672L166.2 159.2L170.864 160.696L165.584 177.128L167.544 177.768Z" fill="#263238"/>
<path d="M164.216 176.696C164.071 177.148 164.064 177.633 164.194 178.089C164.325 178.545 164.588 178.952 164.95 179.258C165.312 179.565 165.756 179.758 166.228 179.812C166.699 179.866 167.176 179.78 167.598 179.563C168.02 179.346 168.368 179.01 168.599 178.595C168.829 178.181 168.932 177.707 168.894 177.234C168.856 176.761 168.678 176.311 168.384 175.939C168.089 175.567 167.691 175.29 167.24 175.144C166.94 175.047 166.623 175.01 166.308 175.036C165.993 175.061 165.687 175.148 165.406 175.293C165.125 175.437 164.875 175.635 164.671 175.876C164.467 176.117 164.312 176.395 164.216 176.696Z" fill="#263238"/>
<path d="M175.8 192.8L207.32 202.92C207.434 202.957 207.555 202.972 207.675 202.962C207.795 202.952 207.912 202.919 208.019 202.864C208.126 202.809 208.222 202.733 208.299 202.641C208.377 202.549 208.436 202.443 208.472 202.328C208.51 202.214 208.526 202.093 208.516 201.972C208.507 201.852 208.474 201.735 208.419 201.627C208.364 201.52 208.288 201.425 208.195 201.347C208.103 201.27 207.995 201.211 207.88 201.176L174.616 190.496C174.468 190.959 174.509 191.461 174.731 191.893C174.953 192.325 175.338 192.652 175.8 192.8Z" fill="url(#paint10_linear_252_12169)"/>
<path opacity="0.2" d="M175.8 192.8L188.68 196.936C188.795 196.974 188.916 196.988 189.037 196.978C189.158 196.969 189.275 196.936 189.383 196.881C189.491 196.826 189.586 196.75 189.665 196.658C189.743 196.566 189.803 196.459 189.84 196.344C189.913 196.113 189.892 195.862 189.781 195.646C189.67 195.431 189.479 195.267 189.248 195.192L174.616 190.496C174.468 190.959 174.509 191.461 174.731 191.893C174.953 192.325 175.338 192.652 175.8 192.8Z" fill="black"/>
<path d="M142.512 148.08L142.072 148.568L141.576 149.136C141.24 149.52 140.904 149.936 140.584 150.328C139.928 151.128 139.304 151.984 138.72 152.848C136.303 156.27 134.4 160.027 133.072 164C132.752 164.992 132.456 165.984 132.224 167C132.144 167.296 132.136 167.416 132.096 167.552C132.09 167.669 132.09 167.787 132.096 167.904C132.083 168.029 132.083 168.155 132.096 168.28C132.096 168.424 132.368 168.76 133.024 169.08C133.813 169.435 134.643 169.688 135.496 169.832C137.554 170.159 139.637 170.296 141.72 170.24C143.896 170.24 146.104 170.048 148.312 169.816C150.52 169.584 152.76 169.296 154.928 168.968L155.8 172.432C151.335 173.885 146.74 174.906 142.08 175.48C139.626 175.8 137.145 175.853 134.68 175.64C133.271 175.508 131.887 175.179 130.568 174.664C129.777 174.347 129.034 173.922 128.36 173.4C127.566 172.778 126.912 171.996 126.44 171.104C125.627 169.432 125.41 167.533 125.824 165.72C126.016 164.496 126.296 163.32 126.624 162.088C127.252 159.723 128.087 157.418 129.12 155.2C130.156 152.977 131.362 150.837 132.728 148.8C133.416 147.784 134.152 146.8 134.92 145.832C135.312 145.352 135.72 144.88 136.12 144.408L136.768 143.712C137 143.464 137.184 143.264 137.504 142.96L142.512 148.08Z" fill="#FFB573"/>
<path d="M153.184 169.704L158.784 166.736L159.032 172.752C159.032 172.752 155.032 174.408 152.744 172.584L153.184 169.704Z" fill="#FFB573"/>
<path d="M163.4 166.28L162.56 171.824L159.04 172.752L158.792 166.736L163.4 166.28Z" fill="#FFB573"/>
<path d="M139.128 136.8C135.6 137.424 130.664 147.536 130.664 147.536L139.552 155.536C139.552 155.536 146.616 147.824 146.24 143.232C145.92 139.352 143.616 136 139.128 136.8Z" fill="url(#paint11_linear_252_12169)"/>
<path opacity="0.7" d="M139.128 136.8C135.6 137.424 130.664 147.536 130.664 147.536L139.552 155.536C139.552 155.536 146.616 147.824 146.24 143.232C145.92 139.352 143.616 136 139.128 136.8Z" fill="white"/>
<path d="M115.32 316.848C115.227 316.86 115.133 316.86 115.04 316.848C114.152 316.8 113.208 315.44 112.72 314.64C112.705 314.618 112.697 314.591 112.697 314.564C112.697 314.537 112.705 314.511 112.72 314.488C112.735 314.464 112.757 314.446 112.783 314.436C112.809 314.426 112.837 314.425 112.864 314.432C113.152 314.488 115.64 315.048 115.952 315.888C115.984 315.979 115.993 316.077 115.976 316.173C115.959 316.268 115.918 316.357 115.856 316.432C115.728 316.626 115.54 316.772 115.32 316.848ZM113.136 314.816C113.848 315.912 114.552 316.568 115.056 316.6C115.171 316.602 115.284 316.575 115.385 316.52C115.486 316.465 115.571 316.385 115.632 316.288C115.667 316.253 115.69 316.209 115.7 316.16C115.71 316.112 115.706 316.062 115.688 316.016C115.496 315.504 114 315.024 113.136 314.816Z" fill="url(#paint12_linear_252_12169)"/>
<path d="M115.064 314.64C114.326 314.843 113.552 314.876 112.8 314.736C112.776 314.729 112.755 314.715 112.738 314.697C112.722 314.678 112.71 314.656 112.704 314.632C112.693 314.611 112.687 314.588 112.687 314.564C112.687 314.54 112.693 314.517 112.704 314.496C112.768 314.44 114.224 313.016 115.24 313.088C115.366 313.09 115.489 313.121 115.6 313.18C115.711 313.238 115.807 313.322 115.88 313.424C115.967 313.518 116.021 313.638 116.033 313.765C116.044 313.893 116.013 314.02 115.944 314.128C115.714 314.39 115.405 314.57 115.064 314.64ZM113.136 314.512C113.936 314.624 115.432 314.424 115.744 313.968C115.792 313.896 115.832 313.784 115.688 313.6C115.64 313.53 115.575 313.472 115.5 313.432C115.425 313.391 115.341 313.37 115.256 313.368C114.56 313.32 113.552 314.136 113.136 314.512Z" fill="url(#paint13_linear_252_12169)"/>
<path d="M151.44 326.712C150.666 326.694 149.897 326.594 149.144 326.416C149.118 326.407 149.095 326.389 149.079 326.366C149.063 326.343 149.054 326.316 149.054 326.288C149.054 326.26 149.063 326.233 149.079 326.21C149.095 326.187 149.118 326.17 149.144 326.16C149.488 325.992 152.552 324.56 153.32 325.104C153.389 325.151 153.444 325.216 153.48 325.292C153.515 325.369 153.529 325.453 153.52 325.536C153.516 325.692 153.477 325.846 153.405 325.984C153.333 326.123 153.23 326.243 153.104 326.336C152.602 326.632 152.02 326.763 151.44 326.712ZM149.624 326.232C150.528 326.4 152.208 326.624 152.904 326.104C152.993 326.034 153.066 325.946 153.119 325.845C153.171 325.744 153.202 325.633 153.208 325.52C153.215 325.485 153.211 325.448 153.197 325.416C153.182 325.383 153.158 325.355 153.128 325.336C152.696 325.04 150.888 325.672 149.6 326.232H149.624Z" fill="url(#paint14_linear_252_12169)"/>
<path d="M149.168 326.4C149.139 326.408 149.109 326.408 149.08 326.4C149.061 326.382 149.046 326.359 149.038 326.334C149.029 326.309 149.027 326.282 149.032 326.256C149.032 326.128 149.76 323.112 151.432 323.304C151.848 323.36 151.96 323.56 151.984 323.728C152.088 324.528 150.16 326.04 149.24 326.424L149.168 326.4ZM151.264 323.544C150.208 323.544 149.592 325.304 149.384 326.008C150.384 325.48 151.784 324.224 151.696 323.736C151.696 323.696 151.696 323.584 151.384 323.552L151.264 323.544Z" fill="url(#paint15_linear_252_12169)"/>
<path d="M164.8 115.24L166.216 115.032C166.216 115.032 165.376 116 164.8 115.24Z" fill="#263238"/>
<path d="M214.024 182.168L183.048 188.568C182.518 188.668 181.971 188.556 181.522 188.257C181.074 187.958 180.76 187.495 180.648 186.968L179.2 180.248L178.68 177.768L179.592 174.936C179.719 174.53 179.871 174.131 180.048 173.744C180.068 173.683 180.095 173.624 180.128 173.568C180.639 172.403 181.327 171.323 182.168 170.368L183.768 170.032L210.328 164.52C210.858 164.421 211.405 164.532 211.854 164.831C212.302 165.13 212.616 165.593 212.728 166.12L215.552 179.72C215.668 180.247 215.572 180.798 215.287 181.256C215.001 181.713 214.548 182.041 214.024 182.168Z" fill="url(#paint16_linear_252_12169)"/>
<path opacity="0.3" d="M212.488 165.4L197.544 180.6L194.344 179.304L181.896 174.256L180.144 173.544C180.655 172.379 181.343 171.299 182.184 170.344L183.784 170.008L210.344 164.496C210.751 164.415 211.173 164.457 211.555 164.619C211.937 164.78 212.262 165.052 212.488 165.4Z" fill="black"/>
<path d="M212.488 165.4L194.344 179.328L193.16 180.24L181.76 174.584L180.064 173.784C180.084 173.723 180.111 173.663 180.144 173.608C180.655 172.443 181.343 171.363 182.184 170.408L183.784 170.072L210.344 164.56C210.744 164.472 211.162 164.505 211.543 164.655C211.925 164.804 212.254 165.064 212.488 165.4Z" fill="url(#paint17_linear_252_12169)"/>
<path opacity="0.2" d="M212.488 165.4L194.344 179.328L193.16 180.24L181.76 174.584L180.064 173.784C180.084 173.723 180.111 173.663 180.144 173.608C180.655 172.443 181.343 171.363 182.184 170.408L183.784 170.072L210.344 164.56C210.744 164.472 211.162 164.505 211.543 164.655C211.925 164.804 212.254 165.064 212.488 165.4Z" fill="white"/>
<path d="M251.84 210.224L242.4 220.4C242.027 220.797 241.513 221.03 240.969 221.05C240.426 221.069 239.896 220.873 239.496 220.504L216.344 198.944C215.945 198.573 215.711 198.058 215.691 197.514C215.672 196.969 215.869 196.439 216.24 196.04L225.712 185.864C225.895 185.664 226.117 185.503 226.363 185.39C226.609 185.277 226.875 185.213 227.146 185.204C227.417 185.194 227.687 185.238 227.941 185.334C228.195 185.429 228.427 185.574 228.624 185.76L251.768 207.32C252.068 207.599 252.278 207.961 252.37 208.36C252.463 208.76 252.434 209.177 252.288 209.56C252.188 209.811 252.035 210.037 251.84 210.224Z" fill="url(#paint18_linear_252_12169)"/>
<path opacity="0.3" d="M252.256 209.6L231.2 206.168L226.312 185.368C226.685 185.196 227.101 185.139 227.507 185.203C227.912 185.267 228.29 185.45 228.592 185.728L251.736 207.288C252.051 207.573 252.27 207.948 252.363 208.362C252.456 208.775 252.418 209.208 252.256 209.6Z" fill="black"/>
<path d="M252.256 209.6L231.752 203.488L226.312 185.44C226.685 185.268 227.101 185.211 227.507 185.275C227.912 185.339 228.29 185.522 228.592 185.8L251.736 207.36C252.036 207.639 252.246 208.001 252.338 208.401C252.431 208.8 252.402 209.217 252.256 209.6Z" fill="url(#paint19_linear_252_12169)"/>
<path opacity="0.2" d="M252.256 209.6L231.752 203.488L226.312 185.44C226.685 185.268 227.101 185.211 227.507 185.275C227.912 185.339 228.29 185.522 228.592 185.8L251.736 207.36C252.036 207.639 252.246 208.001 252.338 208.401C252.431 208.8 252.402 209.217 252.256 209.6Z" fill="white"/>
<path d="M260.072 226.984L270.472 239.128C270.671 239.36 270.82 239.631 270.911 239.923C271.001 240.215 271.031 240.522 270.999 240.826C270.967 241.13 270.873 241.424 270.723 241.691C270.574 241.957 270.371 242.19 270.128 242.376L247.536 259.976C247.156 260.205 246.705 260.284 246.27 260.198C245.836 260.112 245.448 259.868 245.184 259.512L237.048 250.232C236.895 250.054 236.768 249.854 236.672 249.64C236.521 249.346 236.458 249.014 236.491 248.685C236.523 248.356 236.65 248.043 236.856 247.784L256.856 226.896C257.168 226.558 257.581 226.329 258.033 226.242C258.485 226.156 258.953 226.217 259.368 226.416C259.637 226.559 259.875 226.752 260.072 226.984Z" fill="url(#paint20_linear_252_12169)"/>
<path opacity="0.3" d="M259.368 226.44L254.4 248.536L236.704 249.664C236.553 249.37 236.49 249.038 236.523 248.709C236.555 248.38 236.682 248.067 236.888 247.808L256.888 226.92C257.198 226.589 257.605 226.364 258.05 226.278C258.496 226.192 258.957 226.248 259.368 226.44Z" fill="black"/>
<path d="M259.368 226.44L251.04 249.888L236.688 249.664C236.537 249.37 236.474 249.038 236.507 248.709C236.539 248.38 236.666 248.067 236.872 247.808L256.872 226.92C257.183 226.585 257.593 226.358 258.042 226.272C258.49 226.186 258.955 226.245 259.368 226.44Z" fill="url(#paint21_linear_252_12169)"/>
<path opacity="0.2" d="M259.368 226.44L251.04 249.888L236.688 249.664C236.537 249.37 236.474 249.038 236.507 248.709C236.539 248.38 236.666 248.067 236.872 247.808L256.872 226.92C257.183 226.585 257.593 226.358 258.042 226.272C258.49 226.186 258.955 226.245 259.368 226.44Z" fill="white"/>
<defs>
<linearGradient id="paint0_linear_252_12169" x1="249.46" y1="260.248" x2="249.46" y2="334.168" gradientUnits="userSpaceOnUse">
<stop stop-color="#56B948"/>
<stop offset="1" stop-color="#195950"/>
</linearGradient>
<linearGradient id="paint1_linear_252_12169" x1="249.444" y1="260.272" x2="249.444" y2="272.072" gradientUnits="userSpaceOnUse">
<stop stop-color="#56B948"/>
<stop offset="1" stop-color="#195950"/>
</linearGradient>
<linearGradient id="paint2_linear_252_12169" x1="249.424" y1="256.56" x2="249.424" y2="263.984" gradientUnits="userSpaceOnUse">
<stop stop-color="#56B948"/>
<stop offset="1" stop-color="#195950"/>
</linearGradient>
<linearGradient id="paint3_linear_252_12169" x1="177.747" y1="140.268" x2="177.747" y2="159.336" gradientUnits="userSpaceOnUse">
<stop stop-color="#56B948"/>
<stop offset="1" stop-color="#195950"/>
</linearGradient>
<linearGradient id="paint4_linear_252_12169" x1="158.044" y1="136.2" x2="158.044" y2="182.648" gradientUnits="userSpaceOnUse">
<stop stop-color="#56B948"/>
<stop offset="1" stop-color="#195950"/>
</linearGradient>
<linearGradient id="paint5_linear_252_12169" x1="146.944" y1="313" x2="146.944" y2="318.04" gradientUnits="userSpaceOnUse">
<stop stop-color="#56B948"/>
<stop offset="1" stop-color="#195950"/>
</linearGradient>
<linearGradient id="paint6_linear_252_12169" x1="113.944" y1="298.608" x2="113.944" y2="309.128" gradientUnits="userSpaceOnUse">
<stop stop-color="#56B948"/>
<stop offset="1" stop-color="#195950"/>
</linearGradient>
<linearGradient id="paint7_linear_252_12169" x1="154.485" y1="178.258" x2="154.485" y2="183.952" gradientUnits="userSpaceOnUse">
<stop stop-color="#56B948"/>
<stop offset="1" stop-color="#195950"/>
</linearGradient>
<linearGradient id="paint8_linear_252_12169" x1="189.709" y1="165.983" x2="189.709" y2="198.4" gradientUnits="userSpaceOnUse">
<stop stop-color="#56B948"/>
<stop offset="1" stop-color="#195950"/>
</linearGradient>
<linearGradient id="paint9_linear_252_12169" x1="173.304" y1="158.194" x2="173.304" y2="190.472" gradientUnits="userSpaceOnUse">
<stop stop-color="#56B948"/>
<stop offset="1" stop-color="#195950"/>
</linearGradient>
<linearGradient id="paint10_linear_252_12169" x1="191.524" y1="190.496" x2="191.524" y2="202.965" gradientUnits="userSpaceOnUse">
<stop stop-color="#56B948"/>
<stop offset="1" stop-color="#195950"/>
</linearGradient>
<linearGradient id="paint11_linear_252_12169" x1="138.459" y1="136.681" x2="138.459" y2="155.536" gradientUnits="userSpaceOnUse">
<stop stop-color="#56B948"/>
<stop offset="1" stop-color="#195950"/>
</linearGradient>
<linearGradient id="paint12_linear_252_12169" x1="114.341" y1="314.427" x2="114.341" y2="316.857" gradientUnits="userSpaceOnUse">
<stop stop-color="#56B948"/>
<stop offset="1" stop-color="#195950"/>
</linearGradient>
<linearGradient id="paint13_linear_252_12169" x1="114.361" y1="313.085" x2="114.361" y2="314.821" gradientUnits="userSpaceOnUse">
<stop stop-color="#56B948"/>
<stop offset="1" stop-color="#195950"/>
</linearGradient>
<linearGradient id="paint14_linear_252_12169" x1="151.288" y1="324.981" x2="151.288" y2="326.723" gradientUnits="userSpaceOnUse">
<stop stop-color="#56B948"/>
<stop offset="1" stop-color="#195950"/>
</linearGradient>
<linearGradient id="paint15_linear_252_12169" x1="150.509" y1="323.295" x2="150.509" y2="326.424" gradientUnits="userSpaceOnUse">
<stop stop-color="#56B948"/>
<stop offset="1" stop-color="#195950"/>
</linearGradient>
<linearGradient id="paint16_linear_252_12169" x1="197.14" y1="164.485" x2="197.14" y2="188.604" gradientUnits="userSpaceOnUse">
<stop stop-color="#56B948"/>
<stop offset="1" stop-color="#195950"/>
</linearGradient>
<linearGradient id="paint17_linear_252_12169" x1="196.276" y1="164.512" x2="196.276" y2="180.24" gradientUnits="userSpaceOnUse">
<stop stop-color="#56B948"/>
<stop offset="1" stop-color="#195950"/>
</linearGradient>
<linearGradient id="paint18_linear_252_12169" x1="234.057" y1="185.202" x2="234.057" y2="221.051" gradientUnits="userSpaceOnUse">
<stop stop-color="#56B948"/>
<stop offset="1" stop-color="#195950"/>
</linearGradient>
<linearGradient id="paint19_linear_252_12169" x1="239.352" y1="185.249" x2="239.352" y2="209.6" gradientUnits="userSpaceOnUse">
<stop stop-color="#56B948"/>
<stop offset="1" stop-color="#195950"/>
</linearGradient>
<linearGradient id="paint20_linear_252_12169" x1="253.747" y1="226.204" x2="253.747" y2="260.232" gradientUnits="userSpaceOnUse">
<stop stop-color="#56B948"/>
<stop offset="1" stop-color="#195950"/>
</linearGradient>
<linearGradient id="paint21_linear_252_12169" x1="247.933" y1="226.233" x2="247.933" y2="249.888" gradientUnits="userSpaceOnUse">
<stop stop-color="#56B948"/>
<stop offset="1" stop-color="#195950"/>
</linearGradient>
</defs>
</svg>
