<svg width="375" height="375" viewBox="0 0 375 375" fill="none" xmlns="http://www.w3.org/2000/svg">
<path d="M178.8 256.148H33.9827C32.8475 256.146 31.7594 255.694 30.9567 254.891C30.154 254.088 29.7022 253 29.7002 251.865V48.2925C29.712 47.1639 30.1682 46.0854 30.9698 45.2907C31.7715 44.4961 32.854 44.0495 33.9827 44.0475H178.8C179.935 44.0495 181.022 44.5016 181.824 45.3045C182.625 46.1074 183.075 47.1956 183.075 48.33V251.865C183.075 253 182.625 254.088 181.824 254.891C181.022 255.693 179.935 256.146 178.8 256.148ZM33.9827 44.1975C32.8972 44.1995 31.8568 44.6316 31.0893 45.3991C30.3218 46.1667 29.8897 47.2071 29.8877 48.2925V251.865C29.8897 252.951 30.3218 253.991 31.0893 254.758C31.8568 255.526 32.8972 255.958 33.9827 255.96H178.8C179.885 255.958 180.925 255.526 181.691 254.758C182.457 253.99 182.888 252.95 182.888 251.865V48.2925C182.888 47.2078 182.457 46.1673 181.691 45.3996C180.925 44.6318 179.885 44.1995 178.8 44.1975H33.9827Z" fill="#E6E6E6"/>
<path d="M341.025 256.148H196.2C195.066 256.146 193.978 255.693 193.177 254.891C192.375 254.088 191.925 253 191.925 251.865V48.2925C191.935 47.1646 192.39 46.086 193.19 45.2912C193.991 44.4964 195.072 44.0495 196.2 44.0475H341.025C342.153 44.0495 343.235 44.4964 344.035 45.2912C344.836 46.086 345.29 47.1646 345.3 48.2925V251.865C345.3 253 344.85 254.088 344.049 254.891C343.247 255.693 342.16 256.146 341.025 256.148ZM196.2 44.1975C195.116 44.1995 194.076 44.6318 193.31 45.3996C192.543 46.1673 192.113 47.2078 192.113 48.2925V251.865C192.113 252.95 192.543 253.99 193.31 254.758C194.076 255.526 195.116 255.958 196.2 255.96H341.025C342.111 255.958 343.153 255.526 343.921 254.759C344.69 253.992 345.124 252.951 345.128 251.865V48.2925C345.124 47.2064 344.69 46.166 343.921 45.3987C343.153 44.6314 342.111 44.1995 341.025 44.1975H196.2Z" fill="#E6E6E6"/>
<path d="M155.813 148.095L154.785 236.25C151.155 265.583 99.1579 288.87 99.1579 288.87C99.1579 288.87 47.1529 265.605 43.5004 236.25L42.4429 148.095L98.0179 129.803L155.813 148.095Z" fill="#F5F5F5"/>
<path d="M148.56 153.675L147.667 232.83C144.503 258.413 99.15 278.723 99.15 278.723C99.15 278.723 53.7975 258.413 50.64 232.83L49.6875 153.675L98.16 137.723L148.56 153.675Z" fill="#E0E0E0"/>
<path d="M145.38 158.67L144.54 231.338C141.54 255.338 99.0527 274.358 99.0527 274.358C99.0527 274.358 56.5352 255.315 53.5727 231.338L52.6802 158.67L98.1227 143.715L145.38 158.67Z" stroke="white" stroke-width="3" stroke-linecap="round" stroke-linejoin="round"/>
<path d="M330.24 118.343H230.205V293.873H330.24V118.343Z" fill="#F5F5F5"/>
<path d="M322.988 125.243H237.6V293.873H322.988V125.243Z" fill="#E0E0E0"/>
<path d="M240 294.622C239.85 294.623 239.702 294.593 239.565 294.533C239.43 294.479 239.307 294.397 239.205 294.293C239.096 294.19 239.011 294.065 238.957 293.925C238.903 293.789 238.876 293.644 238.875 293.497C238.875 293.331 238.912 293.167 238.983 293.017C239.054 292.867 239.158 292.735 239.286 292.629C239.414 292.524 239.564 292.448 239.725 292.408C239.887 292.367 240.055 292.363 240.218 292.395L240.428 292.455L240.622 292.56C240.683 292.603 240.741 292.651 240.795 292.703C240.848 292.753 240.894 292.811 240.93 292.875C240.974 292.935 241.009 293.001 241.035 293.07C241.065 293.137 241.088 293.208 241.103 293.28C241.11 293.352 241.11 293.425 241.103 293.497C241.103 293.645 241.072 293.79 241.013 293.925C240.959 294.063 240.877 294.188 240.772 294.293C240.566 294.497 240.29 294.615 240 294.622Z" fill="white"/>
<path d="M238.86 265.868C238.861 265.719 238.892 265.572 238.95 265.436C239.007 265.299 239.092 265.175 239.198 265.072C239.304 264.968 239.429 264.886 239.567 264.831C239.705 264.775 239.852 264.748 240 264.75C240.299 264.75 240.585 264.869 240.796 265.08C241.007 265.291 241.125 265.577 241.125 265.875C241.125 266.173 241.007 266.46 240.796 266.671C240.585 266.882 240.299 267 240 267C239.851 267.002 239.702 266.974 239.564 266.918C239.425 266.862 239.299 266.779 239.192 266.673C239.086 266.568 239.002 266.442 238.945 266.304C238.888 266.166 238.859 266.017 238.86 265.868ZM238.86 238.245C238.86 237.947 238.979 237.661 239.19 237.45C239.401 237.239 239.687 237.12 239.985 237.12C240.284 237.12 240.57 237.239 240.781 237.45C240.992 237.661 241.11 237.947 241.11 238.245C241.11 238.543 240.992 238.83 240.781 239.041C240.57 239.252 240.284 239.37 239.985 239.37C239.687 239.37 239.401 239.252 239.19 239.041C238.979 238.83 238.86 238.543 238.86 238.245ZM238.86 210.615C238.86 210.317 238.979 210.031 239.19 209.82C239.401 209.609 239.687 209.49 239.985 209.49C240.284 209.49 240.57 209.609 240.781 209.82C240.992 210.031 241.11 210.317 241.11 210.615C241.11 210.913 240.992 211.2 240.781 211.411C240.57 211.622 240.284 211.74 239.985 211.74C239.838 211.74 239.691 211.711 239.555 211.654C239.418 211.598 239.294 211.515 239.19 211.411C239.085 211.306 239.003 211.182 238.946 211.046C238.889 210.909 238.86 210.763 238.86 210.615ZM238.86 182.985C238.86 182.687 238.979 182.401 239.19 182.19C239.401 181.979 239.687 181.86 239.985 181.86C240.284 181.86 240.57 181.979 240.781 182.19C240.992 182.401 241.11 182.687 241.11 182.985C241.11 183.283 240.992 183.57 240.781 183.781C240.57 183.992 240.284 184.11 239.985 184.11C239.69 184.11 239.406 183.994 239.195 183.786C238.985 183.578 238.864 183.296 238.86 183V182.985ZM238.86 155.363C238.86 155.064 238.979 154.778 239.19 154.567C239.401 154.356 239.687 154.238 239.985 154.238C240.284 154.238 240.57 154.356 240.781 154.567C240.992 154.778 241.11 155.064 241.11 155.363C241.11 155.661 240.992 155.947 240.781 156.158C240.57 156.369 240.284 156.488 239.985 156.488C239.838 156.488 239.691 156.458 239.555 156.402C239.418 156.345 239.294 156.263 239.19 156.158C239.085 156.054 239.003 155.93 238.946 155.793C238.889 155.657 238.86 155.51 238.86 155.363Z" fill="white"/>
<path d="M240 128.858C239.853 128.858 239.706 128.829 239.57 128.773C239.433 128.716 239.309 128.633 239.205 128.528C239.15 128.477 239.102 128.419 239.063 128.355C239.023 128.295 238.988 128.232 238.958 128.168C238.927 128.098 238.907 128.025 238.898 127.95C238.89 127.878 238.89 127.805 238.898 127.733C238.9 127.435 239.018 127.149 239.228 126.938C239.278 126.884 239.333 126.837 239.393 126.795C239.454 126.755 239.519 126.722 239.588 126.698C239.656 126.668 239.726 126.646 239.798 126.63C239.944 126.6 240.094 126.6 240.24 126.63C240.312 126.646 240.383 126.668 240.45 126.698C240.519 126.722 240.584 126.755 240.645 126.795C240.706 126.838 240.764 126.886 240.818 126.938C241.028 127.149 241.146 127.435 241.148 127.733C241.156 127.805 241.156 127.878 241.148 127.95C241.132 128.025 241.11 128.097 241.08 128.168C241.053 128.234 241.018 128.297 240.975 128.355C240.939 128.419 240.894 128.477 240.84 128.528C240.73 128.637 240.599 128.722 240.454 128.779C240.31 128.836 240.156 128.863 240 128.858Z" fill="white"/>
<path d="M292.41 127.733C292.41 127.434 292.529 127.148 292.74 126.937C292.951 126.726 293.237 126.608 293.535 126.608C293.834 126.608 294.12 126.726 294.331 126.937C294.542 127.148 294.66 127.434 294.66 127.733C294.66 128.031 294.542 128.317 294.331 128.528C294.12 128.739 293.834 128.858 293.535 128.858C293.237 128.858 292.951 128.739 292.74 128.528C292.529 128.317 292.41 128.031 292.41 127.733ZM265.635 127.733C265.635 127.434 265.754 127.148 265.965 126.937C266.176 126.726 266.462 126.608 266.76 126.608C267.059 126.608 267.345 126.726 267.556 126.937C267.767 127.148 267.885 127.434 267.885 127.733C267.885 128.031 267.767 128.317 267.556 128.528C267.345 128.739 267.059 128.858 266.76 128.858C266.462 128.858 266.176 128.739 265.965 128.528C265.754 128.317 265.635 128.031 265.635 127.733Z" fill="white"/>
<path d="M320.31 128.858C320.238 128.865 320.165 128.865 320.093 128.858L319.883 128.798L319.688 128.693C319.627 128.649 319.569 128.602 319.515 128.55C319.304 128.339 319.185 128.053 319.185 127.755C319.187 127.457 319.305 127.172 319.515 126.96C319.567 126.909 319.625 126.863 319.688 126.825C319.747 126.78 319.812 126.745 319.883 126.72C319.95 126.69 320.02 126.667 320.093 126.653C320.239 126.623 320.389 126.623 320.535 126.653L320.745 126.72C320.813 126.745 320.876 126.78 320.933 126.825C320.996 126.861 321.054 126.907 321.105 126.96C321.315 127.172 321.433 127.457 321.435 127.755C321.435 128.053 321.316 128.339 321.105 128.55C321.053 128.603 320.995 128.651 320.933 128.693C320.873 128.732 320.81 128.767 320.745 128.798L320.535 128.858C320.46 128.865 320.385 128.865 320.31 128.858Z" fill="white"/>
<path d="M319.185 265.868C319.185 265.569 319.304 265.283 319.515 265.072C319.726 264.861 320.012 264.743 320.31 264.743C320.608 264.743 320.895 264.861 321.106 265.072C321.317 265.283 321.435 265.569 321.435 265.868C321.435 266.166 321.317 266.452 321.106 266.663C320.895 266.874 320.608 266.993 320.31 266.993C320.012 266.993 319.726 266.874 319.515 266.663C319.304 266.452 319.185 266.166 319.185 265.868ZM319.185 238.245C319.185 237.947 319.304 237.661 319.515 237.45C319.726 237.239 320.012 237.12 320.31 237.12C320.608 237.12 320.895 237.239 321.106 237.45C321.317 237.661 321.435 237.947 321.435 238.245C321.435 238.543 321.317 238.83 321.106 239.041C320.895 239.252 320.608 239.37 320.31 239.37C320.012 239.37 319.726 239.252 319.515 239.041C319.304 238.83 319.185 238.543 319.185 238.245ZM319.185 210.615C319.185 210.317 319.304 210.031 319.515 209.82C319.726 209.609 320.012 209.49 320.31 209.49C320.608 209.49 320.895 209.609 321.106 209.82C321.317 210.031 321.435 210.317 321.435 210.615C321.435 210.913 321.317 211.2 321.106 211.411C320.895 211.622 320.608 211.74 320.31 211.74C320.162 211.74 320.016 211.711 319.88 211.654C319.743 211.598 319.619 211.515 319.515 211.411C319.41 211.306 319.327 211.182 319.271 211.046C319.214 210.909 319.185 210.763 319.185 210.615ZM319.185 182.985C319.185 182.687 319.304 182.401 319.515 182.19C319.726 181.979 320.012 181.86 320.31 181.86C320.608 181.86 320.895 181.979 321.106 182.19C321.317 182.401 321.435 182.687 321.435 182.985C321.435 183.283 321.317 183.57 321.106 183.781C320.895 183.992 320.608 184.11 320.31 184.11C320.014 184.11 319.73 183.994 319.52 183.786C319.309 183.578 319.189 183.296 319.185 183V182.985ZM319.185 155.363C319.185 155.064 319.304 154.778 319.515 154.567C319.726 154.356 320.012 154.238 320.31 154.238C320.608 154.238 320.895 154.356 321.106 154.567C321.317 154.778 321.435 155.064 321.435 155.363C321.435 155.661 321.317 155.947 321.106 156.158C320.895 156.369 320.608 156.488 320.31 156.488C320.162 156.488 320.016 156.458 319.88 156.402C319.743 156.345 319.619 156.263 319.515 156.158C319.41 156.054 319.327 155.93 319.271 155.793C319.214 155.657 319.185 155.51 319.185 155.363Z" fill="white"/>
<path d="M320.31 294.622C320.088 294.622 319.87 294.556 319.686 294.433C319.501 294.309 319.357 294.133 319.272 293.928C319.187 293.722 319.164 293.496 319.208 293.278C319.251 293.06 319.358 292.86 319.515 292.702C319.569 292.651 319.627 292.603 319.688 292.56L319.883 292.455L320.093 292.395C320.239 292.365 320.389 292.365 320.535 292.395L320.745 292.455C320.81 292.485 320.873 292.521 320.933 292.56C320.995 292.601 321.053 292.649 321.105 292.702C321.316 292.913 321.435 293.199 321.435 293.497C321.437 293.645 321.408 293.792 321.351 293.929C321.295 294.065 321.211 294.189 321.105 294.293C320.894 294.504 320.608 294.622 320.31 294.622Z" fill="white"/>
<path d="M71.2503 294.157H40.3428V294.345H71.2503V294.157Z" fill="#E0E0E0"/>
<path d="M134.25 292.657H103.253V292.845H134.25V292.657Z" fill="#E0E0E0"/>
<path d="M174.585 292.657H167.085V292.845H174.585V292.657Z" fill="#E0E0E0"/>
<path d="M99.6226 299.062H64.9351V299.25H99.6226V299.062Z" fill="#E0E0E0"/>
<path d="M219.6 294.06H203.4V294.248H219.6V294.06Z" fill="#E0E0E0"/>
<path d="M247.223 294.06H226.275V294.248H247.223V294.06Z" fill="#E0E0E0"/>
<path d="M348.248 297.233H301.418V297.42H348.248V297.233Z" fill="#E0E0E0"/>
<path d="M175.058 65.7375H140.505L142.395 44.205H176.94L175.058 65.7375Z" fill="#EBEBEB"/>
<path d="M175.755 41.28L174.81 52.5225L173.865 66.0375H140.64L142.53 41.28H175.755Z" fill="#FAFAFA"/>
<path d="M172.583 44.205L174.465 65.7375H139.92L138.03 44.205H140.97L141.99 42.585H151.298L152.633 44.205H172.583Z" fill="#E0E0E0"/>
<path d="M228.608 70.545H191.843V107.31H228.608V70.545Z" fill="#EBEBEB"/>
<path d="M229.545 70.545H228.608V107.31H229.545V70.545Z" fill="#E0E0E0"/>
<path d="M225.203 73.95H195.233V103.92H225.203V73.95Z" fill="#F5F5F5"/>
<path d="M195.518 73.95H195.24V103.92H195.518V73.95Z" fill="#E0E0E0"/>
<path d="M210.503 93.2625C213.729 93.2625 216.345 89.9315 216.345 85.8225C216.345 81.7135 213.729 78.3825 210.503 78.3825C207.276 78.3825 204.66 81.7135 204.66 85.8225C204.66 89.9315 207.276 93.2625 210.503 93.2625Z" fill="#E0E0E0"/>
<path d="M207.45 97.0275H213.608V90.87H207.45V97.0275Z" fill="#E0E0E0"/>
<path d="M221.603 103.92H199.043V101.82C199.043 99.9025 199.805 98.0636 201.16 96.7077C202.516 95.3518 204.355 94.59 206.273 94.59H214.403C216.32 94.59 218.159 95.3518 219.515 96.7077C220.871 98.0636 221.633 99.9025 221.633 101.82V103.92H221.603Z" fill="#E0E0E0"/>
<path d="M198.48 91.41C198.48 92.6325 200.73 93.66 200.73 93.66C200.73 93.66 202.98 92.6625 202.98 91.41C202.98 90.825 202.17 90.495 201.638 90.66C201.434 90.7311 201.246 90.842 201.085 90.9862C200.924 91.1304 200.793 91.305 200.7 91.5C200.413 91.1132 200.034 90.8039 199.598 90.6C199.47 90.5552 199.333 90.542 199.198 90.5616C199.064 90.5812 198.937 90.6331 198.827 90.7127C198.717 90.7923 198.628 90.8973 198.568 91.0187C198.507 91.1402 198.477 91.2744 198.48 91.41Z" fill="#E0E0E0"/>
<path d="M218.445 85.9426C218.445 87.5551 221.363 88.8601 221.363 88.8601C221.363 88.8601 224.28 87.5551 224.28 85.9426C224.28 85.1926 223.2 84.7501 222.518 84.9451C222.003 85.1507 221.589 85.5489 221.363 86.0551C220.982 85.5497 220.486 85.1433 219.915 84.8701C219.746 84.8102 219.565 84.7925 219.388 84.8184C219.211 84.8443 219.042 84.913 218.898 85.0187C218.753 85.1243 218.636 85.2637 218.557 85.4246C218.478 85.5856 218.44 85.7634 218.445 85.9426Z" fill="#E0E0E0"/>
<path d="M154.283 269.49C154.628 271.657 156.195 273.525 156.315 275.715C156.413 277.432 155.61 279.045 155.213 280.717C154.815 282.39 155.01 284.467 156.473 285.352C157.005 285.623 157.599 285.747 158.195 285.711C158.791 285.675 159.366 285.482 159.863 285.15C160.842 284.472 161.651 283.576 162.225 282.532C164.526 278.814 165.782 274.544 165.863 270.172C165.863 268.335 165.675 266.385 164.595 264.922C161.25 260.25 153.428 264.09 154.283 269.49Z" fill="#F5F5F5"/>
<path d="M151.5 263.753C151.823 264.105 152.243 264.353 152.708 264.465C152.989 264.556 153.288 264.575 153.578 264.518C153.868 264.462 154.139 264.333 154.365 264.143C154.537 263.921 154.66 263.665 154.725 263.392C154.79 263.119 154.795 262.835 154.74 262.56C154.694 261.869 154.458 261.205 154.058 260.64C153.857 260.362 153.59 260.137 153.281 259.987C152.972 259.836 152.631 259.764 152.288 259.778C151.945 259.806 151.623 259.951 151.374 260.188C151.126 260.426 150.966 260.742 150.923 261.083C150.839 262.011 151.041 262.942 151.5 263.753Z" fill="#F5F5F5"/>
<path d="M157.733 259.245C157.579 259.008 157.36 258.821 157.101 258.707C156.842 258.594 156.556 258.559 156.278 258.608C156.002 258.669 155.752 258.812 155.559 259.018C155.367 259.224 155.24 259.484 155.198 259.763C155.185 259.945 155.185 260.128 155.198 260.31C155.2 260.605 155.233 260.899 155.295 261.188C155.358 261.466 155.489 261.723 155.678 261.938C155.935 262.188 156.261 262.355 156.615 262.418C156.834 262.47 157.062 262.469 157.28 262.414C157.498 262.359 157.7 262.252 157.868 262.103C158.017 261.921 158.128 261.711 158.195 261.486C158.262 261.26 158.283 261.024 158.258 260.79C158.24 260.234 158.058 259.696 157.733 259.245Z" fill="#F5F5F5"/>
<path d="M161.205 259.058C161.082 258.831 160.882 258.657 160.641 258.566C160.4 258.475 160.134 258.474 159.893 258.563C159.657 258.661 159.449 258.815 159.286 259.013C159.124 259.21 159.013 259.445 158.963 259.695C158.963 259.86 158.918 260.025 158.91 260.19C158.906 260.463 158.936 260.735 159 261C159.054 261.261 159.191 261.498 159.39 261.675C159.603 261.853 159.864 261.963 160.14 261.99C160.32 262.012 160.502 261.995 160.674 261.939C160.847 261.883 161.005 261.791 161.138 261.668C161.429 261.336 161.589 260.909 161.588 260.468C161.62 259.968 161.486 259.472 161.205 259.058Z" fill="#F5F5F5"/>
<path d="M164.303 259.778C163.935 259.23 163.553 259.193 163.133 259.425C162.759 259.698 162.494 260.094 162.383 260.543C162.34 260.687 162.31 260.835 162.293 260.985C162.252 261.233 162.252 261.487 162.293 261.735C162.342 261.975 162.481 262.188 162.683 262.328C162.868 262.444 163.087 262.496 163.305 262.478C163.589 262.452 163.855 262.327 164.055 262.125C164.331 261.829 164.507 261.454 164.558 261.053C164.634 260.611 164.543 260.156 164.303 259.778Z" fill="#F5F5F5"/>
<path d="M164.91 262.815C164.869 262.993 164.869 263.177 164.91 263.355C164.925 263.446 164.963 263.532 165.019 263.605C165.075 263.679 165.149 263.737 165.233 263.775C165.386 263.81 165.546 263.799 165.693 263.743C165.84 263.687 165.967 263.588 166.058 263.46C166.279 263.233 166.442 262.955 166.53 262.65C166.574 262.498 166.587 262.338 166.567 262.181C166.548 262.024 166.497 261.872 166.418 261.735C165.75 260.648 165 262.275 164.91 262.815Z" fill="#F5F5F5"/>
<path d="M165.518 319.583C166.02 317.813 166.313 315.87 165.645 314.153C163.583 308.805 155.063 310.508 154.5 315.953L165.518 319.583Z" fill="#F5F5F5"/>
<path d="M153.315 309.698C153.538 310.122 153.883 310.469 154.305 310.695C154.553 310.855 154.837 310.949 155.131 310.969C155.425 310.989 155.719 310.933 155.985 310.808C156.204 310.635 156.385 310.419 156.514 310.172C156.643 309.925 156.719 309.653 156.735 309.375C156.868 308.698 156.811 307.997 156.57 307.35C156.446 307.027 156.244 306.74 155.983 306.514C155.721 306.288 155.408 306.129 155.07 306.053C154.733 305.993 154.385 306.05 154.085 306.215C153.785 306.38 153.55 306.643 153.42 306.96C153.11 307.841 153.073 308.795 153.315 309.698Z" fill="#F5F5F5"/>
<path d="M160.5 306.93C160.411 306.662 160.246 306.426 160.025 306.25C159.804 306.074 159.537 305.966 159.255 305.94C158.973 305.931 158.695 306.005 158.456 306.155C158.217 306.305 158.028 306.522 157.913 306.78C157.847 306.951 157.792 307.127 157.748 307.305C157.672 307.589 157.627 307.881 157.613 308.175C157.594 308.468 157.653 308.76 157.785 309.022C157.963 309.322 158.224 309.564 158.535 309.72C158.733 309.825 158.953 309.88 159.177 309.88C159.4 309.88 159.62 309.825 159.818 309.72C160.014 309.587 160.182 309.415 160.311 309.215C160.44 309.015 160.527 308.792 160.568 308.558C160.702 308.02 160.679 307.455 160.5 306.93Z" fill="#F5F5F5"/>
<path d="M163.875 307.642C163.814 307.396 163.667 307.178 163.462 307.029C163.256 306.879 163.004 306.807 162.75 306.825C162.496 306.861 162.255 306.959 162.047 307.109C161.84 307.259 161.672 307.458 161.558 307.687C161.49 307.837 161.43 307.99 161.378 308.145C161.293 308.4 161.243 308.665 161.228 308.932C161.213 309.197 161.281 309.459 161.423 309.682C161.589 309.917 161.825 310.093 162.098 310.185C162.266 310.253 162.448 310.283 162.629 310.273C162.811 310.262 162.988 310.212 163.148 310.125C163.516 309.883 163.783 309.515 163.898 309.09C164.05 308.618 164.042 308.109 163.875 307.642Z" fill="#F5F5F5"/>
<path d="M166.68 309.135C166.47 308.505 166.073 308.385 165.645 308.49C165.208 308.653 164.842 308.963 164.61 309.368C164.535 309.499 164.468 309.634 164.408 309.773C164.316 309.997 164.26 310.235 164.243 310.478C164.229 310.72 164.306 310.958 164.46 311.145C164.609 311.307 164.807 311.415 165.023 311.453C165.304 311.507 165.595 311.456 165.84 311.31C166.179 311.093 166.441 310.776 166.59 310.403C166.773 310.005 166.805 309.554 166.68 309.135Z" fill="#F5F5F5"/>
<path d="M166.5 312.225C166.409 312.383 166.355 312.56 166.343 312.743C166.335 312.834 166.35 312.926 166.385 313.011C166.42 313.096 166.475 313.171 166.545 313.23C166.684 313.303 166.841 313.334 166.998 313.318C167.154 313.302 167.302 313.24 167.423 313.14C167.694 312.976 167.923 312.75 168.09 312.48C168.171 312.344 168.224 312.193 168.246 312.035C168.268 311.878 168.258 311.718 168.218 311.565C167.828 310.343 166.74 311.738 166.5 312.225Z" fill="#F5F5F5"/>
<path d="M135.953 287.745C136.23 289.927 135.203 292.155 135.728 294.292C136.11 295.965 137.333 297.292 138.173 298.792C139.013 300.292 139.41 302.332 138.24 303.592C137.806 304.001 137.27 304.286 136.688 304.418C136.107 304.55 135.501 304.524 134.933 304.342C133.804 303.956 132.778 303.317 131.933 302.475C128.693 299.539 126.305 295.785 125.018 291.607C124.478 289.845 124.148 287.917 124.778 286.185C126.75 280.792 135.285 282.322 135.953 287.745Z" fill="#F5F5F5"/>
<path d="M137.01 281.475C136.799 281.901 136.465 282.254 136.05 282.488C135.807 282.655 135.524 282.757 135.23 282.783C134.935 282.809 134.639 282.759 134.37 282.638C134.142 282.473 133.952 282.262 133.813 282.017C133.674 281.772 133.591 281.5 133.568 281.22C133.423 280.544 133.464 279.842 133.688 279.188C133.809 278.861 134.009 278.569 134.271 278.338C134.533 278.108 134.848 277.946 135.188 277.868C135.524 277.799 135.873 277.849 136.178 278.007C136.482 278.165 136.723 278.423 136.86 278.738C137.07 279.435 137.333 280.793 137.01 281.475Z" fill="#F5F5F5"/>
<path d="M129.803 278.858C129.885 278.587 130.045 278.347 130.262 278.165C130.479 277.984 130.744 277.87 131.025 277.838C131.307 277.823 131.587 277.893 131.829 278.039C132.071 278.185 132.263 278.399 132.383 278.655C132.455 278.823 132.515 278.996 132.563 279.173C132.644 279.454 132.694 279.743 132.713 280.035C132.74 280.329 132.685 280.625 132.555 280.89C132.388 281.211 132.127 281.473 131.805 281.64C131.612 281.753 131.394 281.817 131.17 281.826C130.947 281.836 130.724 281.79 130.523 281.693C130.327 281.56 130.16 281.389 130.031 281.191C129.902 280.993 129.814 280.77 129.773 280.538C129.61 279.988 129.62 279.401 129.803 278.858Z" fill="#F5F5F5"/>
<path d="M126.413 279.637C126.468 279.386 126.612 279.162 126.819 279.008C127.025 278.854 127.281 278.779 127.538 278.797C127.791 278.828 128.033 278.92 128.244 279.065C128.454 279.21 128.626 279.404 128.745 279.63C128.817 279.778 128.88 279.931 128.933 280.087C129.024 280.341 129.082 280.606 129.105 280.875C129.12 281.138 129.055 281.4 128.918 281.625C128.758 281.863 128.527 282.044 128.258 282.142C128.091 282.215 127.91 282.249 127.728 282.242C127.547 282.236 127.369 282.189 127.208 282.105C126.841 281.869 126.574 281.505 126.458 281.085C126.284 280.621 126.268 280.112 126.413 279.637Z" fill="#F5F5F5"/>
<path d="M123.638 281.19C123.84 280.56 124.23 280.44 124.665 280.523C125.105 280.678 125.477 280.984 125.715 281.385C125.794 281.513 125.864 281.646 125.925 281.783C126.026 282.003 126.087 282.239 126.105 282.48C126.129 282.723 126.056 282.965 125.903 283.155C125.757 283.318 125.562 283.429 125.348 283.47C125.067 283.532 124.774 283.489 124.523 283.35C124.174 283.141 123.899 282.829 123.735 282.458C123.55 282.061 123.516 281.61 123.638 281.19Z" fill="#F5F5F5"/>
<path d="M123.893 284.25C123.985 284.409 124.044 284.585 124.065 284.768C124.073 284.86 124.06 284.952 124.026 285.038C123.992 285.124 123.939 285.201 123.87 285.263C123.731 285.337 123.573 285.369 123.416 285.356C123.259 285.342 123.11 285.284 122.985 285.188C122.71 285.031 122.479 284.81 122.31 284.543C122.225 284.408 122.168 284.257 122.144 284.1C122.119 283.942 122.127 283.782 122.168 283.628C122.52 282.42 123.638 283.793 123.893 284.25Z" fill="#F5F5F5"/>
<path d="M117.548 107.693C115.822 107.935 114.062 107.661 112.492 106.903C110.923 106.146 109.612 104.94 108.728 103.439C107.843 101.937 107.424 100.206 107.522 98.4662C107.621 96.726 108.234 95.0542 109.283 93.6622C110.332 92.2702 111.77 91.2205 113.416 90.6459C115.061 90.0713 116.84 89.9976 118.528 90.4341C120.215 90.8706 121.735 91.7977 122.896 93.0981C124.056 94.3986 124.805 96.014 125.048 97.74C125.369 100.054 124.76 102.4 123.354 104.266C121.948 106.131 119.86 107.363 117.548 107.693ZM115.763 94.8675C114.953 94.9791 114.194 95.3285 113.583 95.8713C112.972 96.4142 112.535 97.1261 112.329 97.9171C112.122 98.7081 112.155 99.5426 112.422 100.315C112.69 101.087 113.181 101.763 113.833 102.256C114.485 102.75 115.268 103.039 116.085 103.087C116.901 103.135 117.713 102.939 118.418 102.526C119.123 102.112 119.69 101.499 120.046 100.763C120.402 100.027 120.533 99.2023 120.42 98.3925C120.268 97.3086 119.692 96.3292 118.819 95.6686C117.946 95.008 116.847 94.72 115.763 94.8675Z" fill="#E0E0E0"/>
<path d="M114.244 72.6773L110.931 73.14L113.907 94.4507L117.22 93.988L114.244 72.6773Z" fill="#E0E0E0"/>
<path d="M117.046 69.7114L110.832 70.5902L111.3 73.9018L117.515 73.0229L117.046 69.7114Z" fill="#E0E0E0"/>
<path d="M117.557 74.2165L111.711 75.0319L112.173 78.3448L118.019 77.5294L117.557 74.2165Z" fill="#E0E0E0"/>
<path d="M118.409 80.2224L113.306 80.9341L113.768 84.2471L118.871 83.5353L118.409 80.2224Z" fill="#E0E0E0"/>
<path d="M187.5 331.943C267.812 331.943 332.918 328.141 332.918 323.453C332.918 318.764 267.812 314.963 187.5 314.963C107.188 314.963 42.0825 318.764 42.0825 323.453C42.0825 328.141 107.188 331.943 187.5 331.943Z" fill="#F5F5F5"/>
<path d="M110.602 182.457C117.517 175.234 116.733 163.262 108.852 155.718C100.971 148.173 88.9764 147.912 82.0618 155.135C75.1473 162.358 75.931 174.33 83.8123 181.875C91.6936 189.419 103.688 189.68 110.602 182.457Z" fill="url(#paint0_linear_14_2151)"/>
<g opacity="0.8">
<path d="M110.602 182.457C117.517 175.234 116.733 163.262 108.852 155.718C100.971 148.173 88.9764 147.912 82.0618 155.135C75.1473 162.358 75.931 174.33 83.8123 181.875C91.6936 189.419 103.688 189.68 110.602 182.457Z" fill="white"/>
</g>
<path d="M87.5171 156.93C87.3597 156.93 87.2063 156.88 87.0786 156.788C86.9509 156.696 86.8554 156.566 86.8056 156.417C86.7558 156.268 86.7543 156.107 86.8012 155.956C86.8481 155.806 86.9412 155.674 87.0671 155.58C89.5926 153.767 92.6366 152.82 95.7446 152.88C95.9435 152.88 96.1343 152.959 96.2749 153.1C96.4156 153.24 96.4946 153.431 96.4946 153.63C96.4946 153.829 96.4156 154.02 96.2749 154.16C96.1343 154.301 95.9435 154.38 95.7446 154.38C92.9609 154.319 90.2322 155.161 87.9671 156.78C87.8373 156.877 87.6794 156.93 87.5171 156.93Z" fill="url(#paint1_linear_14_2151)"/>
<path d="M91.0646 182.73C90.9415 182.729 90.8205 182.698 90.7121 182.64C88.4137 181.411 86.4192 179.683 84.875 177.584C83.3307 175.484 82.2756 173.065 81.7871 170.505C81.3106 168.29 81.3326 165.997 81.8514 163.792C82.3703 161.587 83.3731 159.525 84.7871 157.755C84.9144 157.602 85.0974 157.506 85.2957 157.487C85.494 157.469 85.6915 157.53 85.8446 157.658C85.9978 157.785 86.0941 157.968 86.1124 158.166C86.1307 158.364 86.0694 158.562 85.9421 158.715C84.6647 160.317 83.7603 162.183 83.2946 164.179C82.8288 166.174 82.8135 168.248 83.2496 170.25C83.699 172.59 84.6646 174.801 86.0762 176.721C87.4878 178.642 89.3098 180.223 91.4096 181.35C91.5563 181.429 91.6724 181.555 91.7396 181.707C91.8069 181.86 91.8214 182.03 91.781 182.192C91.7406 182.354 91.6475 182.497 91.5164 182.6C91.3854 182.703 91.2238 182.759 91.0571 182.76L91.0646 182.73Z" fill="url(#paint2_linear_14_2151)"/>
<path d="M98.5724 184.687C96.8937 184.68 95.2263 184.412 93.6299 183.892C93.5359 183.862 93.4487 183.813 93.3735 183.749C93.2983 183.685 93.2365 183.606 93.1915 183.518C93.1466 183.43 93.1195 183.334 93.1117 183.236C93.1039 183.137 93.1156 183.038 93.1462 182.944C93.1767 182.85 93.2255 182.763 93.2897 182.687C93.3539 182.612 93.4323 182.55 93.5204 182.505C93.6085 182.46 93.7045 182.433 93.8031 182.426C93.9017 182.418 94.0009 182.429 94.0949 182.46C98.7074 183.96 103.312 183.12 106.725 180.21C108.456 178.682 109.764 176.734 110.524 174.553C111.283 172.372 111.468 170.033 111.06 167.76C111.028 167.561 111.077 167.358 111.195 167.194C111.313 167.031 111.491 166.922 111.69 166.89C111.889 166.858 112.092 166.907 112.255 167.025C112.419 167.143 112.528 167.321 112.56 167.52C113.015 170.046 112.808 172.646 111.96 175.068C111.113 177.49 109.653 179.652 107.722 181.342C105.179 183.53 101.927 184.719 98.5724 184.687Z" fill="url(#paint3_linear_14_2151)"/>
<path d="M111.187 165.84C111.028 165.839 110.873 165.788 110.745 165.694C110.617 165.599 110.523 165.467 110.475 165.315C109.785 163.185 108.655 161.224 107.159 159.559C105.663 157.893 103.834 156.561 101.79 155.647C101.607 155.568 101.463 155.419 101.39 155.233C101.317 155.048 101.32 154.84 101.4 154.657C101.479 154.474 101.628 154.331 101.814 154.257C102 154.184 102.207 154.188 102.39 154.267C104.628 155.268 106.631 156.728 108.27 158.552C109.908 160.377 111.145 162.525 111.9 164.857C111.961 165.046 111.945 165.252 111.855 165.429C111.765 165.606 111.609 165.741 111.42 165.802C111.344 165.825 111.266 165.838 111.187 165.84Z" fill="url(#paint4_linear_14_2151)"/>
<path d="M99.3674 154.8C99.3102 154.808 99.2522 154.808 99.1949 154.8C98.0663 154.537 96.9113 154.404 95.7524 154.402C95.5535 154.402 95.3628 154.323 95.2221 154.183C95.0815 154.042 95.0024 153.851 95.0024 153.652C95.0024 153.454 95.0815 153.263 95.2221 153.122C95.3628 152.981 95.5535 152.902 95.7524 152.902C97.0152 152.906 98.2734 153.055 99.5024 153.345C99.7014 153.368 99.883 153.469 100.008 153.626C100.132 153.782 100.189 153.982 100.166 154.181C100.143 154.38 100.042 154.562 99.8855 154.686C99.7287 154.811 99.5289 154.868 99.3299 154.845L99.3674 154.8Z" fill="url(#paint5_linear_14_2151)"/>
<path d="M86.1371 172.718C85.9838 172.718 85.8341 172.672 85.7081 172.584C85.582 172.497 85.4857 172.374 85.4321 172.23C84.7291 170.415 84.4818 168.456 84.7119 166.523C84.9421 164.591 85.6426 162.744 86.7521 161.145C87.8009 159.63 89.2056 158.396 90.8429 157.552C92.4802 156.707 94.2999 156.277 96.1421 156.3C96.341 156.3 96.5318 156.379 96.6724 156.52C96.8131 156.66 96.8921 156.851 96.8921 157.05C96.8921 157.249 96.8131 157.44 96.6724 157.58C96.5318 157.721 96.341 157.8 96.1421 157.8C94.5414 157.781 92.9605 158.154 91.5369 158.886C90.1134 159.618 88.8904 160.687 87.9746 162C87.0016 163.408 86.3895 165.034 86.192 166.734C85.9945 168.434 86.2178 170.156 86.8421 171.75C86.91 171.936 86.9016 172.141 86.8187 172.321C86.7358 172.501 86.5851 172.641 86.3996 172.71C86.3131 172.727 86.2244 172.729 86.1371 172.718Z" fill="url(#paint6_linear_14_2151)"/>
<path d="M98.0321 181.282C95.7841 181.207 93.5874 180.591 91.6288 179.485C89.6702 178.379 88.0075 176.816 86.7821 174.93C86.6911 174.764 86.666 174.57 86.7119 174.387C86.7577 174.203 86.8712 174.044 87.0295 173.941C87.1879 173.837 87.3794 173.798 87.5657 173.83C87.7521 173.861 87.9196 173.962 88.0346 174.112C89.1238 175.79 90.6008 177.182 92.3409 178.169C94.081 179.155 96.033 179.709 98.0321 179.782C98.231 179.782 98.4218 179.861 98.5625 180.002C98.7031 180.143 98.7821 180.334 98.7821 180.532C98.7821 180.731 98.7031 180.922 98.5625 181.063C98.4218 181.203 98.231 181.282 98.0321 181.282Z" fill="url(#paint7_linear_14_2151)"/>
<path d="M100.837 180.96C100.666 180.965 100.498 180.911 100.361 180.807C100.225 180.704 100.128 180.556 100.087 180.39C100.04 180.197 100.07 179.993 100.173 179.823C100.276 179.653 100.442 179.53 100.635 179.482C106.717 177.982 108.292 172.65 107.79 168.555C107.137 163.215 102.922 157.807 96.1196 157.8C95.9207 157.8 95.73 157.721 95.5893 157.58C95.4486 157.44 95.3696 157.249 95.3696 157.05C95.3696 156.851 95.4486 156.66 95.5893 156.52C95.73 156.379 95.9207 156.3 96.1196 156.3C103.792 156.3 108.547 162.375 109.282 168.375C110.032 174.562 106.785 179.497 100.995 180.937C100.943 180.951 100.89 180.958 100.837 180.96Z" fill="url(#paint8_linear_14_2151)"/>
<path d="M93.0747 161.94C92.9325 161.939 92.7936 161.897 92.6741 161.82C92.5546 161.743 92.4594 161.634 92.3997 161.505C92.3152 161.325 92.3056 161.119 92.3732 160.932C92.4407 160.745 92.5797 160.592 92.7597 160.507C93.9095 159.999 95.155 159.743 96.4122 159.757C96.6111 159.757 96.8019 159.836 96.9425 159.977C97.0832 160.118 97.1622 160.309 97.1622 160.507C97.1622 160.706 97.0832 160.897 96.9425 161.038C96.8019 161.178 96.6111 161.257 96.4122 161.257C95.3771 161.258 94.3541 161.481 93.4122 161.91C93.3035 161.946 93.188 161.956 93.0747 161.94Z" fill="url(#paint9_linear_14_2151)"/>
<path d="M97.8973 177.788C95.9978 177.757 94.1469 177.183 92.5637 176.133C90.9806 175.082 89.7316 173.601 88.9648 171.862C87.4123 168.48 87.8698 164.947 90.1873 162.397C90.3218 162.252 90.5086 162.165 90.7068 162.157C90.905 162.148 91.0984 162.219 91.2448 162.353C91.3907 162.487 91.4773 162.674 91.4857 162.872C91.4941 163.07 91.4237 163.264 91.2898 163.41C90.3579 164.464 89.7673 165.776 89.5959 167.172C89.4246 168.569 89.6804 169.984 90.3298 171.232C90.9927 172.747 92.0861 174.034 93.4741 174.933C94.8622 175.832 96.4838 176.303 98.1373 176.288C99.3882 176.278 100.61 175.907 101.654 175.219C102.699 174.531 103.522 173.556 104.025 172.41C104.59 171.059 104.76 169.575 104.516 168.13C104.271 166.686 103.623 165.341 102.645 164.25C102.581 164.175 102.532 164.088 102.502 163.995C102.471 163.901 102.459 163.802 102.467 163.704C102.475 163.606 102.502 163.51 102.546 163.422C102.591 163.335 102.652 163.257 102.727 163.192C102.802 163.128 102.889 163.08 102.983 163.049C103.076 163.019 103.175 163.007 103.273 163.015C103.371 163.022 103.467 163.049 103.555 163.094C103.643 163.139 103.721 163.2 103.785 163.275C104.949 164.581 105.719 166.19 106.004 167.916C106.29 169.642 106.079 171.414 105.397 173.025C104.782 174.431 103.774 175.628 102.494 176.475C101.214 177.321 99.7166 177.779 98.1823 177.795L97.8973 177.788Z" fill="url(#paint10_linear_14_2151)"/>
<path d="M101.055 162.6C100.913 162.601 100.775 162.559 100.657 162.48C99.3907 161.665 97.9181 161.228 96.4121 161.22C96.2132 161.22 96.0224 161.141 95.8818 161C95.7411 160.86 95.6621 160.669 95.6621 160.47C95.6621 160.271 95.7411 160.08 95.8818 159.94C96.0224 159.799 96.2132 159.72 96.4121 159.72C98.2035 159.727 99.9553 160.247 101.46 161.22C101.595 161.308 101.699 161.437 101.756 161.589C101.812 161.74 101.818 161.906 101.772 162.061C101.727 162.216 101.632 162.353 101.503 162.45C101.374 162.547 101.216 162.6 101.055 162.6Z" fill="url(#paint11_linear_14_2151)"/>
<path d="M97.4998 174.405C96.6235 174.399 95.7591 174.201 94.9674 173.826C94.1757 173.45 93.4759 172.905 92.9173 172.23C92.1965 171.405 91.7283 170.39 91.5687 169.306C91.4091 168.222 91.5648 167.115 92.0173 166.117C92.4212 165.212 93.0821 164.445 93.9181 163.911C94.7541 163.378 95.7283 163.102 96.7198 163.117C96.9187 163.117 97.1095 163.197 97.2501 163.337C97.3908 163.478 97.4698 163.669 97.4698 163.867C97.4698 164.066 97.3908 164.257 97.2501 164.398C97.1095 164.538 96.9187 164.617 96.7198 164.617C96.0185 164.605 95.3288 164.797 94.7357 165.172C94.1426 165.546 93.6721 166.086 93.3823 166.725C93.0525 167.462 92.9415 168.277 93.0625 169.075C93.1836 169.873 93.5315 170.619 94.0648 171.225C94.5957 171.876 95.3006 172.362 96.0973 172.628C96.8939 172.893 97.7497 172.927 98.5648 172.725C99.228 172.576 99.8343 172.239 100.312 171.755C100.789 171.271 101.117 170.66 101.257 169.995C101.3 169.801 101.418 169.632 101.586 169.526C101.753 169.419 101.956 169.383 102.15 169.425C102.246 169.445 102.338 169.485 102.419 169.541C102.501 169.597 102.57 169.668 102.624 169.751C102.678 169.834 102.714 169.927 102.732 170.024C102.75 170.121 102.748 170.221 102.727 170.317C102.529 171.256 102.066 172.118 101.394 172.803C100.721 173.487 99.8672 173.965 98.9323 174.18C98.4655 174.312 97.9846 174.387 97.4998 174.405Z" fill="url(#paint12_linear_14_2151)"/>
<path d="M101.865 168.465C101.699 168.473 101.536 168.425 101.401 168.33C101.265 168.235 101.164 168.098 101.115 167.94C100.816 167 100.231 166.177 99.4415 165.586C98.6523 164.994 97.6983 164.664 96.7124 164.64C96.5135 164.64 96.3227 164.561 96.1821 164.42C96.0414 164.28 95.9624 164.089 95.9624 163.89C95.9624 163.691 96.0414 163.5 96.1821 163.36C96.3227 163.219 96.5135 163.14 96.7124 163.14C98.0164 163.169 99.2789 163.604 100.325 164.383C101.37 165.163 102.147 166.249 102.547 167.49C102.578 167.584 102.589 167.683 102.581 167.782C102.573 167.88 102.545 167.976 102.5 168.064C102.455 168.152 102.393 168.23 102.317 168.293C102.241 168.357 102.154 168.405 102.06 168.435C101.997 168.454 101.931 168.464 101.865 168.465Z" fill="url(#paint13_linear_14_2151)"/>
<path d="M97.7023 171.285C97.5034 171.285 97.3126 171.206 97.172 171.065C97.0313 170.925 96.9523 170.734 96.9523 170.535C96.9523 170.336 97.0313 170.145 97.172 170.005C97.3126 169.864 97.5034 169.785 97.7023 169.785C97.8047 169.785 97.906 169.764 98.0001 169.724C98.0942 169.683 98.1789 169.624 98.2492 169.55C98.3195 169.475 98.3737 169.387 98.4087 169.291C98.4436 169.195 98.4585 169.092 98.4523 168.99C98.4563 168.844 98.4312 168.699 98.3785 168.562C98.3259 168.426 98.2466 168.302 98.1454 168.196C98.0443 168.091 97.9231 168.007 97.7891 167.949C97.6551 167.89 97.5109 167.859 97.3648 167.857C97.2548 167.86 97.1464 167.885 97.046 167.93C96.9456 167.975 96.8551 168.04 96.7798 168.12C96.7029 168.211 96.6448 168.316 96.6088 168.429C96.5727 168.542 96.5595 168.662 96.5698 168.78C96.5757 168.878 96.5622 168.977 96.5299 169.07C96.4977 169.164 96.4474 169.25 96.382 169.323C96.3165 169.397 96.2371 169.458 96.1484 169.501C96.0597 169.544 95.9633 169.569 95.8648 169.575C95.7663 169.581 95.6676 169.567 95.5744 169.535C95.4811 169.503 95.3951 169.453 95.3213 169.387C95.2475 169.322 95.1873 169.242 95.1441 169.154C95.101 169.065 95.0757 168.968 95.0698 168.87C95.0431 168.555 95.0811 168.238 95.1813 167.939C95.2815 167.639 95.4419 167.363 95.6526 167.128C95.8633 166.893 96.1199 166.703 96.4066 166.571C96.6933 166.438 97.0041 166.366 97.3198 166.357C97.6631 166.358 98.0029 166.428 98.3193 166.561C98.6357 166.694 98.9226 166.889 99.1633 167.133C99.4039 167.378 99.5936 167.668 99.7213 167.987C99.8491 168.306 99.9123 168.647 99.9073 168.99C99.9133 169.289 99.8595 169.587 99.7491 169.865C99.6387 170.143 99.4739 170.396 99.2644 170.61C99.0549 170.824 98.8048 170.994 98.5289 171.11C98.2529 171.225 97.9566 171.285 97.6573 171.285H97.7023Z" fill="url(#paint14_linear_14_2151)"/>
<path d="M117 168.787C117.915 179.235 110.182 187.702 99.7497 187.702H98.9396C108.885 187.192 116.107 178.927 115.222 168.81C114.711 163.858 112.465 159.246 108.881 155.79C105.298 152.334 100.607 150.256 95.6396 149.925C95.9021 149.925 96.1721 149.925 96.4421 149.925C106.905 149.88 116.115 158.347 117 168.787Z" fill="url(#paint15_linear_14_2151)"/>
<g opacity="0.4">
<path d="M117 168.787C117.915 179.235 110.182 187.702 99.7497 187.702H98.9396C108.885 187.192 116.107 178.927 115.222 168.81C114.711 163.858 112.465 159.246 108.881 155.79C105.298 152.334 100.607 150.256 95.6396 149.925C95.9021 149.925 96.1721 149.925 96.4421 149.925C106.905 149.88 116.115 158.347 117 168.787Z" fill="white"/>
</g>
<path d="M132.315 76.605C132.333 76.8289 132.363 77.0517 132.405 77.2725C132.688 78.7176 133.43 80.0328 134.52 81.0225C135.755 82.1793 137.38 82.8297 139.072 82.845H202.44C203.18 82.86 203.915 82.7276 204.603 82.4558C205.291 82.1839 205.918 81.778 206.448 81.2615C206.978 80.745 207.399 80.1284 207.688 79.4475C207.978 78.7665 208.129 78.0348 208.132 77.295C208.144 77.0727 208.144 76.8499 208.132 76.6275C207.956 74.9483 207.173 73.3911 205.93 72.2479C204.687 71.1047 203.071 70.4539 201.382 70.4175H138C137.205 70.4015 136.416 70.5546 135.686 70.8668C134.955 71.1791 134.299 71.6432 133.761 72.2284C133.223 72.8136 132.816 73.5065 132.567 74.2611C132.318 75.0157 132.232 75.8147 132.315 76.605Z" fill="url(#paint16_linear_14_2151)"/>
<path opacity="0.8" d="M132.315 76.605C132.333 76.8289 132.363 77.0517 132.405 77.2725C132.688 78.7176 133.43 80.0328 134.52 81.0225C135.755 82.1793 137.38 82.8297 139.072 82.845H202.44C203.18 82.86 203.915 82.7276 204.603 82.4558C205.291 82.1839 205.918 81.778 206.448 81.2615C206.978 80.745 207.399 80.1284 207.688 79.4475C207.978 78.7665 208.129 78.0348 208.132 77.295C208.144 77.0727 208.144 76.8499 208.132 76.6275C207.956 74.9483 207.173 73.3911 205.93 72.2479C204.687 71.1047 203.071 70.4539 201.382 70.4175H138C137.205 70.4015 136.416 70.5546 135.686 70.8668C134.955 71.1791 134.299 71.6432 133.761 72.2284C133.223 72.8136 132.816 73.5065 132.567 74.2611C132.318 75.0157 132.232 75.8147 132.315 76.605Z" fill="white"/>
<path d="M208.132 77.25C208.133 77.4508 208.118 77.6514 208.087 77.85C207.864 76.2088 207.06 74.7017 205.822 73.6012C204.584 72.5008 202.993 71.8796 201.337 71.85L133.965 72C134.499 71.4805 135.13 71.0713 135.823 70.7959C136.515 70.5205 137.255 70.3843 138 70.395H201.367C203.055 70.4314 204.672 71.0821 205.915 72.2254C207.158 73.3686 207.941 74.9258 208.117 76.605C208.133 76.8196 208.138 77.0349 208.132 77.25Z" fill="url(#paint17_linear_14_2151)"/>
<path opacity="0.5" d="M208.132 77.25C208.133 77.4508 208.118 77.6514 208.087 77.85C207.864 76.2088 207.06 74.7017 205.822 73.6012C204.584 72.5008 202.993 71.8796 201.337 71.85L133.965 72C134.499 71.4805 135.13 71.0713 135.823 70.7959C136.515 70.5205 137.255 70.3843 138 70.395H201.367C203.055 70.4314 204.672 71.0821 205.915 72.2254C207.158 73.3686 207.941 74.9258 208.117 76.605C208.133 76.8196 208.138 77.0349 208.132 77.25Z" fill="white"/>
<path d="M197.25 73.395L197.52 76.395L200.34 75.345L201.008 76.845L198.128 77.805L200.197 80.3475L198.9 81.3L196.883 78.66L195.383 81.3L193.965 80.3475L195.562 77.805L192.562 76.845L192.968 75.345L196.005 76.3575L195.735 73.3575L197.25 73.395Z" fill="url(#paint18_linear_14_2151)"/>
<path d="M179.887 73.395L180.157 76.395L182.977 75.345L183.652 76.845L180.75 77.8275L182.82 80.37L181.53 81.3225L179.512 78.6825L178.012 81.3225L176.587 80.37L178.192 77.8275L175.192 76.8675L175.597 75.3675L178.635 76.38L178.372 73.38L179.887 73.395Z" fill="url(#paint19_linear_14_2151)"/>
<path d="M162.563 73.395L162.825 76.395L165.645 75.345L166.32 76.845L163.433 77.805L165.503 80.3475L164.25 81.3225L162.233 78.6825L160.733 81.3225L159.315 80.37L160.913 77.8275L157.913 76.8675L158.325 75.3675L161.325 76.38L161.063 73.38L162.563 73.395Z" fill="url(#paint20_linear_14_2151)"/>
<path d="M145.23 73.395L145.492 76.395L148.32 75.345L148.987 76.845L146.1 77.805L148.177 80.3475L146.88 81.3L144.862 78.66L143.362 81.3L141.945 80.3475L143.542 77.805L140.542 76.845L140.947 75.345L143.947 76.3575L143.685 73.3575L145.23 73.395Z" fill="url(#paint21_linear_14_2151)"/>
<path d="M187.237 67.455H184.282V68.205H187.237V67.455Z" fill="url(#paint22_linear_14_2151)"/>
<path d="M199.935 67.455H190.297V68.205H199.935V67.455Z" fill="url(#paint23_linear_14_2151)"/>
<path opacity="0.8" d="M298.343 95.43L295.275 130.5C295.157 131.619 294.635 132.657 293.806 133.419C292.978 134.181 291.9 134.615 290.775 134.64H266.423C265.896 134.643 265.374 134.535 264.891 134.322C264.409 134.11 263.977 133.798 263.623 133.408C263.269 133.017 263.002 132.556 262.838 132.055C262.674 131.554 262.618 131.024 262.673 130.5L265.74 95.4225C265.854 94.3013 266.375 93.2608 267.204 92.4978C268.033 91.7348 269.113 91.3024 270.24 91.2825H294.593C295.12 91.2795 295.643 91.388 296.126 91.6008C296.609 91.8136 297.041 92.1259 297.395 92.5174C297.749 92.9089 298.017 93.3707 298.18 93.8726C298.343 94.3745 298.399 94.9052 298.343 95.43Z" fill="url(#paint24_linear_14_2151)"/>
<path opacity="0.8" d="M298.343 95.43L295.275 130.5C295.157 131.619 294.635 132.657 293.806 133.419C292.978 134.181 291.9 134.615 290.775 134.64H266.423C265.896 134.643 265.374 134.535 264.891 134.322C264.409 134.11 263.977 133.798 263.623 133.408C263.269 133.017 263.002 132.556 262.838 132.055C262.674 131.554 262.618 131.024 262.673 130.5L265.74 95.4225C265.854 94.3013 266.375 93.2608 267.204 92.4978C268.033 91.7348 269.113 91.3024 270.24 91.2825H294.593C295.12 91.2795 295.643 91.388 296.126 91.6008C296.609 91.8136 297.041 92.1259 297.395 92.5174C297.749 92.9089 298.017 93.3707 298.18 93.8726C298.343 94.3745 298.399 94.9052 298.343 95.43Z" fill="white"/>
<path d="M267.96 101.085H267.893C267.695 101.068 267.512 100.973 267.384 100.821C267.256 100.669 267.194 100.473 267.21 100.275L267.495 97.065C267.512 96.878 267.598 96.7041 267.737 96.5777C267.876 96.4514 268.057 96.3817 268.245 96.3825H271.635C271.834 96.3825 272.025 96.4615 272.165 96.6021C272.306 96.7428 272.385 96.9335 272.385 97.1325C272.385 97.3314 272.306 97.5221 272.165 97.6628C272.025 97.8034 271.834 97.8825 271.635 97.8825H268.935L268.71 100.402C268.693 100.589 268.607 100.763 268.468 100.89C268.329 101.016 268.148 101.086 267.96 101.085Z" fill="url(#paint25_linear_14_2151)"/>
<path d="M295.23 101.085H295.162C294.965 101.068 294.782 100.973 294.654 100.821C294.526 100.669 294.463 100.473 294.48 100.275L294.69 97.8825H292.125C291.926 97.8825 291.735 97.8034 291.595 97.6628C291.454 97.5221 291.375 97.3314 291.375 97.1325C291.375 96.9335 291.454 96.7428 291.595 96.6021C291.735 96.4615 291.926 96.3825 292.125 96.3825H295.5C295.604 96.382 295.708 96.4034 295.803 96.4453C295.899 96.4871 295.985 96.5485 296.056 96.6254C296.126 96.7024 296.18 96.7932 296.214 96.8922C296.247 96.9911 296.259 97.0959 296.25 97.2L295.965 100.402C295.948 100.587 295.864 100.759 295.728 100.885C295.593 101.011 295.415 101.082 295.23 101.085Z" fill="url(#paint26_linear_14_2151)"/>
<path d="M269.25 125.287H265.86C265.758 125.287 265.656 125.266 265.562 125.224C265.467 125.183 265.383 125.123 265.313 125.047C265.243 124.971 265.189 124.881 265.156 124.783C265.122 124.685 265.109 124.581 265.118 124.477L265.395 121.267C265.412 121.069 265.507 120.884 265.66 120.756C265.813 120.627 266.01 120.564 266.209 120.581C266.408 120.598 266.592 120.693 266.721 120.846C266.849 120.999 266.912 121.196 266.895 121.395L266.685 123.787H269.25C269.449 123.787 269.64 123.866 269.781 124.007C269.921 124.148 270 124.339 270 124.537C270 124.736 269.921 124.927 269.781 125.068C269.64 125.208 269.449 125.287 269.25 125.287Z" fill="url(#paint27_linear_14_2151)"/>
<path d="M293.108 125.287H289.725C289.526 125.287 289.335 125.208 289.195 125.068C289.054 124.927 288.975 124.736 288.975 124.537C288.975 124.339 289.054 124.148 289.195 124.007C289.335 123.866 289.526 123.787 289.725 123.787H292.425L292.643 121.267C292.66 121.07 292.755 120.887 292.907 120.759C293.058 120.631 293.255 120.568 293.453 120.585C293.65 120.602 293.833 120.697 293.961 120.849C294.089 121.001 294.152 121.197 294.135 121.395L293.858 124.605C293.841 124.792 293.754 124.966 293.615 125.092C293.477 125.219 293.295 125.288 293.108 125.287Z" fill="url(#paint28_linear_14_2151)"/>
<path d="M290.526 113.195C292.219 106.629 289.313 100.203 284.035 98.8418C278.756 97.4807 273.105 101.7 271.411 108.266C269.718 114.832 272.625 121.258 277.903 122.619C283.181 123.98 288.833 119.761 290.526 113.195Z" fill="white"/>
<path d="M283.913 129.397H274.2L275.048 119.685H284.76L283.913 129.397Z" fill="white"/>
<path d="M295.275 130.5C295.157 131.619 294.635 132.657 293.806 133.419C292.978 134.181 291.9 134.615 290.775 134.64H266.423C265.896 134.643 265.374 134.535 264.891 134.322C264.409 134.11 263.977 133.798 263.623 133.408C263.269 133.017 263.002 132.556 262.838 132.055C262.674 131.554 262.618 131.024 262.673 130.5C262.673 130.5 273.863 126.96 275.243 126.96H283.89L295.275 130.5Z" fill="white"/>
<path d="M299.757 105.679L298.622 119.455L299.37 119.516L300.505 105.741L299.757 105.679Z" fill="url(#paint29_linear_14_2151)"/>
<path d="M300.546 99.3752L300.323 102.081L301.071 102.143L301.294 99.4368L300.546 99.3752Z" fill="url(#paint30_linear_14_2151)"/>
<path d="M274.41 183.052H271.455V183.802H274.41V183.052Z" fill="url(#paint31_linear_14_2151)"/>
<path d="M287.107 183.052H277.47V183.802H287.107V183.052Z" fill="url(#paint32_linear_14_2151)"/>
<path d="M304.747 170.25L302.88 191.625C302.783 192.57 302.343 193.446 301.644 194.089C300.945 194.731 300.034 195.095 299.085 195.113C298.638 195.12 298.195 195.033 297.784 194.857C297.374 194.68 297.006 194.418 296.704 194.088C296.403 193.758 296.175 193.368 296.036 192.943C295.897 192.519 295.85 192.069 295.897 191.625L297.75 170.25C297.922 168.656 297.754 167.043 297.256 165.519C296.757 163.995 295.941 162.594 294.86 161.41C293.779 160.225 292.458 159.284 290.986 158.649C289.514 158.014 287.923 157.699 286.32 157.725H278.7C275.292 157.79 272.025 159.099 269.516 161.406C267.007 163.714 265.429 166.859 265.08 170.25L264.33 178.98H257.355L258.105 170.25C259.042 159.495 268.56 150.75 279.307 150.75H286.957C289.453 150.709 291.93 151.199 294.222 152.188C296.514 153.177 298.569 154.642 300.252 156.487C301.934 158.331 303.205 160.512 303.98 162.885C304.755 165.258 305.017 167.768 304.747 170.25Z" fill="url(#paint33_linear_14_2151)"/>
<g opacity="0.5">
<path d="M304.747 170.25L302.88 191.625C302.783 192.57 302.343 193.446 301.644 194.089C300.945 194.731 300.034 195.095 299.085 195.113C298.638 195.12 298.195 195.033 297.784 194.857C297.374 194.68 297.006 194.418 296.704 194.088C296.403 193.758 296.175 193.368 296.036 192.943C295.897 192.519 295.85 192.069 295.897 191.625L297.75 170.25C297.922 168.656 297.754 167.043 297.256 165.519C296.757 163.995 295.941 162.594 294.86 161.41C293.779 160.225 292.458 159.284 290.986 158.649C289.514 158.014 287.923 157.699 286.32 157.725H278.7C275.292 157.79 272.025 159.099 269.516 161.406C267.007 163.714 265.429 166.859 265.08 170.25L264.33 178.98H257.355L258.105 170.25C259.042 159.495 268.56 150.75 279.307 150.75H286.957C289.453 150.709 291.93 151.199 294.222 152.188C296.514 153.177 298.569 154.642 300.252 156.487C301.934 158.331 303.205 160.512 303.98 162.885C304.755 165.258 305.017 167.768 304.747 170.25Z" fill="white"/>
</g>
<path d="M305.25 190.845L301.612 232.5C301.48 233.792 300.879 234.99 299.922 235.868C298.966 236.745 297.721 237.242 296.422 237.262H254.767C254.157 237.274 253.552 237.155 252.991 236.913C252.431 236.672 251.928 236.315 251.516 235.864C251.105 235.413 250.794 234.88 250.605 234.3C250.415 233.72 250.351 233.107 250.417 232.5L254.062 190.845C254.146 190.014 254.425 189.215 254.876 188.513C255.327 187.811 255.937 187.225 256.657 186.802C257.439 186.324 258.336 186.065 259.252 186.052H300.9C301.751 186.048 302.586 186.284 303.307 186.735C303.981 187.172 304.52 187.788 304.863 188.514C305.206 189.24 305.34 190.047 305.25 190.845Z" fill="url(#paint34_linear_14_2151)"/>
<path d="M261.938 209.04L272.76 225.697L308.452 190.005C308.508 189.939 308.537 189.855 308.536 189.769C308.535 189.683 308.502 189.6 308.445 189.535C308.388 189.471 308.31 189.429 308.224 189.418C308.139 189.406 308.052 189.426 307.98 189.472L273.968 216.135L267.54 205.777L261.938 209.04Z" fill="white"/>
<path d="M91.5 128.482H64.365C63.1094 128.46 61.9057 127.978 60.9812 127.128C60.0568 126.278 59.4756 125.119 59.3475 123.87L57 96.7499C56.9348 96.1627 56.9956 95.5683 57.1784 95.0064C57.3612 94.4445 57.6617 93.9281 58.0599 93.4916C58.4581 93.055 58.9448 92.7084 59.4876 92.4749C60.0304 92.2414 60.6167 92.1264 61.2075 92.1374H88.3125C89.5633 92.1659 90.7606 92.6504 91.6791 93.4998C92.5976 94.3493 93.1741 95.5052 93.3 96.7499L95.6699 123.855C95.737 124.44 95.6788 125.033 95.4992 125.594C95.3197 126.155 95.0229 126.672 94.6286 127.109C94.2342 127.547 93.7514 127.896 93.212 128.132C92.6726 128.369 92.089 128.488 91.5 128.482Z" fill="url(#paint35_linear_14_2151)"/>
<path opacity="0.8" d="M91.5 128.482H64.365C63.1094 128.46 61.9057 127.978 60.9812 127.128C60.0568 126.278 59.4756 125.119 59.3475 123.87L57 96.7499C56.9348 96.1627 56.9956 95.5683 57.1784 95.0064C57.3612 94.4445 57.6617 93.9281 58.0599 93.4916C58.4581 93.055 58.9448 92.7084 59.4876 92.4749C60.0304 92.2414 60.6167 92.1264 61.2075 92.1374H88.3125C89.5633 92.1659 90.7606 92.6504 91.6791 93.4998C92.5976 94.3493 93.1741 95.5052 93.3 96.7499L95.6699 123.855C95.737 124.44 95.6788 125.033 95.4992 125.594C95.3197 126.155 95.0229 126.672 94.6286 127.109C94.2342 127.547 93.7514 127.896 93.212 128.132C92.6726 128.369 92.089 128.488 91.5 128.482Z" fill="white"/>
<path d="M59.3623 113.047C59.3623 113.047 68.9998 99.63 76.0948 99.975C83.1898 100.32 94.9798 112.725 94.9798 112.725C94.9798 112.725 77.6023 121.852 59.3623 113.047Z" fill="white"/>
<path d="M59.67 113.25L59.0625 112.815C59.4525 112.267 68.64 99.5775 75.825 99.5775H76.1175C83.2875 99.9225 94.7625 111.937 95.25 112.447L94.71 112.965C94.59 112.845 82.95 100.657 76.08 100.327H75.825C69 100.342 59.76 113.137 59.67 113.25Z" fill="#263238"/>
<path d="M58.3649 113.52C56.9099 113.52 55.0199 112.98 54.3524 110.925C54.3216 110.83 54.3296 110.728 54.3746 110.639C54.4196 110.55 54.498 110.483 54.5924 110.452C54.6391 110.436 54.6887 110.43 54.7381 110.433C54.7874 110.436 54.8356 110.449 54.8798 110.472C54.9239 110.494 54.963 110.525 54.9948 110.563C55.0267 110.601 55.0505 110.645 55.0649 110.692C55.9274 113.347 59.1524 112.71 59.2874 112.68C59.3847 112.662 59.4851 112.683 59.5676 112.737C59.6501 112.792 59.7083 112.876 59.7299 112.972C59.7398 113.021 59.74 113.07 59.7307 113.119C59.7213 113.167 59.7025 113.213 59.6753 113.254C59.6482 113.295 59.6132 113.331 59.5723 113.358C59.5315 113.386 59.4857 113.405 59.4374 113.415C59.0842 113.485 58.725 113.52 58.3649 113.52Z" fill="#263238"/>
<path d="M64.0876 107.76C64.0039 107.762 63.9221 107.735 63.8551 107.685C63.7426 107.595 61.0801 105.54 60.4051 103.447C60.3744 103.353 60.3824 103.25 60.4274 103.162C60.4724 103.073 60.5507 103.006 60.6451 102.975C60.7396 102.946 60.8416 102.955 60.9297 103C61.0178 103.045 61.0851 103.122 61.1176 103.215C61.7251 105.082 64.2826 107.07 64.3126 107.085C64.391 107.146 64.4422 107.235 64.4548 107.334C64.4675 107.432 64.4406 107.531 64.3801 107.61C64.346 107.656 64.3019 107.693 64.2512 107.719C64.2005 107.745 64.1446 107.759 64.0876 107.76Z" fill="#263238"/>
<path d="M69.5926 102.652C69.4944 102.647 69.402 102.604 69.3338 102.533C69.2657 102.462 69.2268 102.368 69.2251 102.27C68.7871 100.636 68.2435 99.033 67.5976 97.47C67.4101 96.975 67.2751 96.615 67.2451 96.525C67.2302 96.4772 67.225 96.427 67.2298 96.3771C67.2345 96.3273 67.2493 96.279 67.273 96.235C67.2968 96.1909 67.3291 96.1521 67.3681 96.1208C67.4071 96.0894 67.452 96.0662 67.5001 96.0525C67.5474 96.0387 67.5969 96.0343 67.6459 96.0397C67.6948 96.045 67.7422 96.06 67.7854 96.0837C67.8286 96.1073 67.8667 96.1393 67.8975 96.1777C67.9284 96.2161 67.9513 96.2602 67.9651 96.3075C67.9651 96.3975 68.1226 96.7275 68.2951 97.2C69.3451 99.9525 69.9901 101.76 69.9751 102.285C69.9752 102.335 69.9652 102.384 69.9458 102.429C69.9264 102.475 69.898 102.516 69.8622 102.55C69.8265 102.585 69.7842 102.611 69.7379 102.629C69.6915 102.646 69.6421 102.654 69.5926 102.652Z" fill="#263238"/>
<path d="M76.0949 100.35C76.0014 100.347 75.9121 100.311 75.8432 100.247C75.7744 100.184 75.7306 100.098 75.7199 100.005L75.1949 94.005C75.1859 93.9055 75.2168 93.8066 75.2808 93.7299C75.3448 93.6533 75.4367 93.6052 75.5361 93.5962C75.6356 93.5873 75.7345 93.6182 75.8112 93.6822C75.8878 93.7462 75.9359 93.838 75.9449 93.9375L76.4699 99.9825C76.4763 100.08 76.4449 100.177 76.382 100.252C76.3192 100.328 76.2298 100.376 76.1324 100.387L76.0949 100.35Z" fill="#263238"/>
<path d="M96.105 113.107C95.7381 113.109 95.3718 113.079 95.01 113.017C94.9618 113.008 94.9159 112.988 94.8751 112.961C94.8343 112.933 94.7993 112.898 94.7721 112.857C94.745 112.816 94.7262 112.77 94.7168 112.721C94.7074 112.673 94.7077 112.623 94.7175 112.575C94.7255 112.527 94.7433 112.48 94.7699 112.439C94.7964 112.398 94.8311 112.362 94.8719 112.335C94.9126 112.307 94.9585 112.289 95.0068 112.28C95.0551 112.271 95.1047 112.272 95.1526 112.282C95.1526 112.282 96.9901 112.635 98.1151 111.84C98.3557 111.665 98.5564 111.441 98.7038 111.182C98.8512 110.923 98.942 110.636 98.9701 110.34C98.9774 110.291 98.9945 110.243 99.0201 110.201C99.0458 110.158 99.0796 110.121 99.1197 110.091C99.1597 110.062 99.2052 110.04 99.2535 110.028C99.3018 110.016 99.3521 110.014 99.4013 110.021C99.4505 110.029 99.4978 110.046 99.5405 110.071C99.5832 110.097 99.6204 110.131 99.65 110.171C99.6796 110.211 99.701 110.256 99.713 110.305C99.725 110.353 99.7274 110.403 99.7201 110.452C99.6747 110.847 99.5472 111.228 99.3457 111.57C99.1442 111.913 98.8731 112.209 98.55 112.44C97.8213 112.904 96.9688 113.137 96.105 113.107Z" fill="#263238"/>
<path d="M89.3699 107.362C89.3171 107.363 89.2649 107.352 89.2169 107.33C89.169 107.308 89.1265 107.275 89.0924 107.235C89.0572 107.2 89.0293 107.159 89.0103 107.113C88.9913 107.067 88.9814 107.018 88.9814 106.969C88.9814 106.919 88.9913 106.87 89.0103 106.825C89.0293 106.779 89.0572 106.737 89.0924 106.702C89.0924 106.702 91.3424 104.722 91.5824 102.877C91.599 102.78 91.6528 102.692 91.7326 102.634C91.8123 102.575 91.9117 102.549 92.0099 102.562C92.0587 102.57 92.1055 102.587 92.1478 102.612C92.19 102.638 92.2268 102.671 92.2561 102.711C92.2853 102.751 92.3065 102.796 92.3183 102.844C92.3301 102.891 92.3323 102.941 92.3249 102.99C92.0099 105.105 89.6849 107.175 89.5874 107.265C89.5288 107.322 89.4517 107.357 89.3699 107.362Z" fill="#263238"/>
<path d="M83.0324 103.005H82.9649C82.8672 102.987 82.7804 102.931 82.723 102.85C82.6656 102.769 82.6421 102.668 82.6574 102.57C82.6574 102.525 83.4824 97.7025 83.6324 96.7125C83.6398 96.6632 83.6568 96.6159 83.6825 96.5733C83.7082 96.5306 83.742 96.4934 83.782 96.4638C83.8221 96.4342 83.8676 96.4128 83.9159 96.4007C83.9642 96.3887 84.0144 96.3863 84.0637 96.3937C84.1129 96.4011 84.1602 96.4181 84.2029 96.4438C84.2456 96.4695 84.2828 96.5033 84.3124 96.5433C84.342 96.5834 84.3634 96.6289 84.3754 96.6772C84.3874 96.7255 84.3898 96.7757 84.3824 96.825C84.2324 97.8225 83.4149 102.652 83.4074 102.697C83.3914 102.785 83.345 102.864 83.2763 102.92C83.2076 102.976 83.1212 103.006 83.0324 103.005Z" fill="#263238"/>
<path d="M83.2529 114.619C86.3579 111.375 86.003 105.997 82.4604 102.605C78.9177 99.2138 73.5287 99.0939 70.4238 102.337C67.3188 105.581 67.6737 110.959 71.2164 114.351C74.759 117.742 80.148 117.862 83.2529 114.619Z" fill="url(#paint36_linear_14_2151)"/>
<path opacity="0.3" d="M80.3551 108.472C80.3663 108.283 80.3663 108.092 80.3551 107.902C80.2544 106.925 79.7989 106.018 79.0747 105.353C78.3506 104.688 77.408 104.312 76.4251 104.295C75.9632 104.287 75.5048 104.377 75.0805 104.56C74.6562 104.743 74.2757 105.014 73.9642 105.355C73.6528 105.696 73.4175 106.1 73.2741 106.539C73.1308 106.978 73.0825 107.443 73.1326 107.902C73.145 108.096 73.1803 108.287 73.2376 108.472H68.3476C68.2281 107.391 68.3404 106.296 68.6771 105.262C69.0138 104.227 69.5671 103.276 70.3001 102.472C71.0332 101.668 71.9292 101.029 72.9285 100.599C73.9277 100.168 75.0072 99.9556 76.0951 99.975C78.4083 100.018 80.6259 100.905 82.3295 102.471C84.0331 104.036 85.1049 106.171 85.3426 108.472H80.3551Z" fill="black"/>
<path opacity="0.7" d="M80.3473 107.902C80.3585 108.092 80.3585 108.283 80.3473 108.472C80.2934 109.307 79.9194 110.089 79.3032 110.655C78.687 111.221 77.8763 111.527 77.0398 111.51C76.1582 111.494 75.3065 111.187 74.6165 110.638C73.9264 110.089 73.4365 109.328 73.2223 108.472C73.165 108.287 73.1298 108.096 73.1173 107.902C73.0672 107.443 73.1155 106.979 73.2589 106.539C73.4022 106.1 73.6375 105.696 73.9489 105.355C74.2604 105.014 74.6409 104.743 75.0652 104.56C75.4895 104.377 75.9479 104.287 76.4098 104.295C77.394 104.31 78.3384 104.686 79.0642 105.35C79.7899 106.015 80.2465 106.923 80.3473 107.902Z" fill="black"/>
<path opacity="0.7" d="M82.305 104.362C82.3454 104.737 82.3058 105.116 82.1887 105.473C82.0716 105.831 81.8797 106.16 81.6258 106.438C81.3719 106.716 81.0617 106.937 80.7159 107.086C80.37 107.235 79.9965 107.309 79.62 107.302C78.8204 107.287 78.0543 106.979 77.4658 106.437C76.8773 105.896 76.5072 105.158 76.425 104.362C76.3832 103.988 76.422 103.609 76.5386 103.25C76.6553 102.892 76.8471 102.562 77.1013 102.284C77.3555 102.006 77.6661 101.785 78.0126 101.636C78.359 101.488 78.7331 101.415 79.11 101.422C79.91 101.437 80.677 101.744 81.2658 102.286C81.8546 102.828 82.2243 103.566 82.305 104.362Z" fill="white"/>
<path d="M70.6947 88.785H67.7397V89.535H70.6947V88.785Z" fill="url(#paint37_linear_14_2151)"/>
<path d="M83.3924 88.785H73.7549V89.535H83.3924V88.785Z" fill="url(#paint38_linear_14_2151)"/>
<path d="M207 143.737L207.255 144.045L207.6 144.442C207.847 144.705 208.087 144.982 208.35 145.237C208.867 145.777 209.43 146.302 210 146.835C211.139 147.885 212.333 148.874 213.577 149.797C214.845 150.742 216.18 151.605 217.515 152.46C218.265 152.865 218.88 153.292 219.585 153.682L221.212 154.582C221.449 154.687 221.715 154.703 221.962 154.627C222.487 154.47 225.502 151.485 226.462 150.375C228.592 147.937 231.817 144.727 233.557 141.997L235.5 144.675C234.272 148.02 232.643 151.203 230.647 154.155C229.574 155.751 228.287 157.192 226.822 158.437C225.943 159.178 224.95 159.773 223.882 160.2C222.529 160.74 221.042 160.853 219.622 160.522C219.255 160.433 218.897 160.313 218.55 160.163L217.875 159.87L216.66 159.315C215.842 158.955 215.055 158.52 214.26 158.122C212.67 157.274 211.128 156.34 209.64 155.325C208.14 154.293 206.7 153.176 205.327 151.98C204.615 151.357 203.977 150.727 203.325 150.045C203.002 149.707 202.672 149.355 202.357 148.987L201.892 148.417C201.72 148.207 201.592 148.05 201.36 147.727L207 143.737Z" fill="#FFB573"/>
<path d="M233.25 142.41L236.73 134.97L240.053 140.925C240.053 140.925 237.87 144.675 235.5 144.675L233.25 142.41Z" fill="#FFB573"/>
<path d="M240.675 131.88L244.185 136.395L240.082 140.918L236.76 134.97L240.675 131.88Z" fill="#FFB573"/>
<path d="M239.452 142.972H244.98C245.136 142.971 245.286 142.912 245.401 142.807C245.516 142.702 245.588 142.558 245.603 142.402L246.75 129.15C246.758 129.063 246.749 128.976 246.721 128.893C246.694 128.811 246.649 128.735 246.59 128.67C246.532 128.606 246.46 128.555 246.38 128.52C246.301 128.485 246.215 128.467 246.128 128.467H240.608C240.45 128.469 240.3 128.529 240.184 128.636C240.069 128.742 239.998 128.888 239.985 129.045L238.823 142.29C238.815 142.377 238.826 142.465 238.855 142.547C238.883 142.63 238.928 142.706 238.987 142.77C239.047 142.834 239.119 142.885 239.199 142.92C239.279 142.955 239.365 142.973 239.452 142.972Z" fill="url(#paint39_linear_14_2151)"/>
<path opacity="0.3" d="M239.513 141.645H245.048L246.083 129.802H240.548L239.513 141.645Z" fill="white"/>
<path d="M239.152 139.965L240.135 139.462C240.635 139.208 241.097 138.885 241.507 138.502L241.687 137.85C241.583 137.676 241.425 137.541 241.237 137.464C241.049 137.387 240.841 137.372 240.645 137.422L239.827 137.647L235.77 137.955L235.672 139.665L236.857 141.495H237.262C237.709 141.511 238.146 141.365 238.494 141.083C238.841 140.802 239.075 140.405 239.152 139.965Z" fill="#FFB573"/>
<path d="M199.92 136.5C202.732 135.99 222.57 153.188 222.57 153.188L216.69 161.813C216.69 161.813 195 146.708 195.69 143.063C196.357 139.23 195.825 137.25 199.92 136.5Z" fill="#263238"/>
<path opacity="0.2" d="M202.425 141.997L202.208 150.997C204.458 152.745 212.588 158.977 212.588 158.977L202.425 141.997Z" fill="black"/>
<path d="M186.697 315.232L193.35 315.885L195.465 300.457L188.805 299.805L186.697 315.232Z" fill="#FFB573"/>
<path d="M121.2 224.708L119.498 231.188L133.89 237.39L136.875 230.813L121.2 224.708Z" fill="#FFB573"/>
<path d="M198.112 317.25C198.685 317.32 199.264 317.193 199.755 316.89C199.861 316.798 199.943 316.682 199.996 316.551C200.048 316.421 200.068 316.28 200.055 316.14C200.055 316.052 200.031 315.966 199.986 315.891C199.941 315.816 199.877 315.754 199.8 315.712C198.997 315.232 196.282 316.522 195.975 316.665C195.946 316.679 195.921 316.701 195.905 316.729C195.889 316.758 195.882 316.79 195.885 316.822C195.889 316.856 195.904 316.886 195.927 316.911C195.95 316.935 195.98 316.951 196.012 316.957C196.702 317.119 197.405 317.217 198.112 317.25ZM199.32 315.907C199.424 315.899 199.529 315.923 199.62 315.975C199.652 315.991 199.678 316.016 199.697 316.047C199.715 316.077 199.725 316.112 199.725 316.147C199.733 316.241 199.719 316.336 199.684 316.423C199.649 316.51 199.593 316.588 199.522 316.65C199.11 317.002 198.022 317.032 196.522 316.747C197.407 316.306 198.361 316.019 199.342 315.9L199.32 315.907Z" fill="url(#paint40_linear_14_2151)"/>
<path d="M196.043 316.927H196.103C196.913 316.59 198.54 315.195 198.435 314.43C198.406 314.297 198.332 314.178 198.225 314.094C198.119 314.009 197.986 313.963 197.85 313.965C197.694 313.936 197.533 313.941 197.379 313.98C197.225 314.019 197.081 314.09 196.958 314.19C196.095 314.857 195.893 316.665 195.878 316.732C195.871 316.76 195.87 316.788 195.877 316.816C195.883 316.843 195.896 316.869 195.915 316.89C195.933 316.905 195.953 316.916 195.975 316.922C195.997 316.929 196.02 316.93 196.043 316.927ZM197.7 314.25H197.79C198.083 314.295 198.098 314.407 198.098 314.445C198.165 314.902 197.055 316.012 196.223 316.455C196.302 315.695 196.623 314.98 197.138 314.415C197.304 314.295 197.511 314.243 197.715 314.272L197.7 314.25Z" fill="url(#paint41_linear_14_2151)"/>
<path d="M193.02 313.2L187.02 313.455C186.89 313.456 186.766 313.505 186.671 313.592C186.575 313.679 186.515 313.799 186.502 313.928L185.062 322.305C185.054 322.447 185.074 322.59 185.122 322.725C185.169 322.859 185.243 322.983 185.338 323.089C185.434 323.195 185.549 323.281 185.678 323.342C185.807 323.403 185.947 323.438 186.09 323.445H186.21C188.827 323.31 190.087 323.115 193.402 323.003C195.435 322.935 201.652 323.67 204.427 323.04C207.202 322.41 206.677 319.657 205.485 319.68C201.63 319.755 197.182 317.243 194.985 314.303C194.602 314.055 193.44 313.178 193.02 313.2Z" fill="#263238"/>
<path d="M122.557 232.035L125.617 226.838C125.687 226.728 125.712 226.595 125.688 226.468C125.665 226.34 125.594 226.225 125.49 226.148L119.25 220.395C119.018 220.231 118.731 220.165 118.451 220.21C118.171 220.255 117.919 220.407 117.75 220.635L117.682 220.74C116.377 222.99 115.86 224.175 114.157 227.018C113.107 228.765 109.102 233.618 108.157 236.265C107.212 238.913 109.777 240.015 110.407 238.98C112.44 235.695 116.962 233.325 120.637 233.04C120.99 232.905 122.347 232.403 122.557 232.035Z" fill="#263238"/>
<path opacity="0.2" d="M195.465 300.457L194.377 308.415L187.717 307.763L188.797 299.812L195.465 300.457Z" fill="black"/>
<path opacity="0.2" d="M141.3 232.417L138.225 239.355L128.955 235.26L131.318 228.652L141.3 232.417Z" fill="black"/>
<path d="M204.172 144.413C207.975 150.878 203.325 156.33 199.44 175.65L174.375 175.718C174.78 165.308 174.735 156.893 170.295 136.41C170.179 135.905 170.18 135.381 170.296 134.877C170.411 134.372 170.64 133.9 170.964 133.496C171.287 133.092 171.698 132.767 172.166 132.544C172.633 132.321 173.145 132.207 173.662 132.21C175.732 132.21 178.335 132.278 180.982 132.548C185.158 132.889 189.305 133.518 193.395 134.43C195.612 134.965 197.792 135.646 199.92 136.47C201.21 136.905 202.762 140.415 204.172 144.413Z" fill="#263238"/>
<path d="M200.37 176.955C200.37 176.955 214.447 217.657 214.11 237.232C213.915 248.445 213.067 269.34 209.685 284.032C206.925 296.032 195.675 303.682 195.675 303.682L186.675 303.15C186.675 303.15 181.8 284.85 182.647 277.567C184.335 263.07 189.337 252.18 188.73 238.867C187.77 217.072 181.32 176.617 181.32 176.617L200.37 176.955Z" fill="url(#paint42_linear_14_2151)"/>
<path d="M184.867 305.497L197.58 306.247L198.735 302.43L184.53 301.117L184.867 305.497Z" fill="#263238"/>
<path opacity="0.2" d="M186.473 259.185C186.473 259.185 186.473 259.11 186.548 259.117C194.535 259.867 200.048 248.37 198.735 232.627L194.498 192.502L186.473 259.185Z" fill="black"/>
<path d="M194.055 176.618C194.055 176.618 205.245 248.19 181.98 256.245C169.702 260.895 159.375 255.855 147.142 250.44C140.07 247.313 131.235 238.845 131.235 238.845L134.632 229.598C140.743 227.945 147.137 227.623 153.382 228.653C165.307 230.498 165.81 233.903 170.047 231.33C178.957 209.31 163.627 191.903 174.045 176.58L194.055 176.618Z" fill="url(#paint43_linear_14_2151)"/>
<path d="M135.3 227.843L130.755 239.835L134.1 242.393L139.5 228.12L135.3 227.843Z" fill="#263238"/>
<path d="M133.425 163.17C132.292 164.842 126.547 163.71 126.547 163.71L125.325 156.592L132.382 159.42L133.425 163.17Z" fill="#FFB573"/>
<path d="M126.75 156.225L127.845 163.62L123.607 164.25C123.378 164.271 123.148 164.206 122.964 164.067C122.78 163.929 122.653 163.726 122.61 163.5L120.982 158.25C120.955 158.128 120.975 158 121.039 157.892C121.103 157.785 121.207 157.706 121.327 157.672L126.75 156.225Z" fill="#FFB573"/>
<path d="M124.853 159.578L127.268 160.005L129.555 158.288L128.67 157.658C128.07 157.23 127.649 156.598 127.485 155.88C127.315 155.128 127.212 154.363 127.178 153.592V153.337C127.149 153.111 127.047 152.901 126.887 152.738C126.727 152.576 126.518 152.47 126.293 152.438L125.693 152.88C125.318 153.697 125.588 154.65 125.543 155.288L125.445 156.525L124.478 156.945L124.853 159.578Z" fill="#FFB573"/>
<path d="M171.503 135L157.313 154.5L131.25 159.645V163.92C131.25 163.92 155.745 165.735 161.25 162.533C166.755 159.33 175.987 139.905 175.987 139.905L171.503 135Z" fill="#FFB573"/>
<path d="M171.337 97.5C165.382 95.505 158.475 99.2025 155.752 104.857C153.03 110.512 153.982 117.45 157.05 122.925C157.972 124.582 159.075 126.142 159.832 127.875C160.674 129.592 160.858 131.559 160.35 133.402C159.735 135.195 159.105 136.342 156.885 136.057C156.885 136.057 156.885 134.827 157.732 134.977C157.732 134.977 155.932 135.975 155.227 135.322C156.045 136.582 158.227 136.125 158.925 134.79C159.967 132.802 158.047 130.11 155.797 130.132C153.547 130.155 151.717 132.435 151.792 134.677C151.886 135.799 152.285 136.874 152.946 137.785C153.607 138.695 154.505 139.408 155.542 139.845C154.934 139.945 154.31 139.841 153.768 139.55C153.225 139.258 152.794 138.795 152.542 138.232C153.562 140.902 156.892 142.08 159.705 141.555C162.517 141.03 164.895 139.23 167.1 137.407C170.1 134.947 173.167 131.835 173.1 127.987C173.032 125.115 171.187 122.647 169.635 120.225C168.082 117.802 166.725 114.847 167.715 112.155C168.547 109.867 170.812 108.487 172.807 107.092C174.247 106.095 177.172 103.867 176.827 101.76C176.475 99.75 173.025 98.0625 171.337 97.5Z" fill="#263238"/>
<path d="M157.92 164.25L153.99 153.847L154.89 153.922C155.618 153.984 156.348 153.833 156.993 153.49C157.638 153.147 158.171 152.625 158.527 151.987C161.527 146.647 169.275 133.095 171.457 132.42C174.57 131.497 177.772 133.987 178.957 137.67C179.85 140.377 170.707 151.987 166.492 158.587C162.75 164.43 157.92 164.25 157.92 164.25Z" fill="#263238"/>
<path d="M119.587 235.455V235.537C119.643 235.682 119.734 235.81 119.852 235.909C119.97 236.009 120.111 236.077 120.263 236.107C120.353 236.136 120.45 236.141 120.543 236.121C120.637 236.101 120.723 236.058 120.795 235.995C121.425 235.417 121.02 232.995 120.982 232.755C120.978 232.724 120.965 232.695 120.943 232.672C120.921 232.649 120.893 232.633 120.862 232.627C120.833 232.624 120.804 232.627 120.776 232.638C120.749 232.648 120.724 232.665 120.705 232.687C120.195 233.407 119.385 234.69 119.587 235.455ZM120.743 233.205C120.878 234.165 120.938 235.455 120.585 235.77C120.548 235.79 120.507 235.801 120.465 235.801C120.423 235.801 120.382 235.79 120.345 235.77C120.244 235.751 120.15 235.707 120.071 235.641C119.992 235.575 119.932 235.491 119.895 235.395C119.76 234.99 120.045 234.165 120.743 233.19V233.205Z" fill="url(#paint44_linear_14_2151)"/>
<path d="M120.75 233.07C120.945 233.88 121.71 235.26 122.385 235.425C122.508 235.45 122.636 235.432 122.747 235.375C122.859 235.318 122.948 235.224 123 235.11C123.058 235.003 123.093 234.884 123.101 234.762C123.109 234.641 123.089 234.519 123.045 234.405C122.737 233.475 120.967 232.71 120.892 232.672C120.868 232.659 120.841 232.652 120.814 232.652C120.786 232.652 120.759 232.659 120.735 232.672C120.713 232.69 120.696 232.713 120.685 232.74C120.675 232.766 120.671 232.794 120.675 232.822C120.693 232.907 120.718 232.99 120.75 233.07ZM122.79 234.57C122.805 234.636 122.807 234.705 122.795 234.772C122.784 234.839 122.759 234.903 122.722 234.96C122.625 235.14 122.527 235.14 122.452 235.125C121.995 235.035 121.297 233.902 121.072 233.115C121.65 233.407 122.572 233.955 122.767 234.525C122.762 234.54 122.762 234.555 122.767 234.57H122.79Z" fill="url(#paint45_linear_14_2151)"/>
<path d="M174.285 174.45L173.587 176.887C173.497 177.075 173.715 177.27 174.03 177.262H199.905C200.152 177.262 200.355 177.135 200.37 176.985L200.61 174.547C200.61 174.382 200.415 174.232 200.145 174.24H174.72C174.635 174.233 174.55 174.249 174.474 174.286C174.398 174.323 174.332 174.38 174.285 174.45Z" fill="url(#paint46_linear_14_2151)"/>
<path opacity="0.5" d="M174.285 174.45L173.587 176.887C173.497 177.075 173.715 177.27 174.03 177.262H199.905C200.152 177.262 200.355 177.135 200.37 176.985L200.61 174.547C200.61 174.382 200.415 174.232 200.145 174.24H174.72C174.635 174.233 174.55 174.249 174.474 174.286C174.398 174.323 174.332 174.38 174.285 174.45Z" fill="white"/>
<path d="M179.25 177.487H178.5C178.357 177.487 178.237 177.412 178.252 177.322L178.59 174.15C178.59 174.06 178.732 173.985 178.882 173.985H179.632C179.775 173.985 179.887 174.06 179.88 174.157L179.542 177.322C179.497 177.412 179.362 177.495 179.25 177.487Z" fill="url(#paint47_linear_14_2151)"/>
<path d="M197.902 177.487H197.152C197.017 177.487 196.897 177.412 196.912 177.322L197.25 174.157C197.25 174.06 197.385 173.985 197.527 173.985H198.277C198.42 173.985 198.54 174.06 198.525 174.15L198.187 177.315C198.172 177.412 198.052 177.487 197.902 177.487Z" fill="url(#paint48_linear_14_2151)"/>
<path d="M189.345 177.472H188.595C188.452 177.472 188.332 177.397 188.347 177.307L188.685 174.142C188.685 174.045 188.827 173.97 188.97 173.97H189.72C189.862 173.97 189.975 174.045 189.967 174.135L189.622 177.3C189.622 177.397 189.495 177.472 189.345 177.472Z" fill="url(#paint49_linear_14_2151)"/>
<path d="M182.153 118.897C182.948 122.985 183.728 130.365 180.953 132.585C180.953 132.585 182.063 136.777 189.48 137.895C197.67 139.125 193.373 134.46 193.373 134.46C188.91 132.697 189.023 129.472 189.788 126.502L182.153 118.897Z" fill="#FFB573"/>
<path d="M180.982 132.547C184.94 132.798 188.874 133.345 192.75 134.182L198.36 135.855C199.357 137.865 197.722 141.997 193.027 142.785C193.027 142.785 181.2 144.412 177.712 132.232L180.982 132.547Z" fill="#FFB573"/>
<path opacity="0.2" d="M185.25 122.01L189.75 126.51C189.56 127.207 189.437 127.92 189.382 128.64C187.672 128.138 184.927 126.255 184.74 124.455C184.742 123.614 184.915 122.782 185.25 122.01Z" fill="black"/>
<path d="M177.143 113.737C179.153 120.082 179.858 122.812 183.975 125.31C190.11 129.06 197.475 125.22 197.4 118.41C197.34 112.275 194.078 102.93 187.11 101.91C185.579 101.68 184.014 101.847 182.565 102.393C181.115 102.939 179.83 103.847 178.831 105.03C177.832 106.213 177.152 107.633 176.857 109.153C176.561 110.673 176.66 112.244 177.143 113.715V113.737Z" fill="#FFB573"/>
<path d="M192.285 112.747C192.995 113.861 193.855 114.871 194.843 115.747C194.612 115.998 194.329 116.194 194.014 116.324C193.699 116.453 193.36 116.513 193.02 116.497L192.285 112.747Z" fill="#ED893E"/>
<path d="M191.573 119.888C191.826 119.86 192.077 119.809 192.323 119.737C192.342 119.733 192.36 119.725 192.376 119.713C192.392 119.702 192.406 119.688 192.416 119.671C192.427 119.654 192.434 119.635 192.437 119.616C192.44 119.597 192.439 119.577 192.435 119.558C192.424 119.518 192.399 119.484 192.364 119.463C192.329 119.442 192.287 119.436 192.248 119.445C191.607 119.621 190.935 119.646 190.283 119.515C189.632 119.385 189.021 119.104 188.498 118.695C188.467 118.664 188.425 118.647 188.381 118.647C188.338 118.647 188.296 118.664 188.265 118.695C188.25 118.71 188.238 118.727 188.23 118.746C188.222 118.766 188.218 118.787 188.218 118.808C188.218 118.828 188.222 118.849 188.23 118.869C188.238 118.888 188.25 118.905 188.265 118.92C188.726 119.291 189.255 119.567 189.823 119.733C190.39 119.899 190.985 119.951 191.573 119.888Z" fill="#263238"/>
<path d="M174.96 101.07C174.133 101.605 173.447 102.33 172.959 103.185C172.471 104.039 172.195 104.999 172.155 105.983C172.121 106.359 172.18 106.737 172.327 107.085C172.401 107.257 172.519 107.407 172.669 107.518C172.819 107.63 172.996 107.701 173.182 107.723C173.752 107.723 174.172 107.213 174.487 106.733L175.942 104.483C176.541 103.752 177.045 102.948 177.442 102.09C177.93 100.613 175.852 100.5 174.96 101.07Z" fill="url(#paint50_linear_14_2151)"/>
<path d="M175.672 102.563C171.69 107.168 169.905 119.91 181.575 123.465C183.525 121.92 180.375 119.108 179.04 115.553C178.162 113.228 182.61 108.885 184.342 107.1C186.075 105.315 187.672 102.743 190.117 103.155C190.738 103.362 191.406 103.381 192.037 103.208C193.98 102.33 193.035 101.168 192.037 100.358C190.508 99.2252 188.686 98.5538 186.787 98.4225C184.739 98.1812 182.663 98.4308 180.73 99.1507C178.797 99.8706 177.064 101.04 175.672 102.563Z" fill="#263238"/>
<path d="M188.625 101.018C193.312 104.925 187.125 105.023 183.847 107.498C180.705 109.875 182.91 113.768 177.592 115.575C173.25 116.843 172.245 116.078 171.045 115.238C172.532 114.98 173.892 114.238 174.914 113.127C175.935 112.016 176.561 110.598 176.692 109.095C177.06 106.245 183.27 96.4875 188.625 101.018Z" fill="#263238"/>
<path d="M176.438 119.07C177.172 120.128 178.292 120.855 179.558 121.095C181.238 121.388 181.883 119.85 181.305 118.35C180.758 117 179.235 115.223 177.608 115.605C177.048 115.75 176.569 116.111 176.275 116.608C175.981 117.106 175.897 117.7 176.04 118.26C176.117 118.554 176.252 118.83 176.438 119.07Z" fill="#FFB573"/>
<path d="M187.822 101.415C188.73 103.725 191.347 103.417 193.282 105.832C194.475 107.332 196.815 102.705 193.627 100.882C190.44 99.06 186.397 97.8 187.822 101.415Z" fill="#263238"/>
<path d="M185.062 111.165C185.129 111.172 185.196 111.158 185.254 111.124C185.312 111.09 185.358 111.039 185.385 110.977C186 109.612 187.845 109.267 187.86 109.267C187.942 109.249 188.014 109.2 188.062 109.131C188.109 109.061 188.128 108.976 188.115 108.892C188.098 108.811 188.051 108.74 187.982 108.693C187.913 108.647 187.829 108.63 187.747 108.645C187.65 108.645 185.55 109.087 184.8 110.737C184.766 110.814 184.764 110.901 184.793 110.979C184.823 111.058 184.882 111.122 184.957 111.157H185.062V111.165Z" fill="#263238"/>
<path d="M194.813 108.405C194.868 108.409 194.922 108.398 194.971 108.373C195.02 108.347 195.061 108.309 195.09 108.262C195.114 108.229 195.131 108.191 195.14 108.15C195.148 108.11 195.149 108.068 195.141 108.027C195.134 107.987 195.118 107.948 195.095 107.914C195.072 107.879 195.042 107.85 195.008 107.827C194.592 107.54 194.114 107.356 193.613 107.292C193.111 107.228 192.602 107.286 192.128 107.46C192.088 107.475 192.052 107.499 192.022 107.529C191.992 107.559 191.969 107.594 191.953 107.634C191.938 107.673 191.931 107.716 191.932 107.758C191.934 107.8 191.944 107.842 191.963 107.88C191.996 107.956 192.058 108.017 192.135 108.048C192.212 108.078 192.299 108.078 192.375 108.045C192.748 107.915 193.147 107.875 193.538 107.93C193.93 107.985 194.302 108.132 194.625 108.36C194.684 108.388 194.748 108.404 194.813 108.405Z" fill="#263238"/>
<path d="M225.645 149.46L221.25 151.957L216.683 161.782C216.683 161.782 221.093 164.587 224.573 162.315C228.053 160.042 225.645 149.46 225.645 149.46Z" fill="url(#paint51_linear_14_2151)"/>
<path opacity="0.5" d="M225.645 149.46L221.25 151.957L216.683 161.782C216.683 161.782 221.093 164.587 224.573 162.315C228.053 160.042 225.645 149.46 225.645 149.46Z" fill="white"/>
<path d="M148.792 152.497L153.99 153.997L158.917 164.19C158.917 164.19 154.957 167.857 150.667 164.355C147.457 161.7 148.792 152.497 148.792 152.497Z" fill="url(#paint52_linear_14_2151)"/>
<g opacity="0.5">
<path d="M148.792 152.497L153.99 153.997L158.917 164.19C158.917 164.19 154.957 167.857 150.667 164.355C147.457 161.7 148.792 152.497 148.792 152.497Z" fill="white"/>
</g>
<path d="M194.512 110.947C194.872 110.88 195.262 111.285 195.345 111.84C195.427 112.395 195.225 112.905 194.865 112.965C194.505 113.025 194.115 112.627 194.032 112.072C193.95 111.517 194.152 111 194.512 110.947Z" fill="#263238"/>
<path d="M195.622 110.4L194.355 111.022C195.12 111.562 195.622 110.4 195.622 110.4Z" fill="#263238"/>
<path d="M188.25 112.237C188.61 112.17 189 112.575 189.082 113.13C189.165 113.685 188.962 114.195 188.602 114.255C188.242 114.315 187.852 113.917 187.77 113.362C187.687 112.807 187.875 112.305 188.25 112.237Z" fill="#263238"/>
<path d="M189.345 111.69L188.078 112.313C188.843 112.853 189.345 111.69 189.345 111.69Z" fill="#263238"/>
<path d="M156.495 140.932C155.789 140.937 155.089 140.804 154.433 140.542C152.108 139.59 151.028 137.175 151.433 133.905C151.446 133.807 151.497 133.717 151.576 133.657C151.655 133.596 151.754 133.57 151.853 133.582C151.902 133.588 151.949 133.603 151.992 133.628C152.035 133.652 152.073 133.685 152.103 133.724C152.133 133.763 152.155 133.808 152.168 133.856C152.18 133.904 152.182 133.954 152.175 134.002C151.785 136.905 152.7 139.035 154.688 139.845C155.841 140.24 157.09 140.259 158.255 139.901C159.421 139.543 160.443 138.825 161.175 137.85C163.058 135.345 162.443 131.79 159.51 128.1C151.83 118.462 152.34 113.34 153.428 109.29C155.003 103.41 159.615 96.675 172.665 97.9725C172.765 97.9824 172.856 98.0314 172.919 98.1088C172.983 98.1862 173.013 98.2855 173.003 98.385C172.993 98.4844 172.944 98.5758 172.866 98.6391C172.789 98.7024 172.69 98.7324 172.59 98.7225C160.073 97.4775 155.648 103.897 154.148 109.492C153.068 113.542 152.648 118.275 160.095 127.642C164.595 133.29 162.773 136.987 161.775 138.307C161.151 139.116 160.351 139.772 159.437 140.227C158.522 140.682 157.516 140.923 156.495 140.932Z" fill="#263238"/>
<defs>
<linearGradient id="paint0_linear_14_2151" x1="82.0618" y1="155.135" x2="110.602" y2="182.457" gradientUnits="userSpaceOnUse">
<stop stop-color="#195950"/>
<stop offset="1" stop-color="#56B948"/>
</linearGradient>
<linearGradient id="paint1_linear_14_2151" x1="91.6308" y1="152.877" x2="91.6308" y2="156.93" gradientUnits="userSpaceOnUse">
<stop stop-color="#195950"/>
<stop offset="1" stop-color="#56B948"/>
</linearGradient>
<linearGradient id="paint2_linear_14_2151" x1="86.6244" y1="157.484" x2="86.6244" y2="182.76" gradientUnits="userSpaceOnUse">
<stop stop-color="#195950"/>
<stop offset="1" stop-color="#56B948"/>
</linearGradient>
<linearGradient id="paint3_linear_14_2151" x1="102.952" y1="166.88" x2="102.952" y2="184.688" gradientUnits="userSpaceOnUse">
<stop stop-color="#195950"/>
<stop offset="1" stop-color="#56B948"/>
</linearGradient>
<linearGradient id="paint4_linear_14_2151" x1="106.637" y1="154.205" x2="106.637" y2="165.84" gradientUnits="userSpaceOnUse">
<stop stop-color="#195950"/>
<stop offset="1" stop-color="#56B948"/>
</linearGradient>
<linearGradient id="paint5_linear_14_2151" x1="97.5868" y1="152.902" x2="97.5868" y2="154.85" gradientUnits="userSpaceOnUse">
<stop stop-color="#195950"/>
<stop offset="1" stop-color="#56B948"/>
</linearGradient>
<linearGradient id="paint6_linear_14_2151" x1="90.7602" y1="156.299" x2="90.7602" y2="172.725" gradientUnits="userSpaceOnUse">
<stop stop-color="#195950"/>
<stop offset="1" stop-color="#56B948"/>
</linearGradient>
<linearGradient id="paint7_linear_14_2151" x1="92.7358" y1="173.819" x2="92.7358" y2="181.282" gradientUnits="userSpaceOnUse">
<stop stop-color="#195950"/>
<stop offset="1" stop-color="#56B948"/>
</linearGradient>
<linearGradient id="paint8_linear_14_2151" x1="102.379" y1="156.3" x2="102.379" y2="180.96" gradientUnits="userSpaceOnUse">
<stop stop-color="#195950"/>
<stop offset="1" stop-color="#56B948"/>
</linearGradient>
<linearGradient id="paint9_linear_14_2151" x1="94.7454" y1="159.757" x2="94.7454" y2="161.947" gradientUnits="userSpaceOnUse">
<stop stop-color="#195950"/>
<stop offset="1" stop-color="#56B948"/>
</linearGradient>
<linearGradient id="paint10_linear_14_2151" x1="97.0923" y1="162.156" x2="97.0923" y2="177.795" gradientUnits="userSpaceOnUse">
<stop stop-color="#195950"/>
<stop offset="1" stop-color="#56B948"/>
</linearGradient>
<linearGradient id="paint11_linear_14_2151" x1="98.7324" y1="159.72" x2="98.7324" y2="162.6" gradientUnits="userSpaceOnUse">
<stop stop-color="#195950"/>
<stop offset="1" stop-color="#56B948"/>
</linearGradient>
<linearGradient id="paint12_linear_14_2151" x1="97.1261" y1="163.117" x2="97.1261" y2="174.405" gradientUnits="userSpaceOnUse">
<stop stop-color="#195950"/>
<stop offset="1" stop-color="#56B948"/>
</linearGradient>
<linearGradient id="paint13_linear_14_2151" x1="99.273" y1="163.14" x2="99.273" y2="168.466" gradientUnits="userSpaceOnUse">
<stop stop-color="#195950"/>
<stop offset="1" stop-color="#56B948"/>
</linearGradient>
<linearGradient id="paint14_linear_14_2151" x1="97.4846" y1="166.357" x2="97.4846" y2="171.285" gradientUnits="userSpaceOnUse">
<stop stop-color="#195950"/>
<stop offset="1" stop-color="#56B948"/>
</linearGradient>
<linearGradient id="paint15_linear_14_2151" x1="106.356" y1="149.925" x2="106.356" y2="187.702" gradientUnits="userSpaceOnUse">
<stop stop-color="#195950"/>
<stop offset="1" stop-color="#56B948"/>
</linearGradient>
<linearGradient id="paint16_linear_14_2151" x1="170.212" y1="70.4164" x2="170.212" y2="82.8462" gradientUnits="userSpaceOnUse">
<stop stop-color="#195950"/>
<stop offset="1" stop-color="#56B948"/>
</linearGradient>
<linearGradient id="paint17_linear_14_2151" x1="171.05" y1="70.3944" x2="171.05" y2="77.85" gradientUnits="userSpaceOnUse">
<stop stop-color="#195950"/>
<stop offset="1" stop-color="#56B948"/>
</linearGradient>
<linearGradient id="paint18_linear_14_2151" x1="196.785" y1="73.3575" x2="196.785" y2="81.3" gradientUnits="userSpaceOnUse">
<stop stop-color="#195950"/>
<stop offset="1" stop-color="#56B948"/>
</linearGradient>
<linearGradient id="paint19_linear_14_2151" x1="179.422" y1="73.38" x2="179.422" y2="81.3225" gradientUnits="userSpaceOnUse">
<stop stop-color="#195950"/>
<stop offset="1" stop-color="#56B948"/>
</linearGradient>
<linearGradient id="paint20_linear_14_2151" x1="162.116" y1="73.38" x2="162.116" y2="81.3225" gradientUnits="userSpaceOnUse">
<stop stop-color="#195950"/>
<stop offset="1" stop-color="#56B948"/>
</linearGradient>
<linearGradient id="paint21_linear_14_2151" x1="144.765" y1="73.3575" x2="144.765" y2="81.3" gradientUnits="userSpaceOnUse">
<stop stop-color="#195950"/>
<stop offset="1" stop-color="#56B948"/>
</linearGradient>
<linearGradient id="paint22_linear_14_2151" x1="185.76" y1="67.455" x2="185.76" y2="68.205" gradientUnits="userSpaceOnUse">
<stop stop-color="#195950"/>
<stop offset="1" stop-color="#56B948"/>
</linearGradient>
<linearGradient id="paint23_linear_14_2151" x1="195.116" y1="67.455" x2="195.116" y2="68.205" gradientUnits="userSpaceOnUse">
<stop stop-color="#195950"/>
<stop offset="1" stop-color="#56B948"/>
</linearGradient>
<linearGradient id="paint24_linear_14_2151" x1="280.508" y1="91.2824" x2="280.508" y2="134.64" gradientUnits="userSpaceOnUse">
<stop stop-color="#195950"/>
<stop offset="1" stop-color="#56B948"/>
</linearGradient>
<linearGradient id="paint25_linear_14_2151" x1="269.796" y1="96.3824" x2="269.796" y2="101.085" gradientUnits="userSpaceOnUse">
<stop stop-color="#195950"/>
<stop offset="1" stop-color="#56B948"/>
</linearGradient>
<linearGradient id="paint26_linear_14_2151" x1="293.814" y1="96.3824" x2="293.814" y2="101.085" gradientUnits="userSpaceOnUse">
<stop stop-color="#195950"/>
<stop offset="1" stop-color="#56B948"/>
</linearGradient>
<linearGradient id="paint27_linear_14_2151" x1="267.558" y1="120.578" x2="267.558" y2="125.287" gradientUnits="userSpaceOnUse">
<stop stop-color="#195950"/>
<stop offset="1" stop-color="#56B948"/>
</linearGradient>
<linearGradient id="paint28_linear_14_2151" x1="291.556" y1="120.582" x2="291.556" y2="125.287" gradientUnits="userSpaceOnUse">
<stop stop-color="#195950"/>
<stop offset="1" stop-color="#56B948"/>
</linearGradient>
<linearGradient id="paint29_linear_14_2151" x1="299.19" y1="112.567" x2="299.937" y2="112.629" gradientUnits="userSpaceOnUse">
<stop stop-color="#195950"/>
<stop offset="1" stop-color="#56B948"/>
</linearGradient>
<linearGradient id="paint30_linear_14_2151" x1="300.435" y1="100.728" x2="301.182" y2="100.79" gradientUnits="userSpaceOnUse">
<stop stop-color="#195950"/>
<stop offset="1" stop-color="#56B948"/>
</linearGradient>
<linearGradient id="paint31_linear_14_2151" x1="272.933" y1="183.052" x2="272.933" y2="183.802" gradientUnits="userSpaceOnUse">
<stop stop-color="#195950"/>
<stop offset="1" stop-color="#56B948"/>
</linearGradient>
<linearGradient id="paint32_linear_14_2151" x1="282.288" y1="183.052" x2="282.288" y2="183.802" gradientUnits="userSpaceOnUse">
<stop stop-color="#195950"/>
<stop offset="1" stop-color="#56B948"/>
</linearGradient>
<linearGradient id="paint33_linear_14_2151" x1="281.103" y1="150.748" x2="281.103" y2="195.113" gradientUnits="userSpaceOnUse">
<stop stop-color="#195950"/>
<stop offset="1" stop-color="#56B948"/>
</linearGradient>
<linearGradient id="paint34_linear_14_2151" x1="277.835" y1="186.052" x2="277.835" y2="237.263" gradientUnits="userSpaceOnUse">
<stop stop-color="#195950"/>
<stop offset="1" stop-color="#56B948"/>
</linearGradient>
<linearGradient id="paint35_linear_14_2151" x1="76.3358" y1="92.1367" x2="76.3358" y2="128.483" gradientUnits="userSpaceOnUse">
<stop stop-color="#195950"/>
<stop offset="1" stop-color="#56B948"/>
</linearGradient>
<linearGradient id="paint36_linear_14_2151" x1="70.4238" y1="102.337" x2="83.2529" y2="114.619" gradientUnits="userSpaceOnUse">
<stop stop-color="#195950"/>
<stop offset="1" stop-color="#56B948"/>
</linearGradient>
<linearGradient id="paint37_linear_14_2151" x1="69.2172" y1="88.785" x2="69.2172" y2="89.535" gradientUnits="userSpaceOnUse">
<stop stop-color="#195950"/>
<stop offset="1" stop-color="#56B948"/>
</linearGradient>
<linearGradient id="paint38_linear_14_2151" x1="78.5736" y1="88.785" x2="78.5736" y2="89.535" gradientUnits="userSpaceOnUse">
<stop stop-color="#195950"/>
<stop offset="1" stop-color="#56B948"/>
</linearGradient>
<linearGradient id="paint39_linear_14_2151" x1="242.787" y1="128.467" x2="242.787" y2="142.972" gradientUnits="userSpaceOnUse">
<stop stop-color="#195950"/>
<stop offset="1" stop-color="#56B948"/>
</linearGradient>
<linearGradient id="paint40_linear_14_2151" x1="197.972" y1="315.606" x2="197.972" y2="317.269" gradientUnits="userSpaceOnUse">
<stop stop-color="#195950"/>
<stop offset="1" stop-color="#56B948"/>
</linearGradient>
<linearGradient id="paint41_linear_14_2151" x1="197.156" y1="313.946" x2="197.156" y2="316.929" gradientUnits="userSpaceOnUse">
<stop stop-color="#195950"/>
<stop offset="1" stop-color="#56B948"/>
</linearGradient>
<linearGradient id="paint42_linear_14_2151" x1="197.718" y1="176.617" x2="197.718" y2="303.682" gradientUnits="userSpaceOnUse">
<stop stop-color="#195950"/>
<stop offset="1" stop-color="#56B948"/>
</linearGradient>
<linearGradient id="paint43_linear_14_2151" x1="163.99" y1="176.58" x2="163.99" y2="258.077" gradientUnits="userSpaceOnUse">
<stop stop-color="#195950"/>
<stop offset="1" stop-color="#56B948"/>
</linearGradient>
<linearGradient id="paint44_linear_14_2151" x1="120.35" y1="232.626" x2="120.35" y2="236.133" gradientUnits="userSpaceOnUse">
<stop stop-color="#195950"/>
<stop offset="1" stop-color="#56B948"/>
</linearGradient>
<linearGradient id="paint45_linear_14_2151" x1="121.888" y1="232.652" x2="121.888" y2="235.436" gradientUnits="userSpaceOnUse">
<stop stop-color="#195950"/>
<stop offset="1" stop-color="#56B948"/>
</linearGradient>
<linearGradient id="paint46_linear_14_2151" x1="187.088" y1="174.239" x2="187.088" y2="177.263" gradientUnits="userSpaceOnUse">
<stop stop-color="#195950"/>
<stop offset="1" stop-color="#56B948"/>
</linearGradient>
<linearGradient id="paint47_linear_14_2151" x1="179.066" y1="173.985" x2="179.066" y2="177.488" gradientUnits="userSpaceOnUse">
<stop stop-color="#195950"/>
<stop offset="1" stop-color="#56B948"/>
</linearGradient>
<linearGradient id="paint48_linear_14_2151" x1="197.719" y1="173.985" x2="197.719" y2="177.487" gradientUnits="userSpaceOnUse">
<stop stop-color="#195950"/>
<stop offset="1" stop-color="#56B948"/>
</linearGradient>
<linearGradient id="paint49_linear_14_2151" x1="189.157" y1="173.97" x2="189.157" y2="177.472" gradientUnits="userSpaceOnUse">
<stop stop-color="#195950"/>
<stop offset="1" stop-color="#56B948"/>
</linearGradient>
<linearGradient id="paint50_linear_14_2151" x1="174.83" y1="100.752" x2="174.83" y2="107.723" gradientUnits="userSpaceOnUse">
<stop stop-color="#195950"/>
<stop offset="1" stop-color="#56B948"/>
</linearGradient>
<linearGradient id="paint51_linear_14_2151" x1="221.569" y1="149.46" x2="221.569" y2="163.203" gradientUnits="userSpaceOnUse">
<stop stop-color="#195950"/>
<stop offset="1" stop-color="#56B948"/>
</linearGradient>
<linearGradient id="paint52_linear_14_2151" x1="153.717" y1="152.497" x2="153.717" y2="165.87" gradientUnits="userSpaceOnUse">
<stop stop-color="#195950"/>
<stop offset="1" stop-color="#56B948"/>
</linearGradient>
</defs>
</svg>
