<svg width="24" height="24" viewBox="0 0 24 24" fill="none" xmlns="http://www.w3.org/2000/svg">
<path d="M6.7005 18.75H4.15051C2.31051 18.75 1.25049 17.69 1.25049 15.85V4.15002C1.25049 2.31002 2.31051 1.25 4.15051 1.25H8.4505C10.2905 1.25 11.3505 2.31002 11.3505 4.15002V6C11.3505 6.41 11.0105 6.75 10.6005 6.75C10.1905 6.75 9.85046 6.41 9.85046 6V4.15002C9.85046 3.13002 9.4705 2.75 8.4505 2.75H4.15051C3.13051 2.75 2.75049 3.13002 2.75049 4.15002V15.85C2.75049 16.87 3.13051 17.25 4.15051 17.25H6.7005C7.1105 17.25 7.4505 17.59 7.4505 18C7.4505 18.41 7.1105 18.75 6.7005 18.75Z" fill="#808080" fill-opacity="0.8"/>
<path d="M14.9607 22.75H9.12067C7.11067 22.75 5.95068 21.59 5.95068 19.58V8.41998C5.95068 6.40998 7.11067 5.25 9.12067 5.25H14.9607C16.9707 5.25 18.1207 6.40998 18.1207 8.41998V19.58C18.1207 21.59 16.9707 22.75 14.9607 22.75ZM9.12067 6.75C7.92067 6.75 7.45068 7.21998 7.45068 8.41998V19.58C7.45068 20.78 7.92067 21.25 9.12067 21.25H14.9607C16.1507 21.25 16.6207 20.78 16.6207 19.58V8.41998C16.6207 7.21998 16.1507 6.75 14.9607 6.75H9.12067Z" fill="#808080" fill-opacity="0.8"/>
<path d="M19.8503 18.75H17.3704C16.9604 18.75 16.6204 18.41 16.6204 18C16.6204 17.59 16.9604 17.25 17.3704 17.25H19.8503C20.8703 17.25 21.2504 16.87 21.2504 15.85V4.15002C21.2504 3.13002 20.8703 2.75 19.8503 2.75H15.5504C14.5304 2.75 14.1504 3.13002 14.1504 4.15002V6C14.1504 6.41 13.8104 6.75 13.4004 6.75C12.9904 6.75 12.6504 6.41 12.6504 6V4.15002C12.6504 2.31002 13.7104 1.25 15.5504 1.25H19.8503C21.6903 1.25 22.7504 2.31002 22.7504 4.15002V15.85C22.7504 17.69 21.6903 18.75 19.8503 18.75Z" fill="#808080" fill-opacity="0.8"/>
<path d="M14.0005 11.75H10.0005C9.59049 11.75 9.25049 11.41 9.25049 11C9.25049 10.59 9.59049 10.25 10.0005 10.25H14.0005C14.4105 10.25 14.7505 10.59 14.7505 11C14.7505 11.41 14.4105 11.75 14.0005 11.75Z" fill="#808080" fill-opacity="0.8"/>
<path d="M14.0005 14.75H10.0005C9.59049 14.75 9.25049 14.41 9.25049 14C9.25049 13.59 9.59049 13.25 10.0005 13.25H14.0005C14.4105 13.25 14.7505 13.59 14.7505 14C14.7505 14.41 14.4105 14.75 14.0005 14.75Z" fill="#808080" fill-opacity="0.8"/>
<path d="M12.0005 22.75C11.5905 22.75 11.2505 22.41 11.2505 22V19C11.2505 18.59 11.5905 18.25 12.0005 18.25C12.4105 18.25 12.7505 18.59 12.7505 19V22C12.7505 22.41 12.4105 22.75 12.0005 22.75Z" fill="#808080" fill-opacity="0.8"/>
</svg>
