<svg width="24" height="24" viewBox="0 0 24 24" fill="none" xmlns="http://www.w3.org/2000/svg">
<path d="M10.6 4.14976C10.6 4.33976 10.44 4.49976 10.25 4.49976H9.12003C6.96003 4.49976 5.20003 6.25976 5.20003 8.41976V17.6498C5.20003 17.8398 5.04003 17.9998 4.85003 17.9998H4.15003C2.96003 17.9998 2.00003 17.0398 2.00003 15.8498V4.14976C2.00003 2.95976 2.96003 1.99976 4.15003 1.99976H8.45003C9.64003 1.99976 10.6 2.95976 10.6 4.14976Z" fill="white"/>
<path d="M22 4.14976V15.8498C22 17.0398 21.04 17.9998 19.85 17.9998H19.22C19.03 17.9998 18.87 17.8398 18.87 17.6498V8.41976C18.87 6.25976 17.11 4.49976 14.95 4.49976H13.75C13.56 4.49976 13.4 4.33976 13.4 4.14976C13.4 2.95976 14.36 1.99976 15.55 1.99976H19.85C21.04 1.99976 22 2.95976 22 4.14976Z" fill="white"/>
<path d="M14.95 6H9.11998C7.77998 6 6.69998 7.08 6.69998 8.42V19.58C6.69998 20.92 7.77998 22 9.11998 22H10.75C11.03 22 11.25 21.78 11.25 21.5V19C11.25 18.59 11.59 18.25 12 18.25C12.41 18.25 12.75 18.59 12.75 19V21.5C12.75 21.78 12.97 22 13.25 22H14.96C16.29 22 17.37 20.92 17.37 19.59V8.42C17.37 7.08 16.29 6 14.95 6ZM14 14.75H9.99998C9.58998 14.75 9.24998 14.41 9.24998 14C9.24998 13.59 9.58998 13.25 9.99998 13.25H14C14.41 13.25 14.75 13.59 14.75 14C14.75 14.41 14.41 14.75 14 14.75ZM14 11.75H9.99998C9.58998 11.75 9.24998 11.41 9.24998 11C9.24998 10.59 9.58998 10.25 9.99998 10.25H14C14.41 10.25 14.75 10.59 14.75 11C14.75 11.41 14.41 11.75 14 11.75Z" fill="white"/>
</svg>
