<svg width="20" height="20" viewBox="0 0 20 20" fill="none" xmlns="http://www.w3.org/2000/svg">
<path d="M12.5 18.9582H7.49996C2.97496 18.9582 1.04163 17.0248 1.04163 12.4998V7.49984C1.04163 2.97484 2.97496 1.0415 7.49996 1.0415H9.16663C9.50829 1.0415 9.79163 1.32484 9.79163 1.6665C9.79163 2.00817 9.50829 2.2915 9.16663 2.2915H7.49996C3.65829 2.2915 2.29163 3.65817 2.29163 7.49984V12.4998C2.29163 16.3415 3.65829 17.7082 7.49996 17.7082H12.5C16.3416 17.7082 17.7083 16.3415 17.7083 12.4998V10.8332C17.7083 10.4915 17.9916 10.2082 18.3333 10.2082C18.675 10.2082 18.9583 10.4915 18.9583 10.8332V12.4998C18.9583 17.0248 17.025 18.9582 12.5 18.9582Z" fill="#56B948"/>
<path d="M7.08348 14.742C6.57515 14.742 6.10848 14.5586 5.76681 14.2253C5.35848 13.817 5.18348 13.2253 5.27515 12.6003L5.63348 10.092C5.70015 9.60863 6.01681 8.98363 6.35848 8.64196L12.9251 2.07529C14.5835 0.41696 16.2668 0.41696 17.9251 2.07529C18.8335 2.98363 19.2418 3.90863 19.1585 4.83363C19.0835 5.58363 18.6835 6.31696 17.9251 7.06696L11.3585 13.6336C11.0168 13.9753 10.3918 14.292 9.90848 14.3586L7.40015 14.717C7.29181 14.742 7.18348 14.742 7.08348 14.742ZM13.8085 2.95863L7.24181 9.52529C7.08348 9.68363 6.90015 10.0503 6.86681 10.267L6.50848 12.7753C6.47515 13.017 6.52515 13.217 6.65015 13.342C6.77515 13.467 6.97515 13.517 7.21681 13.4836L9.72515 13.1253C9.94181 13.092 10.3168 12.9086 10.4668 12.7503L17.0335 6.18363C17.5751 5.64196 17.8585 5.15863 17.9001 4.70863C17.9501 4.16696 17.6668 3.59196 17.0335 2.95029C15.7001 1.61696 14.7835 1.99196 13.8085 2.95863Z" fill="#56B948"/>
<path d="M16.5417 8.19173C16.4833 8.19173 16.425 8.1834 16.375 8.16673C14.1833 7.55006 12.4417 5.8084 11.825 3.61673C11.7333 3.2834 11.925 2.94173 12.2583 2.84173C12.5917 2.75006 12.9333 2.94173 13.025 3.27506C13.525 5.05006 14.9333 6.4584 16.7083 6.9584C17.0417 7.05006 17.2333 7.40006 17.1417 7.7334C17.0667 8.01673 16.8167 8.19173 16.5417 8.19173Z" fill="#56B948"/>
</svg>
