<svg width="24" height="24" viewBox="0 0 24 24" fill="none" xmlns="http://www.w3.org/2000/svg">
<path d="M5.15051 22.75C4.74051 22.75 4.40051 22.41 4.40051 22V2C4.40051 1.59 4.74051 1.25 5.15051 1.25C5.56051 1.25 5.90051 1.59 5.90051 2V22C5.90051 22.41 5.56051 22.75 5.15051 22.75Z" fill="#808080" fill-opacity="0.8"/>
<path d="M16.3505 16.75H5.15051C4.74051 16.75 4.40051 16.41 4.40051 16C4.40051 15.59 4.74051 15.25 5.15051 15.25H16.3505C17.4405 15.25 17.9505 14.96 18.0505 14.71C18.1505 14.46 18.0005 13.9 17.2205 13.13L16.0205 11.93C15.5305 11.5 15.2305 10.85 15.2005 10.13C15.1705 9.37 15.4705 8.62 16.0205 8.07L17.2205 6.87C17.9605 6.13 18.1905 5.53 18.0805 5.27C17.9705 5.01 17.4005 4.75 16.3505 4.75H5.15051C4.73051 4.75 4.40051 4.41 4.40051 4C4.40051 3.59 4.74051 3.25 5.15051 3.25H16.3505C18.5405 3.25 19.2405 4.16 19.4705 4.7C19.6905 5.24 19.8405 6.38 18.2805 7.94L17.0805 9.14C16.8305 9.39 16.6905 9.74 16.7005 10.09C16.7105 10.39 16.8305 10.66 17.0405 10.85L18.2805 12.08C19.8105 13.61 19.6605 14.75 19.4405 15.3C19.2105 15.83 18.5005 16.75 16.3505 16.75Z" fill="#808080" fill-opacity="0.8"/>
</svg>
