<svg width="25" height="25" viewBox="0 0 25 25" fill="none" xmlns="http://www.w3.org/2000/svg">
<path d="M21.64 10.4004H13.18V14.0704L14.75 12.5004C15.04 12.2104 15.52 12.2104 15.81 12.5004C16.1 12.7904 16.1 13.2704 15.81 13.5604L12.96 16.4004C12.67 16.6904 12.19 16.6904 11.9 16.4004L9.05 13.5604C8.9 13.4104 8.83 13.2204 8.83 13.0304C8.83 12.8404 8.91 12.6504 9.06 12.5004C9.35 12.2104 9.83 12.2104 10.12 12.5004L11.68 14.0604V10.4004H3.36C2.88 10.4004 2.5 10.7804 2.5 11.2604C2.5 17.1504 6.61 21.2604 12.5 21.2604C18.39 21.2604 22.5 17.1504 22.5 11.2604C22.5 10.7804 22.12 10.4004 21.64 10.4004Z" fill="white"/>
<path d="M13.18 4.49023C13.18 4.08023 12.84 3.74023 12.43 3.74023C12.02 3.74023 11.68 4.08023 11.68 4.49023V10.3902H13.18V4.49023Z" fill="white"/>
</svg>
