<svg width="24" height="24" viewBox="0 0 24 24" fill="none" xmlns="http://www.w3.org/2000/svg">
<path d="M16 22.7517H7.99998C3.37998 22.7517 2.51998 20.6017 2.29998 18.5117L1.54998 10.5017C1.43998 9.45172 1.40998 7.90172 2.44998 6.74172C3.34998 5.74172 4.83998 5.26172 6.99998 5.26172H17C19.17 5.26172 20.66 5.75172 21.55 6.74172C22.59 7.90172 22.56 9.45172 22.45 10.5117L21.7 18.5017C21.48 20.6017 20.62 22.7517 16 22.7517ZM6.99998 6.75172C5.30998 6.75172 4.14998 7.08172 3.55998 7.74172C3.06998 8.28172 2.90998 9.11172 3.03998 10.3517L3.78998 18.3617C3.95998 19.9417 4.38998 21.2517 7.99998 21.2517H16C19.6 21.2517 20.04 19.9417 20.21 18.3517L20.96 10.3617C21.09 9.11172 20.93 8.28172 20.44 7.74172C19.85 7.08172 18.69 6.75172 17 6.75172H6.99998Z" fill="black"/>
<path d="M16 6.75C15.59 6.75 15.25 6.41 15.25 6V5.2C15.25 3.42 15.25 2.75 12.8 2.75H11.2C8.75 2.75 8.75 3.42 8.75 5.2V6C8.75 6.41 8.41 6.75 8 6.75C7.59 6.75 7.25 6.41 7.25 6V5.2C7.25 3.44 7.25 1.25 11.2 1.25H12.8C16.75 1.25 16.75 3.44 16.75 5.2V6C16.75 6.41 16.41 6.75 16 6.75Z" fill="black"/>
<path d="M12 16.75C9.25 16.75 9.25 15.05 9.25 14.03V13C9.25 11.59 9.59 11.25 11 11.25H13C14.41 11.25 14.75 11.59 14.75 13V14C14.75 15.04 14.75 16.75 12 16.75ZM10.75 12.75C10.75 12.83 10.75 12.92 10.75 13V14.03C10.75 15.06 10.75 15.25 12 15.25C13.25 15.25 13.25 15.09 13.25 14.02V13C13.25 12.92 13.25 12.83 13.25 12.75C13.17 12.75 13.08 12.75 13 12.75H11C10.92 12.75 10.83 12.75 10.75 12.75Z" fill="black"/>
<path d="M14 14.7683C13.63 14.7683 13.3 14.4883 13.26 14.1083C13.21 13.6983 13.5 13.3183 13.91 13.2683C16.55 12.9383 19.08 11.9383 21.21 10.3883C21.54 10.1383 22.01 10.2183 22.26 10.5583C22.5 10.8883 22.43 11.3583 22.09 11.6083C19.75 13.3083 16.99 14.3983 14.09 14.7683C14.06 14.7683 14.03 14.7683 14 14.7683Z" fill="black"/>
<path d="M9.99999 14.7809C9.96999 14.7809 9.93999 14.7809 9.90999 14.7809C7.16999 14.4709 4.49999 13.4709 2.18999 11.8909C1.84999 11.6609 1.75999 11.1909 1.98999 10.8509C2.21999 10.5109 2.68999 10.4209 3.02999 10.6509C5.13999 12.0909 7.56999 13.0009 10.07 13.2909C10.48 13.3409 10.78 13.7109 10.73 14.1209C10.7 14.5009 10.38 14.7809 9.99999 14.7809Z" fill="black"/>
</svg>
