<svg width="280" height="160" viewBox="0 0 280 160" fill="none" xmlns="http://www.w3.org/2000/svg">
<path d="M10.6506 85.6083H10.4087C8.21818 85.5363 7.12733 85.3122 7.12733 84.944V84.6119L7.43083 84.2237C11.9306 82.5269 15.1284 79.9857 17.0374 76.592C19.4302 76.9242 21.0093 77.1643 21.779 77.3124V77.2003C22.5884 77.2003 23.3581 75.8157 24.0883 73.0503C24.0883 72.5701 23.7232 71.7417 22.9931 70.5611C20.3583 67.6838 17.7059 66.043 15.0316 65.6388C13.2062 65.8589 12.2957 66.5993 12.2957 67.8519V67.9639C12.2957 68.5162 12.3968 69.0884 12.5992 69.6767C11.869 71.0774 11.5039 72.314 11.5039 73.3825C11.5039 74.8592 12.8411 75.8517 15.5154 76.3679C14.3806 77.6966 12.9819 78.8771 11.3192 79.9096C7.54959 81.7545 5.66699 83.7995 5.66699 86.0486V86.2126C5.66699 87.7614 6.88101 88.5337 9.31343 88.5337C11.0553 88.5337 12.4144 88.3697 13.3865 88.0375C17.033 87.4492 20.4155 86.0446 23.5385 83.8355L23.4153 83.6154C17.618 84.944 13.3645 85.6083 10.6506 85.6083ZM18.4933 71.0614V70.7852C20.9653 72.0378 22.2013 73.2024 22.2013 74.2709V74.491C21.7966 74.419 20.4375 74.2509 18.1282 73.9948C18.3701 73.1104 18.4933 72.1339 18.4933 71.0614ZM13.083 72.5541V71.9458C13.9759 70.7652 14.7017 70.177 15.2735 70.177H15.3967C16.3292 70.177 16.7954 71.0454 16.7954 72.7782L16.6151 73.4985C14.7501 73.4985 13.5757 73.1864 13.0874 72.5581L13.083 72.5541Z" fill="white"/>
<path d="M65.1974 59.5279C63.0157 65.871 61.9248 69.8969 61.9248 71.6097C61.9248 74.295 62.6506 75.6356 64.1065 75.6356C65.1754 75.6356 66.3278 74.4511 67.5682 72.0739H67.6958L67.9509 72.4221C66.9656 77.3645 65.5141 79.8336 63.5875 79.8336H62.9453C61.5333 79.8336 60.5481 78.9972 59.9938 77.3244C59.8663 76.5841 59.8003 76.0198 59.8003 75.6316V73.5306C59.8003 69.4447 61.4893 64.7784 64.8675 59.5239H65.1886L65.1974 59.5279Z" fill="white"/>
<path d="M67.9554 105.786C63.957 111.345 61.7005 114.951 61.1859 116.595C60.381 119.177 60.6801 120.649 62.0788 121.009C63.1081 121.274 64.5728 120.421 66.4774 118.444L66.6006 118.476L66.7413 118.876C64.3133 123.387 62.1756 125.404 60.3238 124.923L59.708 124.763C58.3488 124.411 57.6538 123.363 57.623 121.618C57.7198 120.873 57.8298 120.317 57.9441 119.941L58.5731 117.92C59.796 113.99 62.8222 109.916 67.6474 105.702L67.9554 105.782V105.786Z" fill="white"/>
<path d="M262.008 115.555C261.665 114.478 261.269 113.89 260.821 113.794L260.411 113.706C259.84 113.582 259.158 113.994 258.357 114.938L258.225 114.838L258.001 114.79C257.926 114.774 257.632 114.995 257.117 115.455C256.294 116.395 255.511 117.084 254.768 117.516C253.009 118.632 247.739 119.833 238.968 121.113L238.916 121.318C239.734 121.402 242.377 121.454 246.851 121.474C249.45 121.157 252.164 120.237 255.006 118.712C255.925 118.008 256.681 117.22 257.28 116.347C258.344 117.772 259.197 118.552 259.844 118.692L260.214 118.772C261.032 118.452 261.586 117.736 261.876 116.631C261.916 116.475 261.96 116.115 262.004 115.551L262.008 115.555ZM261.089 117.248C260.741 117.172 260.161 116.687 259.351 115.795C259.62 115.567 259.906 115.487 260.2 115.551L260.275 115.567C260.794 115.679 261.089 116.151 261.159 116.975L261.089 117.248Z" fill="white"/>
<path d="M261.618 54.2539L261.99 54.5442L262.81 55.123C263.027 54.4492 263.181 53.727 263.261 52.9531L263.263 52.9423L261.618 54.2539ZM261.618 54.2539C261.763 54.0375 261.947 53.7471 262.125 53.4215C262.314 53.0758 262.502 52.6783 262.629 52.2799C262.633 52.2661 262.637 52.2523 262.642 52.2384L263.306 52.5675C263.296 52.6714 263.286 52.7556 263.279 52.8168C263.274 52.8559 263.27 52.8857 263.268 52.9051L263.265 52.9264L263.264 52.9311L263.264 52.9316L263.264 52.9317L263.264 52.9318L261.618 54.2539ZM250.453 62.8907L250.598 63.0045L250.748 63.6256H250.752H250.995L251.081 63.5167C255.362 61.3123 257.93 59.1063 259.435 57.4275C260.193 56.5816 260.681 55.8711 260.981 55.3645C261.031 55.2806 261.076 55.2023 261.115 55.13L261.383 55.3395L261.393 55.3471L261.403 55.3542L262.444 56.0886C261.136 59.0667 258.558 60.9911 255.994 62.2269C254.312 63.0372 252.659 63.5391 251.423 63.8383C250.807 63.9877 250.296 64.086 249.941 64.1468C249.851 64.1622 249.772 64.1752 249.703 64.186C249.984 63.735 250.233 63.3031 250.453 62.8907ZM261.247 52.9421C261.1 53.2116 260.947 53.457 260.82 53.6493L258.345 51.8333L258.335 51.8258L258.326 51.8199L258.326 51.8198L258.326 51.8197L258.326 51.8196L258.325 51.8194L258.321 51.8162C258.317 51.814 258.313 51.8108 258.307 51.8067C258.303 51.8038 258.299 51.8004 258.293 51.7966C258.268 51.7781 258.231 51.7495 258.188 51.7123C258.098 51.6361 257.992 51.5326 257.907 51.4142C257.819 51.2938 257.771 51.1827 257.759 51.0874C257.748 51.0071 257.759 50.9092 257.85 50.7811L257.957 50.6297L257.94 50.4449C257.788 48.8161 258.198 47.5882 258.784 46.7956C259.381 45.9867 260.125 45.6631 260.662 45.711L260.761 45.7199L260.857 45.6898C261.339 45.5375 261.742 45.6819 262.088 46.0733C262.454 46.4877 262.732 47.1675 262.836 47.9742L262.844 48.0341L262.866 48.0905C263.26 49.1113 263.365 50.3137 263.365 51.2859C263.365 51.352 263.365 51.4169 263.364 51.4803L262.772 51.1869C262.768 51.1444 262.761 51.1021 262.753 51.0601L262.751 51.0378C262.747 51.009 262.742 50.9686 262.734 50.9184C262.719 50.8182 262.695 50.678 262.658 50.513C262.584 50.1868 262.456 49.7465 262.236 49.3239C262.019 48.9045 261.692 48.4638 261.202 48.1928C260.694 47.912 260.073 47.8481 259.353 48.0784L259.341 48.0821L259.33 48.0864C258.953 48.2276 258.719 48.5055 258.652 48.8543C258.593 49.1569 258.671 49.4537 258.752 49.668C258.837 49.8932 258.953 50.096 259.042 50.2369C259.088 50.3088 259.128 50.3681 259.158 50.4101C259.173 50.4311 259.186 50.448 259.195 50.4602L259.206 50.4749L259.21 50.4795L259.211 50.4811L259.211 50.4817L259.212 50.482C259.212 50.4821 259.212 50.4822 259.606 50.1754L259.212 50.4822L259.282 50.5725L259.384 50.6233L261.73 51.7861C261.715 51.8467 261.697 51.9106 261.676 51.9777C261.576 52.2922 261.419 52.6275 261.247 52.9421ZM251.593 51.3647C251.6 51.3679 251.609 51.3715 251.618 51.3755C251.67 51.3984 251.749 51.4352 251.844 51.4877C252.035 51.5934 252.286 51.7592 252.527 51.9981C252.999 52.4642 253.452 53.2224 253.321 54.4358L253.315 54.4899L253.321 54.5439C253.698 57.9822 251.959 60.7083 250.752 62.3083C252.165 59.4256 252.115 57.5901 252 56.8917C252.26 55.5877 252.176 54.7185 251.804 54.1635C251.408 53.5722 250.795 53.4896 250.429 53.4817C250.205 53.4582 250.003 53.4894 249.823 53.5599C250.007 52.4419 250.398 51.9097 250.718 51.6552C250.955 51.4661 251.192 51.3969 251.369 51.3733C251.457 51.3614 251.53 51.3614 251.576 51.3637C251.582 51.364 251.588 51.3643 251.593 51.3647ZM265.656 56.0892C265.676 56.4719 265.667 56.8381 265.65 57.1277L263.663 55.7253C263.925 54.9817 264.118 54.1812 264.226 53.3197C264.334 53.4322 264.446 53.5143 264.523 53.5703C264.529 53.5748 264.535 53.5791 264.54 53.5833C264.55 53.5901 264.559 53.5967 264.567 53.6031C264.674 53.6812 264.731 53.7231 264.771 53.7637L264.767 53.9871L264.997 54.1387C265.176 54.2568 265.336 54.4906 265.455 54.8595C265.573 55.2216 265.633 55.6556 265.656 56.0892ZM251.548 51.3469C251.548 51.3468 251.548 51.3468 251.548 51.3469L251.548 51.3469Z" fill="white" stroke="white"/>
<path d="M141.72 45.3971C142.674 45.3971 143.695 46.2815 144.79 48.0464C144.896 48.2064 144.948 48.4466 144.948 48.7667V49.0549C144.561 50.8197 144.135 51.7041 143.677 51.7041C143.537 51.7041 142.828 51.1118 141.562 49.9233L140.77 49.6351C139.358 49.6351 137.964 53.4049 136.591 60.9485C135.672 63.2897 134.968 64.4622 134.475 64.4622C134.159 64.4622 133.842 63.3377 133.521 61.0926C132.074 57.1787 130.789 54.6415 129.659 53.489H129.131L128.339 54.0652H127.864C126.804 54.0652 125.625 53.1368 124.319 51.2719V50.9838C125.414 48.9308 126.276 47.7102 126.91 47.326H127.227C130.754 47.326 133.38 50.9838 135.109 58.2993V58.4433H135.267C136.785 49.7472 138.936 45.3971 141.72 45.3971Z" fill="white"/>
<path d="M166.651 73.2545C165.965 71.6137 165.059 70.069 164.096 68.5562C163.335 67.3557 162.649 66.0871 161.721 64.9865C160.77 63.854 159.653 62.8135 158.554 61.805C157.098 60.4644 155.426 59.1718 153.187 59.3758C150.636 59.612 148.916 61.1127 147.46 62.8175C145.63 64.9545 144.029 67.2476 142.485 69.5647C141.06 71.7057 139.807 73.9428 139.151 76.388C138.584 78.505 138.443 80.694 139.446 82.671C141.751 87.2132 146.013 89.6863 151.133 90.9509C153.077 91.4352 155.167 91.4032 156.574 89.6103C157.146 88.882 157.722 88.1616 158.347 87.3852C158.567 87.5893 158.795 87.7014 158.835 87.8615C159.183 89.2141 159.728 90.5708 159.768 91.9354C159.855 95.6292 157.986 98.7227 155.615 101.56C153.847 103.681 151.758 105.562 149.281 107.007C147.091 108.287 144.812 109.444 142.565 110.648C142.266 110.748 141.966 110.848 141.663 110.949C139.292 111.617 136.961 112.457 134.542 112.909C131.647 113.458 128.678 113.894 125.74 112.985C124.786 112.693 123.897 112.193 124.011 111.217C124.165 109.952 124.442 108.651 124.975 107.483C125.898 105.45 127.165 103.549 128.089 101.516C128.766 100.027 129.149 98.4305 129.62 96.8658C129.813 96.2335 129.474 95.6812 128.832 95.5291C128.384 95.4211 127.667 95.5171 127.367 95.7933C126.752 96.3615 126.039 96.8218 125.67 97.6942C125.071 99.1229 124.117 100.423 123.277 101.764C122.767 102.573 122.252 103.385 121.645 104.133C117.299 109.46 110.363 112.849 103.246 113.95C98.7062 114.65 94.2681 114.534 90.1202 112.429C86.8344 110.76 84.8727 107.691 84.0457 104.429C83.1176 100.748 83.7862 96.9978 83.9358 93.2761C84.0105 91.4032 84.0457 89.8624 83.2452 88.0856C82.2159 85.8085 80.175 83.7595 77.4786 83.0832C74.1929 82.2588 70.5904 83.5514 67.6302 84.768C63.7418 86.3647 60.3021 88.5698 57.2627 91.2711C52.6354 95.3811 48.7778 100.251 45.2941 105.19C45.0038 105.602 44.7047 106.01 44.4056 106.414L42.8221 108.663L40.57 111.865L40.5524 111.889C39.9586 112.645 39.3692 113.398 38.7798 114.154C36.8136 116.679 34.9134 119.248 32.8725 121.722C31.4473 123.45 29.8287 125.043 28.2979 126.7C27.9944 126.944 27.6865 127.192 27.3874 127.436C25.2673 129.269 23.0416 130.99 20.3673 132.111C15.4101 134.196 11.5657 133.219 8.29755 129.117C6.04987 126.292 5.17894 123.01 4.87104 119.593C4.44438 114.902 5.03379 110.28 6.08065 105.686C6.12464 105.49 5.99268 105.258 5.9443 105.042C4.08369 108.499 2.22748 111.965 0.366876 115.423C0.26131 117.372 0.133753 119.321 0.0457809 121.269C-0.16975 125.976 0.353682 130.586 2.08673 135.064C3.28315 138.154 5.05138 140.851 7.69494 143.104C11.3678 146.225 15.2561 146.786 19.7471 144.773C23.3627 143.156 26.0943 140.587 28.7026 137.905C32.7317 133.775 36.0923 129.189 39.3604 124.547C40.3325 123.162 43.671 118.456 45.624 115.695C45.712 115.487 46.2046 114.806 46.8644 113.942C46.8864 113.914 46.904 113.89 46.9304 113.862C48.2544 112.137 50.2205 109.72 51.0167 108.739C51.1091 108.631 51.1838 108.539 51.241 108.467C51.2674 108.431 51.2938 108.399 51.3158 108.375C51.3334 108.351 51.3466 108.331 51.3598 108.319C51.3686 108.303 51.3774 108.299 51.3774 108.299C53.1368 106.206 54.9886 104.193 57.1791 102.436C60.3241 99.9112 63.7374 97.8542 67.9689 97.1859C71.7385 96.5896 73.6518 98.3185 74.0389 101.392C74.4788 104.838 74.3864 108.335 74.5228 111.813C74.5756 112.009 74.6327 112.209 74.6943 112.401C74.8659 113.214 75.0154 114.034 75.2178 114.838C76.3878 119.477 78.5299 123.551 83.1176 126.22C83.2232 126.336 83.32 126.452 83.4211 126.564C83.9665 126.744 84.5296 126.88 85.0486 127.108C87.8461 128.341 90.8328 128.673 93.8634 128.509C96.9952 128.341 100.052 127.805 103.043 126.788C107.327 125.343 111.352 123.595 114.686 120.685C115.21 120.233 115.804 119.817 116.419 119.481C117.229 119.04 117.902 119.292 118.056 120.141C118.17 120.785 118.082 121.466 118.086 122.134C118.091 123.479 117.915 124.811 119.3 125.852C121.359 127.404 123.743 127.616 126.228 127.5C130.279 127.32 134.005 126.048 137.638 124.539C142.147 122.674 146.048 120.037 149.277 116.615C150.79 115.01 152.268 113.37 153.689 111.693C154.78 110.4 155.778 109.044 156.781 107.695C159.218 104.417 161.347 100.96 163.3 97.426C165.059 94.2325 166.942 90.975 167.632 87.4293C168.059 85.2362 168.468 82.9991 168.459 80.7901C168.45 78.2209 167.632 75.6436 166.634 73.2625L166.651 73.2545ZM42.8705 113.706C42.8705 113.678 42.8705 113.65 42.8793 113.618L43.0024 113.714C42.9541 113.71 42.9145 113.702 42.8705 113.702V113.706Z" fill="white"/>
<path d="M279.664 101.244C279.321 102.116 278.754 102.953 278.195 103.725C276.994 105.382 275.741 107.011 274.439 108.603C273.106 110.236 271.778 112.081 270.185 113.51C267.652 115.787 264.102 110.584 262.945 109.1C259.453 104.614 253.352 101.912 247.317 102.18C246.195 102.232 245.043 102.388 244.071 102.909C242.808 103.589 242.021 104.794 241.251 105.934C233.805 116.971 222.205 126.656 208.086 128.289C205.658 128.569 203.094 128.585 200.885 127.633C198.673 126.68 196.94 124.531 197.283 122.326C197.446 121.274 197.89 119.877 196.848 119.393C196.104 119.048 195.246 119.557 194.595 120.029C188.363 124.555 181.197 128.381 173.289 129.321C165.38 130.262 156.644 127.837 152.013 121.926C150.649 120.185 149.651 118.052 150.042 115.947C150.244 114.846 150.816 113.83 151.375 112.837C153.803 108.535 156.235 104.233 158.663 99.9313C158.267 104.75 161.822 109.372 166.554 111.573C171.283 113.77 176.931 113.838 182.108 112.761C192.673 110.564 201.902 103.593 206.217 94.5447C206.81 93.3041 207.848 91.7594 209.287 92.1156C210.927 92.5238 210.624 94.7168 209.955 96.1415C208.209 99.8593 206.458 103.581 204.712 107.299C204.189 108.411 203.687 109.772 204.466 110.756C204.919 111.329 205.702 111.601 206.445 111.797C213.545 113.67 221.343 111.485 227.383 107.603C233.422 103.721 238.027 98.3065 242.523 92.964C247.018 87.6214 251.592 82.1908 257.592 78.2609C258.032 77.9728 258.516 77.6807 259.057 77.6847C260.209 77.6927 260.794 78.9093 261.212 79.8857C264.19 86.825 272.244 90.5988 277.914 95.9734C278.807 96.8178 279.673 97.7623 279.924 98.9108C280.095 99.6992 279.963 100.48 279.664 101.236V101.244Z" fill="white"/>
<path d="M208.9 85.2645C208.873 85.2525 208.842 85.2405 208.816 85.2285C209.177 83.2876 209.991 81.4147 211.187 79.7699C212.419 78.0771 214.147 76.2562 213.562 74.2953C213.056 72.5945 211.029 71.714 209.177 71.1938C207.109 70.6135 204.989 70.2133 202.847 69.9492C201.338 69.7611 199.711 69.601 198.567 68.6846C197.397 67.7441 197.019 66.1874 197.221 64.7787C197.424 63.37 198.119 62.0654 198.805 60.7888C199.83 58.8839 200.855 56.979 201.88 55.0741C202.35 54.1977 202.834 53.2692 202.75 52.2967C202.645 51.0682 201.638 50.0397 200.476 49.4074C198.233 48.1868 195.484 48.1588 192.924 47.6825C190.364 47.2103 187.597 45.9337 187.03 43.6126C186.74 42.432 187.091 41.2034 187.501 40.0509C188.424 37.4536 189.66 34.9605 190.892 32.4713C191.125 32.003 191.376 31.5148 191.833 31.2107C192.401 30.8385 193.153 30.8345 193.852 30.8665C198.444 31.1026 202.957 32.4873 206.766 34.8284C208.403 35.8329 209.964 37.0775 210.703 38.7383C211.618 40.8032 211.117 43.1684 210.25 45.2494C209.384 47.3304 208.161 49.3033 207.606 51.4724C207.475 51.9846 207.382 52.5208 207.514 53.0331C207.734 53.9095 208.579 54.5658 209.493 54.91C210.408 55.2542 211.407 55.3502 212.383 55.5183C215.81 56.1106 219.236 57.8394 220.64 60.7448C221.458 62.4296 221.519 64.3425 221.286 66.1754C220.851 69.561 219.452 72.7825 217.904 75.888C216.905 77.893 215.805 79.8899 214.323 81.6428C213.589 82.5152 212.757 83.3276 211.812 84.0119C211.174 84.4761 209.815 85.5927 208.913 85.2525L208.9 85.2645Z" fill="white"/>
<path d="M146.787 46.5498C147.029 44.9091 147.68 43.3203 148.679 41.9396C149.752 40.4589 151.3 38.8862 150.79 37.1774C150.359 35.7327 148.639 34.9843 147.069 34.5361C145.322 34.0359 143.528 33.6837 141.716 33.4716C140.44 33.3235 139.063 33.2115 138.069 32.4671C136.996 31.6627 136.631 30.2741 136.798 29.0175C136.97 27.7609 137.594 26.5963 138.21 25.4638C139.116 23.791 140.022 22.1222 140.928 20.4494C141.245 19.8611 141.57 19.2488 141.579 18.5925C141.597 17.2838 140.356 16.2393 139.068 15.6671C136.723 14.6186 134.014 14.5345 131.506 13.8662C130.376 13.5661 129.219 13.0978 128.577 12.2014C127.57 10.7887 128.19 8.92385 128.841 7.35109C129.637 5.42217 130.433 3.48925 131.229 1.56032C131.401 1.14813 131.581 0.71992 131.946 0.427781C132.501 -0.0204337 133.323 -0.0284331 134.062 0.0195898C137.379 0.235693 140.642 1.0881 143.576 2.50877C146.158 3.76137 148.692 5.78234 148.85 8.44361C148.929 9.76825 148.401 11.0569 147.882 12.2935C147.214 13.8862 146.545 15.483 145.877 17.0757C145.639 17.648 145.393 18.2523 145.512 18.8566C145.771 20.1492 147.447 20.6735 148.846 20.9936C151.753 21.6499 154.885 22.6184 156.447 24.9435C157.683 26.7804 157.661 29.0975 157.238 31.2145C156.636 34.2319 155.298 37.0893 153.803 39.8386C152.285 42.62 150.262 45.8175 146.765 46.6979C146.77 46.6539 146.778 46.6099 146.783 46.5618L146.787 46.5498Z" fill="white"/>
<path d="M17.2001 112.145C17.2221 111.977 17.3892 111.781 17.7543 111.545C19.0431 110.724 20.7322 110.748 22.2893 110.54C23.8464 110.332 25.5882 109.64 25.9313 108.243C26.0896 107.599 25.9093 106.931 25.685 106.302C25.2099 104.99 24.5369 103.733 23.6792 102.593C22.6983 101.28 21.4139 99.8632 21.7746 98.3145C21.977 97.4501 22.6807 96.7417 23.5033 96.2775C24.3258 95.8133 25.2671 95.5572 26.1996 95.309C27.9502 94.8368 29.7053 94.3686 31.4559 93.8964C32.3049 93.6683 33.2154 93.4001 33.7256 92.7438C34.2842 92.0235 34.1874 91.043 33.8971 90.2026C33.145 88.0416 31.2976 86.3287 30.4179 84.2077C30.1759 83.6275 30.0132 82.9992 30.1187 82.3829C30.4003 80.7661 32.3312 79.9177 34.0071 79.3334C35.6918 78.7491 37.372 78.1608 39.0567 77.5766C39.479 77.4285 39.9232 77.2804 40.3675 77.3484C40.9041 77.4285 41.322 77.8047 41.6739 78.1809C43.2662 79.8857 44.269 81.9747 45.0784 84.0837C45.7689 85.8845 46.332 87.8935 45.5622 89.6663C44.8848 91.2271 43.2837 92.3116 41.6079 93.016C39.932 93.7243 38.1242 94.1365 36.4571 94.8528C35.8941 95.0929 35.3135 95.4011 35.0584 95.9173C34.7241 96.5897 35.0496 97.366 35.4059 98.0263C36.5187 100.115 37.9614 102.3 37.5304 104.585C37.1785 106.45 35.617 107.947 33.9015 109.024C31.5175 110.524 28.7508 111.433 25.9709 112.181C24.251 112.645 22.474 113.062 20.6706 113.058C20.0592 113.058 17.0945 112.921 17.1913 112.149L17.2001 112.145Z" fill="white"/>
<path d="M103.628 72.1741C103.553 71.8979 103.558 71.5978 103.575 71.3097C103.764 67.828 105.062 64.3984 107.266 61.549C108.071 60.5085 109.139 59.476 110.529 59.3639C111.392 59.2959 112.232 59.6001 113.028 59.8962C115.012 60.6326 116.995 61.3689 118.984 62.1093C120.813 62.7896 122.7 63.5059 124.042 64.8266C125.722 66.4874 126.272 68.8725 126.202 71.1256C126.092 74.7153 124.587 78.197 122.37 81.1664C121.126 82.8312 119.661 84.3519 118.073 85.7526C117.246 86.4809 116.388 87.1773 115.509 87.8496C115.381 87.9456 113.151 89.1022 113.217 88.9261C114.062 86.669 116.067 84.9282 117.176 82.7671C117.576 81.9828 117.862 81.1184 117.734 80.2619C117.55 79.0013 116.507 77.9809 115.355 77.2605C112.144 75.2596 107.925 75.0515 104.609 73.1986C104.288 73.0185 103.967 72.8144 103.778 72.5183C103.712 72.4102 103.663 72.2981 103.632 72.1821L103.628 72.1741Z" fill="white"/>
<path d="M52.4241 157.931C52.4241 157.515 52.4769 157.123 52.5868 156.754C52.6924 156.374 52.9167 156.054 53.2642 155.79C53.4006 155.678 53.5457 155.582 53.7041 155.506C53.8624 155.43 54.0252 155.366 54.1879 155.318C54.3507 155.27 54.5178 155.234 54.6806 155.214C54.8433 155.194 55.0017 155.174 55.1512 155.166H55.226C55.2568 155.166 55.2832 155.166 55.3096 155.158C55.182 154.958 55.0764 154.749 55.0017 154.529C54.9269 154.309 54.8653 154.093 54.8301 153.877C54.7949 153.661 54.7685 153.457 54.7597 153.261C54.7509 153.065 54.7465 152.889 54.7465 152.74C54.7465 152.536 54.7553 152.3 54.7773 152.032C54.7949 151.764 54.8433 151.496 54.9137 151.22C54.9841 150.944 55.0896 150.679 55.226 150.415C55.3623 150.151 55.5515 149.923 55.789 149.723C56.0133 149.539 56.2641 149.391 56.5412 149.287C56.8183 149.183 57.0998 149.103 57.3945 149.051C57.6848 148.999 57.9751 148.967 58.261 148.955C58.5469 148.943 58.8152 148.939 59.0616 148.939C59.3079 148.939 59.5718 148.943 59.8577 148.955C60.1436 148.967 60.4339 148.999 60.7242 149.051C61.0145 149.103 61.3005 149.183 61.5776 149.287C61.8547 149.391 62.1098 149.535 62.3297 149.723C62.5628 149.923 62.7476 150.151 62.8839 150.411C63.0203 150.671 63.1259 150.94 63.1962 151.208C63.2666 151.476 63.315 151.744 63.3326 152.004C63.3502 152.26 63.3634 152.488 63.3634 152.684C63.3634 153.477 63.2622 154.109 63.0643 154.585C62.8663 155.058 62.62 155.426 62.3253 155.694C62.1098 155.878 61.8635 156.026 61.582 156.13C61.3004 156.238 61.0101 156.314 60.711 156.366C60.4119 156.418 60.1172 156.45 59.8313 156.462C59.5454 156.474 59.2815 156.478 59.0528 156.478C58.7405 156.478 58.393 156.474 58.0103 156.462C57.6276 156.45 57.2581 156.43 56.893 156.398H56.1453C55.9122 156.398 55.6483 156.426 55.3623 156.478C55.0764 156.534 54.8301 156.678 54.6146 156.914C54.4386 157.107 54.3287 157.323 54.2803 157.567C54.2319 157.811 54.2055 158.075 54.2055 158.363V160H52.4153V157.927L52.4241 157.931ZM56.5984 152.728C56.5984 153.037 56.6203 153.361 56.6643 153.705C56.7083 154.049 56.8623 154.353 57.1218 154.621C57.3813 154.89 57.6848 155.058 58.0411 155.13C58.3886 155.198 58.7317 155.23 59.066 155.23C59.4002 155.23 59.7389 155.198 60.082 155.13C60.4295 155.054 60.733 154.882 60.9925 154.621C61.2565 154.345 61.4104 154.045 61.4544 153.717C61.4808 153.549 61.4984 153.385 61.5116 153.217C61.5248 153.049 61.5292 152.889 61.5292 152.724V152.284C61.5292 152.168 61.5204 152.04 61.5072 151.904C61.494 151.768 61.4632 151.636 61.4236 151.504C61.384 151.372 61.3312 151.244 61.2653 151.12C61.1993 150.996 61.1113 150.884 61.0057 150.784C60.8694 150.647 60.7242 150.539 60.5703 150.463C60.4163 150.387 60.2492 150.327 60.082 150.291C59.9105 150.251 59.7433 150.227 59.5718 150.215C59.4003 150.203 59.2331 150.199 59.066 150.199C58.9208 150.199 58.7625 150.203 58.5821 150.211C58.4018 150.219 58.2302 150.243 58.0499 150.287C57.8695 150.331 57.7024 150.387 57.5396 150.463C57.3769 150.539 57.2317 150.647 57.1086 150.784C56.981 150.916 56.8799 151.068 56.8139 151.244C56.7479 151.42 56.6951 151.596 56.6643 151.776C56.6335 151.956 56.6115 152.132 56.6071 152.3C56.6027 152.468 56.5984 152.612 56.5984 152.728Z" fill="white"/>
<path d="M64.3843 146.662H66.1745V156.402H64.3843V146.662Z" fill="white"/>
<path d="M67.1772 156.402V155.154H70.0803C70.2651 155.154 70.4542 155.146 70.6521 155.13C70.8501 155.114 71.0392 155.078 71.2196 155.026C71.3999 154.974 71.567 154.894 71.7254 154.789C71.8793 154.685 72.0113 154.545 72.1125 154.373C72.1653 154.277 72.2136 154.165 72.2488 154.033C72.284 153.901 72.3104 153.765 72.328 153.625C72.3456 153.485 72.3588 153.345 72.3632 153.209C72.372 153.073 72.3764 152.953 72.3764 152.841C72.3764 152.781 72.3764 152.692 72.3764 152.58C72.3764 152.464 72.3676 152.34 72.3588 152.208C72.35 152.076 72.3368 151.94 72.3192 151.804C72.3016 151.668 72.2796 151.552 72.2488 151.452C72.2004 151.3 72.1213 151.152 72.0201 151.008C71.9189 150.864 71.787 150.74 71.6286 150.635C71.4703 150.531 71.2767 150.443 71.048 150.379C70.8193 150.315 70.5554 150.283 70.2519 150.283H67.362V149.035H70.8325C71.1976 149.035 71.5143 149.063 71.787 149.115C72.0597 149.171 72.2972 149.239 72.4951 149.319C72.6931 149.399 72.8602 149.487 72.9922 149.575C73.1241 149.663 73.2297 149.747 73.3089 149.819C73.5332 150.031 73.7092 150.267 73.8323 150.523C73.9555 150.78 74.0479 151.04 74.1094 151.304C74.171 151.568 74.2018 151.832 74.215 152.092C74.2238 152.352 74.2282 152.592 74.2282 152.817C74.2282 153.041 74.2238 153.261 74.215 153.469C74.2062 153.677 74.1842 153.877 74.1534 154.073C74.1226 154.269 74.0742 154.457 74.0127 154.637C73.9511 154.817 73.8675 154.99 73.7619 155.154H75.3059V156.402H67.1816H67.1772Z" fill="white"/>
<path d="M75.1604 156.394V155.145L78.5209 155.153V156.402L75.1604 156.394Z" fill="white"/>
<path d="M78.3848 156.394V155.145L81.7453 155.153V156.402L78.3848 156.394Z" fill="white"/>
<path d="M81.613 156.394V155.145L84.9736 155.153V156.402L81.613 156.394Z" fill="white"/>
<path d="M84.8376 156.394V155.145L88.1982 155.153V156.402L84.8376 156.394Z" fill="white"/>
<path d="M88.0613 156.394V155.145L91.4218 155.153V156.402L88.0613 156.394Z" fill="white"/>
<path d="M91.2856 156.394V155.145L94.6462 155.153V156.402L91.2856 156.394Z" fill="white"/>
<path d="M94.5056 155.154H95.812C95.6668 154.957 95.5569 154.753 95.4777 154.537C95.3985 154.321 95.337 154.105 95.293 153.893C95.249 153.681 95.2226 153.477 95.2138 153.277C95.205 153.081 95.2006 152.901 95.2006 152.744C95.2006 152.54 95.2094 152.304 95.2314 152.036C95.2534 151.768 95.2974 151.496 95.3677 151.22C95.4381 150.944 95.5437 150.675 95.68 150.411C95.8164 150.147 96.0055 149.919 96.2431 149.727C96.4674 149.539 96.7181 149.391 96.9952 149.287C97.2723 149.183 97.5538 149.107 97.8485 149.055C98.1389 149.007 98.4292 148.975 98.7195 148.963C99.0098 148.951 99.2737 148.947 99.52 148.947C99.7663 148.947 100.03 148.951 100.316 148.963C100.602 148.975 100.892 149.003 101.183 149.055C101.473 149.103 101.759 149.183 102.036 149.287C102.313 149.391 102.568 149.539 102.788 149.727C103.026 149.923 103.215 150.151 103.351 150.411C103.488 150.675 103.593 150.944 103.659 151.216C103.729 151.488 103.773 151.756 103.795 152.012C103.813 152.272 103.826 152.496 103.826 152.684C103.826 153.273 103.769 153.765 103.65 154.161C103.532 154.557 103.382 154.885 103.197 155.15H104.512V156.398H94.5056V155.15V155.154ZM97.0524 152.728C97.0524 152.88 97.0524 153.037 97.0612 153.193C97.0656 153.349 97.0876 153.505 97.1228 153.657C97.158 153.809 97.2107 153.961 97.2767 154.113C97.3427 154.261 97.4439 154.405 97.5714 154.541C97.6902 154.669 97.8222 154.773 97.9673 154.849C98.1125 154.929 98.262 154.989 98.416 155.034C98.5699 155.078 98.7283 155.106 98.891 155.126C99.0538 155.146 99.2121 155.154 99.3661 155.154H99.5156C99.6828 155.154 99.8543 155.146 100.026 155.134C100.197 155.122 100.365 155.094 100.532 155.054C100.699 155.014 100.857 154.953 101.011 154.869C101.165 154.789 101.31 154.677 101.442 154.541C101.579 154.405 101.68 154.265 101.755 154.121C101.829 153.977 101.882 153.829 101.913 153.677C101.944 153.525 101.966 153.369 101.974 153.213C101.983 153.053 101.988 152.892 101.988 152.728V152.288C101.988 152.168 101.979 152.04 101.966 151.904C101.952 151.772 101.922 151.636 101.882 151.504C101.842 151.372 101.79 151.244 101.719 151.12C101.649 150.996 101.565 150.888 101.46 150.787C101.323 150.655 101.178 150.551 101.024 150.475C100.866 150.399 100.703 150.339 100.536 150.299C100.369 150.259 100.197 150.231 100.026 150.219C99.8543 150.207 99.6872 150.203 99.52 150.203C99.3749 150.203 99.2165 150.207 99.0406 150.219C98.8646 150.231 98.6887 150.255 98.5083 150.299C98.3324 150.339 98.1608 150.399 97.9981 150.475C97.8354 150.551 97.6902 150.655 97.567 150.787C97.4395 150.92 97.3383 151.072 97.2723 151.248C97.2064 151.424 97.1536 151.6 97.1228 151.78C97.092 151.96 97.07 152.136 97.0656 152.304C97.0612 152.472 97.0568 152.616 97.0568 152.732L97.0524 152.728ZM97.4263 147.934V146.638H99.2121V147.934H97.4263ZM99.8323 147.934V146.638H101.618V147.934H99.8323Z" fill="white"/>
<path d="M104.367 156.394V155.146H104.548C104.882 155.146 105.146 155.114 105.348 155.046C105.546 154.978 105.713 154.866 105.841 154.706C105.977 154.534 106.065 154.341 106.105 154.129C106.149 153.917 106.171 153.693 106.175 153.457C106.171 153.425 106.166 153.397 106.166 153.369V153.273H106.175V149.027H107.961V153.273L107.996 154.277C108.058 154.474 108.15 154.63 108.282 154.742C108.409 154.858 108.559 154.946 108.722 155.006C108.885 155.066 109.06 155.106 109.245 155.126C109.43 155.146 109.602 155.154 109.769 155.154H109.962V156.402H109.232C109.056 156.402 108.88 156.398 108.7 156.386C108.519 156.374 108.335 156.35 108.15 156.314C107.965 156.278 107.785 156.222 107.609 156.146C107.433 156.07 107.266 155.97 107.112 155.846C106.954 155.974 106.786 156.074 106.615 156.146C106.443 156.218 106.263 156.274 106.083 156.314C105.898 156.354 105.709 156.378 105.515 156.386C105.322 156.394 105.119 156.398 104.908 156.398H104.372L104.367 156.394ZM104.943 147.93V146.634H106.729V147.93H104.943ZM107.349 147.93V146.634H109.135V147.93H107.349Z" fill="white"/>
<path d="M112.874 155.158H115.957V149.039H117.748V155.158H119.415C119.494 155.158 119.582 155.158 119.674 155.146C119.767 155.138 119.863 155.126 119.96 155.102C120.057 155.078 120.154 155.046 120.246 155.002C120.338 154.958 120.422 154.894 120.497 154.814C120.571 154.742 120.633 154.662 120.677 154.574C120.721 154.486 120.756 154.394 120.783 154.301C120.809 154.209 120.822 154.117 120.831 154.025C120.84 153.933 120.844 153.849 120.844 153.769V149.043H122.63V154.021C122.63 154.394 122.568 154.738 122.445 155.05C122.322 155.366 122.137 155.622 121.9 155.826C121.75 155.946 121.588 156.046 121.407 156.126C121.227 156.202 121.047 156.262 120.866 156.302C120.686 156.342 120.506 156.37 120.325 156.386C120.145 156.402 119.982 156.41 119.833 156.41H109.777V155.162H111.093V149.043H112.883V155.162L112.874 155.158Z" fill="white"/>
<path d="M123.796 156.394V155.146H126.193L124.073 146.662H125.863L127.983 155.146H128.388C128.722 155.146 128.986 155.114 129.189 155.046C129.387 154.978 129.554 154.866 129.681 154.706C129.826 154.53 129.919 154.329 129.958 154.101C129.998 153.873 130.02 153.641 130.02 153.397V146.674H131.806V153.889C131.806 154.161 131.784 154.401 131.735 154.61C131.687 154.818 131.621 155.002 131.537 155.162H132.685V156.41L123.8 156.402L123.796 156.394ZM124.161 145.581H125.063C125.098 145.581 125.115 145.569 125.115 145.541C125.115 145.533 125.115 145.525 125.115 145.521C125.115 145.517 125.093 145.509 125.058 145.497C125.023 145.485 124.966 145.469 124.887 145.445C124.808 145.421 124.693 145.389 124.544 145.345C124.399 145.301 124.297 145.241 124.236 145.173C124.174 145.105 124.143 145.009 124.143 144.889C124.143 144.737 124.187 144.629 124.271 144.565C124.355 144.505 124.469 144.473 124.605 144.473H125.718V144.861H124.816C124.816 144.861 124.79 144.861 124.759 144.861C124.733 144.861 124.72 144.869 124.72 144.893C124.72 144.901 124.728 144.913 124.746 144.925C124.764 144.937 124.794 144.949 124.834 144.961C124.874 144.973 124.935 144.993 125.01 145.017C125.085 145.041 125.177 145.069 125.296 145.105C125.454 145.153 125.573 145.217 125.652 145.289C125.731 145.361 125.766 145.465 125.766 145.601C125.766 145.717 125.731 145.813 125.657 145.885C125.586 145.957 125.485 145.993 125.353 145.993H124.165V145.585L124.161 145.581Z" fill="white"/>
<path d="M132.531 156.395V155.146H133.407C133.741 155.146 134.005 155.114 134.207 155.046C134.405 154.978 134.572 154.866 134.7 154.706C134.845 154.53 134.937 154.33 134.977 154.102C135.016 153.873 135.038 153.641 135.038 153.397V146.666H136.824V153.885C136.824 154.138 136.802 154.366 136.763 154.566C136.719 154.766 136.662 154.942 136.591 155.094C136.521 155.246 136.433 155.382 136.336 155.498C136.239 155.614 136.138 155.714 136.033 155.802C135.87 155.938 135.698 156.046 135.522 156.126C135.346 156.207 135.162 156.267 134.972 156.307C134.783 156.347 134.59 156.375 134.392 156.387C134.194 156.399 133.987 156.403 133.772 156.403H132.54L132.531 156.395Z" fill="white"/>
<path d="M144.166 156.402C143.954 156.402 143.735 156.386 143.497 156.354C143.259 156.322 143.026 156.254 142.793 156.15C142.56 156.046 142.336 155.898 142.125 155.71C141.914 155.518 141.729 155.266 141.575 154.942C141.526 154.834 141.478 154.706 141.43 154.566C141.381 154.421 141.342 154.257 141.302 154.069C141.267 153.881 141.236 153.669 141.214 153.429C141.192 153.189 141.179 152.917 141.179 152.609C141.179 152.413 141.183 152.208 141.197 151.992C141.21 151.776 141.236 151.564 141.285 151.348C141.329 151.132 141.394 150.92 141.474 150.712C141.553 150.504 141.667 150.307 141.804 150.127C141.997 149.867 142.221 149.667 142.468 149.519C142.718 149.371 142.965 149.263 143.22 149.191C143.471 149.119 143.713 149.075 143.946 149.059C144.179 149.043 144.372 149.035 144.531 149.035H146.928V148.186H148.718V155.158H150.337V156.406H144.161L144.166 156.402ZM143.246 154.317C143.334 154.502 143.449 154.65 143.581 154.758C143.713 154.866 143.853 154.95 144.003 155.01C144.152 155.07 144.302 155.106 144.456 155.126C144.61 155.146 144.751 155.154 144.887 155.154H146.924C146.924 155.09 146.924 155.022 146.924 154.954C146.924 154.882 146.924 154.818 146.924 154.762V150.283H144.878C144.759 150.283 144.632 150.291 144.495 150.303C144.359 150.316 144.227 150.348 144.091 150.396C143.954 150.444 143.827 150.512 143.704 150.596C143.581 150.684 143.471 150.796 143.374 150.936C143.33 151.004 143.286 151.084 143.242 151.176C143.198 151.268 143.163 151.384 143.132 151.524C143.101 151.664 143.075 151.824 143.053 152.008C143.031 152.192 143.022 152.413 143.022 152.661C143.022 152.949 143.031 153.193 143.048 153.393C143.066 153.589 143.084 153.753 143.11 153.877C143.136 154.001 143.154 154.101 143.18 154.169C143.207 154.237 143.224 154.285 143.242 154.317H143.246ZM143.418 146.918V145.621H145.204V146.918H143.418ZM145.824 146.918V145.621H147.61V146.918H145.824Z" fill="white"/>
<path d="M150.161 156.394V155.145L153.522 155.153V156.402L150.161 156.394Z" fill="white"/>
<path d="M153.385 156.394V155.145L156.746 155.153V156.402L153.385 156.394Z" fill="white"/>
<path d="M156.614 156.394V155.145L159.974 155.153V156.402L156.614 156.394Z" fill="white"/>
<path d="M159.838 156.394V155.145L163.198 155.153V156.402L159.838 156.394Z" fill="white"/>
<path d="M163.062 156.394V155.145L166.423 155.153V156.402L163.062 156.394Z" fill="white"/>
<path d="M166.286 156.394V155.146H166.466C166.801 155.146 167.065 155.114 167.267 155.046C167.465 154.978 167.632 154.866 167.76 154.706C167.896 154.533 167.984 154.341 168.024 154.129C168.068 153.917 168.09 153.693 168.094 153.457C168.09 153.425 168.085 153.397 168.085 153.369V153.273H168.094V149.027H169.88V153.273L169.915 154.277C169.977 154.473 170.069 154.63 170.201 154.742C170.328 154.858 170.478 154.946 170.641 155.006C170.803 155.066 170.979 155.106 171.164 155.126C171.349 155.146 171.52 155.154 171.688 155.154H171.881V156.402H171.151C170.975 156.402 170.799 156.398 170.619 156.386C170.438 156.374 170.254 156.35 170.069 156.314C169.884 156.278 169.704 156.222 169.528 156.146C169.352 156.07 169.185 155.97 169.031 155.846C168.873 155.974 168.705 156.074 168.534 156.146C168.362 156.218 168.186 156.274 168.002 156.314C167.817 156.354 167.628 156.378 167.434 156.386C167.241 156.394 167.038 156.398 166.827 156.398H166.291L166.286 156.394ZM168.072 147.958V146.662H169.858V147.958H168.072Z" fill="white"/>
<path d="M171.723 155.154H173.029C172.884 154.957 172.774 154.753 172.695 154.537C172.616 154.321 172.554 154.105 172.51 153.893C172.466 153.681 172.44 153.477 172.431 153.277C172.422 153.081 172.418 152.901 172.418 152.744C172.418 152.54 172.426 152.304 172.448 152.036C172.466 151.768 172.514 151.496 172.585 151.22C172.655 150.944 172.761 150.675 172.897 150.411C173.033 150.147 173.223 149.919 173.46 149.727C173.684 149.539 173.935 149.391 174.212 149.287C174.489 149.183 174.771 149.107 175.066 149.055C175.356 149.007 175.646 148.975 175.937 148.963C176.227 148.951 176.491 148.947 176.737 148.947C176.983 148.947 177.247 148.951 177.533 148.963C177.819 148.975 178.109 149.003 178.4 149.055C178.69 149.103 178.976 149.183 179.253 149.287C179.53 149.391 179.785 149.539 180.005 149.727C180.243 149.923 180.432 150.151 180.568 150.411C180.705 150.671 180.81 150.944 180.881 151.216C180.951 151.488 180.995 151.756 181.012 152.012C181.034 152.272 181.043 152.496 181.043 152.684C181.043 153.273 180.986 153.765 180.867 154.161C180.749 154.557 180.599 154.885 180.414 155.15H181.729V156.398H171.723V155.15V155.154ZM174.269 152.728C174.269 152.88 174.269 153.037 174.278 153.193C174.283 153.349 174.305 153.505 174.34 153.657C174.375 153.809 174.428 153.961 174.494 154.113C174.56 154.261 174.661 154.405 174.788 154.541C174.907 154.669 175.039 154.773 175.184 154.849C175.33 154.929 175.479 154.989 175.633 155.034C175.787 155.078 175.945 155.106 176.108 155.126C176.271 155.146 176.429 155.154 176.583 155.154H176.733C176.9 155.154 177.071 155.146 177.243 155.134C177.414 155.122 177.582 155.094 177.749 155.054C177.911 155.014 178.074 154.953 178.228 154.869C178.382 154.789 178.527 154.677 178.659 154.541C178.796 154.405 178.897 154.265 178.972 154.121C179.046 153.977 179.099 153.829 179.13 153.677C179.161 153.525 179.183 153.369 179.191 153.213C179.2 153.053 179.205 152.892 179.205 152.728V152.288C179.205 152.168 179.196 152.04 179.183 151.904C179.169 151.772 179.139 151.636 179.099 151.504C179.06 151.372 179.007 151.244 178.941 151.12C178.875 150.996 178.787 150.888 178.681 150.787C178.545 150.655 178.4 150.551 178.246 150.475C178.087 150.399 177.925 150.339 177.758 150.299C177.586 150.259 177.419 150.231 177.247 150.219C177.076 150.207 176.909 150.203 176.741 150.203C176.596 150.203 176.438 150.207 176.258 150.219C176.082 150.231 175.906 150.255 175.725 150.299C175.549 150.339 175.378 150.399 175.215 150.475C175.052 150.551 174.907 150.655 174.78 150.787C174.652 150.92 174.551 151.072 174.485 151.248C174.419 151.424 174.366 151.6 174.335 151.78C174.305 151.96 174.283 152.136 174.278 152.304C174.274 152.472 174.269 152.616 174.269 152.732V152.728ZM174.643 147.934V146.638H176.429V147.934H174.643ZM177.049 147.934V146.638H178.835V147.934H177.049Z" fill="white"/>
<path d="M181.589 156.394V155.146H181.769C182.104 155.146 182.367 155.114 182.57 155.046C182.768 154.978 182.935 154.866 183.062 154.706C183.199 154.534 183.287 154.341 183.326 154.129C183.37 153.917 183.392 153.693 183.397 153.457C183.392 153.425 183.388 153.397 183.388 153.369V153.273H183.397V149.027H185.183V153.273L185.218 154.277C185.279 154.474 185.372 154.63 185.504 154.742C185.631 154.858 185.781 154.946 185.943 155.006C186.106 155.066 186.282 155.106 186.467 155.126C186.652 155.146 186.823 155.154 186.99 155.154H187.184V156.402H186.454C186.278 156.402 186.102 156.398 185.921 156.386C185.741 156.374 185.556 156.35 185.372 156.314C185.187 156.278 185.007 156.222 184.831 156.146C184.655 156.07 184.488 155.97 184.334 155.846C184.175 155.974 184.008 156.074 183.837 156.146C183.665 156.218 183.489 156.274 183.304 156.314C183.12 156.354 182.93 156.378 182.737 156.386C182.543 156.394 182.341 156.398 182.13 156.398H181.593L181.589 156.394ZM182.165 147.93V146.634H183.951V147.93H182.165ZM184.571 147.93V146.634H186.357V147.93H184.571Z" fill="white"/>
<path d="M186.986 156.403V155.154H187.285C187.404 155.154 187.54 155.15 187.694 155.142C187.848 155.134 188.002 155.106 188.16 155.058C188.319 155.01 188.468 154.934 188.613 154.834C188.758 154.734 188.877 154.59 188.978 154.402C189.022 154.318 189.071 154.186 189.128 154.009C189.181 153.833 189.22 153.569 189.238 153.221C189.234 153.129 189.229 153.045 189.229 152.969V152.745C189.229 152.541 189.238 152.305 189.26 152.036C189.278 151.768 189.326 151.496 189.396 151.22C189.467 150.944 189.572 150.676 189.709 150.412C189.845 150.148 190.034 149.919 190.272 149.727C190.496 149.539 190.747 149.391 191.024 149.287C191.301 149.183 191.582 149.107 191.873 149.055C192.163 149.007 192.453 148.975 192.744 148.963C193.034 148.951 193.298 148.947 193.544 148.947C193.79 148.947 194.054 148.951 194.34 148.963C194.626 148.975 194.917 149.003 195.207 149.055C195.497 149.103 195.783 149.183 196.06 149.287C196.337 149.391 196.592 149.539 196.812 149.727C197.05 149.923 197.239 150.152 197.375 150.412C197.512 150.676 197.617 150.944 197.683 151.216C197.749 151.488 197.798 151.756 197.82 152.012C197.837 152.273 197.85 152.497 197.85 152.685C197.85 153.077 197.824 153.433 197.771 153.749C197.718 154.065 197.648 154.346 197.556 154.59C197.463 154.834 197.353 155.05 197.226 155.23C197.098 155.414 196.962 155.57 196.812 155.694C196.597 155.878 196.35 156.026 196.069 156.13C195.787 156.234 195.497 156.315 195.198 156.363C194.899 156.411 194.604 156.447 194.318 156.463C194.028 156.475 193.768 156.483 193.54 156.483C193.298 156.483 193.03 156.475 192.739 156.463C192.449 156.451 192.159 156.415 191.868 156.363C191.578 156.311 191.292 156.23 191.019 156.13C190.742 156.026 190.492 155.882 190.267 155.694C190.254 155.686 190.232 155.666 190.201 155.638C190.034 155.802 189.845 155.934 189.647 156.03C189.445 156.13 189.238 156.206 189.027 156.263C188.816 156.319 188.605 156.355 188.389 156.371C188.173 156.391 187.971 156.399 187.778 156.399H186.977L186.986 156.403ZM191.591 150.784C191.437 150.956 191.327 151.144 191.257 151.348C191.191 151.552 191.147 151.764 191.125 151.98C191.103 152.197 191.094 152.413 191.099 152.625C191.103 152.837 191.099 153.041 191.09 153.229C191.103 153.473 191.147 153.717 191.217 153.957C191.288 154.198 191.415 154.418 191.604 154.622C191.741 154.758 191.886 154.866 192.04 154.946C192.198 155.026 192.357 155.09 192.524 155.13C192.691 155.17 192.862 155.198 193.034 155.21C193.205 155.222 193.377 155.23 193.54 155.23C193.703 155.23 193.878 155.222 194.05 155.21C194.222 155.198 194.389 155.17 194.556 155.13C194.719 155.09 194.881 155.03 195.035 154.946C195.189 154.866 195.334 154.758 195.466 154.622C195.598 154.486 195.704 154.342 195.774 154.19C195.845 154.037 195.902 153.881 195.937 153.717C195.972 153.553 195.99 153.389 195.999 153.221C196.003 153.053 196.007 152.889 196.007 152.725V152.285C196.007 152.165 195.999 152.037 195.985 151.9C195.972 151.768 195.941 151.632 195.902 151.5C195.862 151.368 195.809 151.24 195.739 151.116C195.673 150.992 195.585 150.884 195.48 150.784C195.348 150.652 195.198 150.548 195.044 150.472C194.886 150.396 194.723 150.336 194.556 150.296C194.389 150.256 194.217 150.228 194.046 150.216C193.874 150.204 193.707 150.2 193.54 150.2C193.395 150.2 193.236 150.204 193.06 150.216C192.884 150.228 192.708 150.252 192.528 150.296C192.352 150.336 192.181 150.396 192.018 150.472C191.855 150.548 191.71 150.652 191.587 150.784H191.591Z" fill="white"/>
<path d="M204.888 156.402C204.677 156.402 204.457 156.386 204.219 156.354C203.982 156.322 203.749 156.254 203.516 156.15C203.283 156.046 203.058 155.898 202.847 155.71C202.636 155.518 202.451 155.266 202.297 154.942C202.249 154.834 202.2 154.706 202.152 154.566C202.104 154.421 202.064 154.257 202.025 154.069C201.989 153.881 201.959 153.669 201.937 153.429C201.915 153.189 201.901 152.917 201.901 152.609C201.901 152.413 201.906 152.208 201.919 151.992C201.932 151.776 201.959 151.564 202.007 151.348C202.051 151.132 202.117 150.92 202.196 150.712C202.275 150.504 202.39 150.307 202.526 150.127C202.72 149.867 202.944 149.667 203.19 149.519C203.441 149.371 203.687 149.263 203.942 149.191C204.193 149.119 204.435 149.075 204.668 149.059C204.901 149.043 205.095 149.035 205.253 149.035H207.65V148.186H209.441V155.158H211.059V156.406H204.884L204.888 156.402ZM203.969 154.317C204.057 154.502 204.171 154.65 204.303 154.758C204.435 154.866 204.576 154.95 204.725 155.01C204.875 155.07 205.024 155.106 205.178 155.126C205.332 155.146 205.473 155.154 205.609 155.154H207.646C207.646 155.09 207.646 155.022 207.646 154.954C207.646 154.882 207.646 154.818 207.646 154.762V150.283H205.601C205.482 150.283 205.354 150.291 205.218 150.303C205.082 150.316 204.95 150.348 204.813 150.396C204.677 150.444 204.549 150.512 204.426 150.596C204.303 150.684 204.193 150.796 204.096 150.936C204.052 151.004 204.008 151.084 203.964 151.176C203.92 151.268 203.885 151.384 203.854 151.524C203.824 151.664 203.797 151.824 203.775 152.008C203.753 152.192 203.744 152.413 203.744 152.661C203.744 152.949 203.753 153.193 203.771 153.393C203.788 153.589 203.806 153.753 203.832 153.877C203.859 154.001 203.876 154.101 203.903 154.169C203.929 154.237 203.947 154.285 203.964 154.317H203.969ZM204.14 146.918V145.621H205.926V146.918H204.14ZM206.546 146.918V145.621H208.332V146.918H206.546Z" fill="white"/>
<path d="M213.276 150.099C213.263 150.331 213.329 150.532 213.483 150.708C213.632 150.884 213.896 150.996 214.261 151.044H219.509C219.918 151.044 220.261 151.1 220.543 151.216C220.824 151.332 221.053 151.5 221.229 151.72C221.405 151.94 221.532 152.216 221.616 152.545C221.695 152.873 221.743 153.249 221.757 153.669C221.757 153.677 221.757 153.685 221.757 153.689C221.757 153.693 221.757 153.697 221.757 153.701V154.041C221.748 154.461 221.699 154.822 221.62 155.122C221.541 155.422 221.409 155.666 221.238 155.854C221.062 156.046 220.837 156.182 220.556 156.27C220.274 156.358 219.931 156.398 219.522 156.398H210.853V155.15H218.805C219.03 155.15 219.21 155.114 219.351 155.038C219.491 154.962 219.601 154.862 219.685 154.73C219.768 154.597 219.821 154.445 219.852 154.269C219.883 154.093 219.9 153.905 219.914 153.701C219.905 153.497 219.883 153.309 219.852 153.137C219.821 152.965 219.764 152.817 219.685 152.693C219.601 152.569 219.491 152.468 219.351 152.396C219.21 152.324 219.03 152.288 218.805 152.288H214.275C213.751 152.288 213.325 152.22 212.986 152.088C212.647 151.956 212.383 151.784 212.19 151.572C211.996 151.36 211.864 151.128 211.798 150.872C211.732 150.616 211.706 150.367 211.719 150.127C211.732 149.883 211.772 149.639 211.833 149.391C211.895 149.143 212.001 148.915 212.155 148.703C212.308 148.491 212.515 148.302 212.775 148.134C213.034 147.97 213.373 147.842 213.778 147.758L219.109 146.646V147.91L214.376 149.023C214.165 149.071 213.993 149.139 213.857 149.215C213.72 149.295 213.61 149.383 213.527 149.479C213.443 149.575 213.386 149.679 213.347 149.783C213.311 149.891 213.289 149.991 213.285 150.091L213.276 150.099Z" fill="white"/>
<path d="M222.421 157.623C222.663 157.627 222.878 157.623 223.054 157.623C223.23 157.623 223.393 157.599 223.529 157.575C223.666 157.551 223.789 157.515 223.894 157.475C224 157.431 224.106 157.375 224.211 157.307C224.317 157.239 224.405 157.163 224.484 157.083C224.559 157.003 224.625 156.907 224.677 156.794C224.73 156.682 224.77 156.554 224.796 156.406C224.823 156.258 224.836 156.086 224.836 155.886V149.031H226.622V155.15H227.95V156.398H226.613C226.6 156.694 226.551 156.947 226.472 157.163C226.393 157.379 226.3 157.563 226.195 157.715C226.089 157.867 225.984 157.995 225.869 158.095C225.759 158.195 225.663 158.275 225.583 158.331C225.254 158.543 224.836 158.695 224.33 158.783C223.824 158.871 223.186 158.903 222.417 158.875V157.619L222.421 157.623Z" fill="white"/>
<path d="M227.774 156.394V155.145L231.135 155.153V156.402L227.774 156.394Z" fill="white"/>
<path d="M231.003 156.394V155.145L234.363 155.153V156.402L231.003 156.394Z" fill="white"/>
<path d="M237.288 155.158H240.372V149.039H242.162V155.158H243.829C243.908 155.158 243.996 155.158 244.088 155.146C244.181 155.134 244.278 155.126 244.374 155.102C244.471 155.078 244.568 155.046 244.66 155.002C244.753 154.958 244.836 154.894 244.911 154.814C244.986 154.742 245.047 154.662 245.091 154.574C245.135 154.486 245.171 154.393 245.197 154.301C245.223 154.209 245.237 154.117 245.245 154.025C245.254 153.933 245.259 153.849 245.259 153.769V149.043H247.044V154.021C247.044 154.393 246.983 154.738 246.86 155.05C246.736 155.366 246.552 155.622 246.314 155.826C246.165 155.946 246.002 156.046 245.822 156.126C245.641 156.202 245.461 156.262 245.281 156.302C245.1 156.342 244.92 156.37 244.739 156.386C244.559 156.402 244.396 156.41 244.247 156.41H234.187V155.162H235.502V149.043H237.293V155.162L237.288 155.158ZM237.623 146.918V145.621H239.408V146.918H237.623ZM240.029 146.918V145.621H241.814V146.918H240.029ZM242.457 146.918V145.621H244.242V146.918H242.457Z" fill="white"/>
</svg>
