<svg width="130" height="80" viewBox="0 0 130 80" fill="none" xmlns="http://www.w3.org/2000/svg">
<path d="M4.94517 42.8052H4.83284C3.81583 42.7691 3.30936 42.6571 3.30936 42.473V42.3069L3.45027 42.1128C5.53945 41.2644 7.02413 39.9938 7.91045 38.297C9.02141 38.4631 9.75456 38.5831 10.1119 38.6571V38.6011C10.4877 38.6011 10.8451 37.9088 11.1841 36.5261C11.1841 36.286 11.0146 35.8718 10.6756 35.2815C9.45231 33.8428 8.22086 33.0224 6.9792 32.8203C6.13169 32.9304 5.70895 33.3005 5.70895 33.9268V33.9829C5.70895 34.259 5.75592 34.5451 5.84986 34.8393C5.51086 35.5396 5.34135 36.1579 5.34135 36.6922C5.34135 37.4306 5.96218 37.9268 7.20384 38.1849C6.67696 38.8492 6.02754 39.4395 5.25558 39.9558C3.50541 40.8782 2.63135 41.9007 2.63135 43.0253V43.1073C2.63135 43.8817 3.195 44.2679 4.32434 44.2679C5.13305 44.2679 5.76409 44.1858 6.21542 44.0198C7.90841 43.7256 9.47886 43.0233 10.9288 41.9187L10.8716 41.8087C8.18002 42.473 6.20521 42.8052 4.94517 42.8052ZM8.58642 35.5316V35.3936C9.73414 36.0199 10.308 36.6021 10.308 37.1364V37.2465C10.1201 37.2104 9.48907 37.1264 8.41691 36.9983C8.52924 36.5561 8.58642 36.0679 8.58642 35.5316ZM6.07451 36.278V35.9738C6.48907 35.3836 6.82604 35.0894 7.09152 35.0894H7.14871C7.58165 35.0894 7.79813 35.5236 7.79813 36.39L7.7144 36.7502C6.8485 36.7502 6.30323 36.5941 6.07655 36.28L6.07451 36.278Z" fill="#195950"/>
<path d="M30.2707 29.7637C29.2578 32.9353 28.7513 34.9482 28.7513 35.8047C28.7513 37.1473 29.0883 37.8176 29.7642 37.8176C30.2605 37.8176 30.7956 37.2253 31.3715 36.0368H31.4307L31.5491 36.2108C31.0917 38.682 30.4177 39.9167 29.5233 39.9167H29.2251C28.5696 39.9167 28.1121 39.4984 27.8548 38.662C27.7956 38.2919 27.7649 38.0097 27.7649 37.8156V36.7651C27.7649 34.7221 28.5491 32.389 30.1175 29.7617H30.2666L30.2707 29.7637Z" fill="#195950"/>
<path d="M31.5515 52.8936C29.6952 55.6729 28.6475 57.4758 28.4086 58.2982C28.0349 59.5888 28.1737 60.3252 28.8231 60.5053C29.301 60.6374 29.9811 60.2111 30.8654 59.2227L30.9225 59.2387L30.9879 59.4388C29.8606 61.6939 28.8681 62.7023 28.0083 62.4622L27.7224 62.3822C27.0914 62.2061 26.7687 61.6818 26.7544 60.8094C26.7993 60.4372 26.8504 60.1591 26.9035 59.971L27.1955 58.9605C27.7632 56.9956 29.1683 54.9586 31.4086 52.8516L31.5515 52.8916V52.8936Z" fill="#195950"/>
<path d="M121.646 57.779C121.487 57.2407 121.303 56.9466 121.095 56.8985L120.905 56.8545C120.64 56.7925 120.323 56.9986 119.951 57.4708L119.89 57.4208L119.786 57.3968C119.751 57.3888 119.614 57.4988 119.375 57.7289C118.994 58.1992 118.63 58.5433 118.285 58.7594C117.468 59.3177 115.021 59.918 110.949 60.5583L110.925 60.6604C111.305 60.7024 112.532 60.7284 114.609 60.7384C115.816 60.5803 117.076 60.1201 118.395 59.3577C118.822 59.0056 119.173 58.6114 119.451 58.1752C119.945 58.8875 120.341 59.2777 120.642 59.3477L120.813 59.3877C121.193 59.2277 121.45 58.8695 121.585 58.3172C121.603 58.2392 121.624 58.0591 121.644 57.777L121.646 57.779ZM121.22 58.6254C121.058 58.5874 120.789 58.3452 120.413 57.899C120.537 57.785 120.67 57.7449 120.807 57.777L120.842 57.785C121.083 57.841 121.22 58.0771 121.252 58.4893L121.22 58.6254Z" fill="#195950"/>
<path d="M116.585 26.0131C116.651 25.957 116.71 25.9406 116.747 25.9352C116.758 25.9412 116.771 25.9481 116.784 25.956C116.856 25.9989 116.952 26.067 117.044 26.165C117.217 26.3494 117.4 26.6616 117.347 27.1964L117.342 27.2466L117.347 27.2968C117.394 27.7655 117.365 28.2069 117.287 28.6166C117.283 28.5549 117.277 28.4999 117.271 28.4519C117.387 27.804 117.358 27.3077 117.141 26.9582C116.906 26.5804 116.542 26.5067 116.324 26.4943C116.408 26.2043 116.518 26.0709 116.585 26.0131ZM122.989 27.4983C123.035 27.6498 123.061 27.8398 123.072 28.0411L122.722 27.7752C122.772 27.6073 122.815 27.434 122.852 27.2551L122.873 27.2699C122.886 27.2796 122.94 27.3329 122.989 27.4983ZM121.791 24.1254C121.811 24.1828 121.83 24.2415 121.847 24.3014C121.741 24.1475 121.601 23.9974 121.416 23.887C121.102 23.6999 120.725 23.6671 120.322 23.806L120.31 23.8102L120.298 23.8151C120.263 23.8291 120.23 23.845 120.198 23.8626C120.251 23.7369 120.311 23.6272 120.375 23.5335C120.624 23.1713 120.885 23.0952 120.994 23.1056L121.101 23.1159L121.203 23.0813C121.268 23.0594 121.304 23.0658 121.328 23.0743C121.359 23.0851 121.41 23.1145 121.471 23.1897C121.601 23.3478 121.72 23.6384 121.765 24.016L121.772 24.0722L121.791 24.1254ZM120.04 25.3773L120.027 25.2263C120.03 25.2308 120.032 25.2353 120.035 25.2396C120.058 25.28 120.08 25.3134 120.096 25.3375C120.104 25.3496 120.111 25.3595 120.116 25.367L120.122 25.3763L120.125 25.3795L120.125 25.3808L120.126 25.3813L120.126 25.3815C120.126 25.3816 120.126 25.3818 120.532 25.0891L120.126 25.3818L120.194 25.4757L120.296 25.5302L121.205 26.0152C121.165 26.1284 121.111 26.2484 121.051 26.3662C121.039 26.3898 121.027 26.413 121.015 26.4358L120.119 25.7274L120.109 25.7193L120.101 25.7141L120.095 25.7095C120.088 25.7036 120.075 25.6934 120.061 25.6796C120.029 25.6505 119.995 25.6139 119.969 25.5761C119.953 25.5516 119.945 25.5347 119.942 25.5257C119.943 25.5248 119.943 25.5237 119.944 25.5225L120.04 25.3773ZM121.803 27.0764C121.835 27.021 121.868 26.9611 121.902 26.898C121.889 26.9727 121.874 27.0463 121.858 27.1188L121.812 27.0838L121.803 27.0764ZM118.725 30.8964C118.424 31.0527 118.124 31.1854 117.837 31.2979C119.198 30.4131 120.089 29.5585 120.663 28.8682C120.957 28.5158 121.167 28.2074 121.314 27.9613L121.527 28.1232C120.929 29.4502 119.831 30.322 118.725 30.8964Z" fill="white" stroke="#195950"/>
<path d="M65.7987 22.6992C66.2418 22.6992 66.7156 23.1414 67.2242 24.0239C67.2732 24.1039 67.2977 24.224 67.2977 24.384V24.5281C67.118 25.4105 66.9199 25.8528 66.7075 25.8528C66.6421 25.8528 66.3133 25.5566 65.7252 24.9623L65.3576 24.8182C64.702 24.8182 64.0546 26.7032 63.4175 30.475C62.9907 31.6456 62.6639 32.2319 62.4352 32.2319C62.2881 32.2319 62.1411 31.6696 61.992 30.547C61.3201 28.5901 60.7238 27.3215 60.199 26.7452H59.9539L59.5863 27.0333H59.3657C58.8736 27.0333 58.3263 26.5691 57.7197 25.6367V25.4926C58.2282 24.4661 58.6285 23.8558 58.9226 23.6637H59.0696C60.7075 23.6637 61.9267 25.4926 62.7293 29.1504V29.2224H62.8028C63.5073 24.8743 64.506 22.6992 65.7987 22.6992Z" fill="#56B948"/>
<path d="M77.3739 36.6258C77.0553 35.8054 76.6346 35.0331 76.1874 34.2767C75.8341 33.6764 75.5155 33.0421 75.0846 32.4918C74.6434 31.9255 74.1247 31.4053 73.6142 30.901C72.9382 30.2307 72.1622 29.5844 71.1227 29.6865C69.9382 29.8045 69.1397 30.5549 68.4637 31.4073C67.6142 32.4758 66.8708 33.6224 66.154 34.7809C65.4923 35.8515 64.9103 36.97 64.606 38.1926C64.3426 39.2511 64.2772 40.3456 64.7428 41.3341C65.813 43.6052 67.7918 44.8418 70.169 45.4741C71.0716 45.7162 72.0417 45.7002 72.6952 44.8038C72.9607 44.4396 73.2282 44.0794 73.5182 43.6913C73.6203 43.7933 73.7265 43.8493 73.7449 43.9294C73.9062 44.6057 74.1594 45.284 74.1778 45.9664C74.2187 47.8133 73.3507 49.36 72.25 50.7787C71.429 51.8392 70.459 52.7797 69.3092 53.502C68.2922 54.1423 67.2343 54.7206 66.1908 55.3229C66.0519 55.3729 65.913 55.423 65.7721 55.473C64.6713 55.8071 63.589 56.2273 62.4658 56.4535C61.122 56.7276 59.7435 56.9457 58.3793 56.4915C57.9362 56.3454 57.5236 56.0953 57.5767 55.607C57.6482 54.9747 57.7769 54.3244 58.024 53.7401C58.4528 52.7236 59.041 51.7732 59.4699 50.7567C59.7844 50.0123 59.962 49.2139 60.1805 48.4316C60.2704 48.1154 60.1132 47.8393 59.815 47.7632C59.6067 47.7092 59.2738 47.7572 59.1349 47.8953C58.849 48.1794 58.5182 48.4096 58.3466 48.8458C58.0689 49.5601 57.6257 50.2104 57.2357 50.8808C56.9988 51.2849 56.7599 51.6911 56.478 52.0653C54.4603 54.7286 51.2398 56.4234 47.9355 56.9737C45.8279 57.3239 43.7673 57.2659 41.8415 56.2133C40.316 55.3789 39.4052 53.8442 39.0213 52.2134C38.5903 50.3725 38.9008 48.4976 38.9702 46.6367C39.0049 45.7002 39.0212 44.9299 38.6496 44.0414C38.1717 42.9029 37.2241 41.8784 35.9722 41.5402C34.4467 41.128 32.7741 41.7743 31.3997 42.3826C29.5944 43.181 27.9974 44.2835 26.5863 45.6342C24.4379 47.6892 22.6468 50.1244 21.0294 52.5936C20.8946 52.7997 20.7558 53.0038 20.6169 53.2059L19.8817 54.3304L18.8361 55.9312L18.8279 55.9432C18.5522 56.3214 18.2786 56.6976 18.0049 57.0758C17.092 58.3384 16.2098 59.623 15.2622 60.8596C14.6006 61.724 13.849 62.5204 13.1383 63.3488C12.9974 63.4709 12.8545 63.5949 12.7156 63.717C11.7313 64.6334 10.6979 65.4939 9.45624 66.0541C7.15468 67.0966 5.36979 66.6084 3.85243 64.5574C2.80887 63.1447 2.40451 61.5039 2.26155 59.7951C2.06346 57.4499 2.33712 55.1388 2.82316 52.8417C2.84358 52.7437 2.78232 52.6276 2.75985 52.5195C1.896 54.2484 1.03419 55.9812 0.170336 57.7101C0.121323 58.6845 0.0620995 59.659 0.0212554 60.6335C-0.0788126 62.9866 0.16421 65.2918 0.968839 67.5308C1.52432 69.0756 2.34528 70.4242 3.57265 71.5508C5.27789 73.1115 7.0832 73.3917 9.16829 72.3852C10.847 71.5768 12.1152 70.2922 13.3262 68.9515C15.1969 66.8865 16.7571 64.5934 18.2745 62.2723C18.7258 61.5799 20.2758 59.2268 21.1826 57.8461C21.2234 57.7421 21.4522 57.4019 21.7585 56.9697C21.7687 56.9557 21.7769 56.9437 21.7891 56.9297C22.4038 56.0673 23.3167 54.8587 23.6863 54.3684C23.7292 54.3144 23.7639 54.2684 23.7905 54.2324C23.8027 54.2144 23.815 54.1984 23.8252 54.1864C23.8334 54.1743 23.8395 54.1643 23.8456 54.1583C23.8497 54.1503 23.8538 54.1483 23.8538 54.1483C24.6707 53.1018 25.5304 52.0953 26.5475 51.2169C28.0076 49.9543 29.5924 48.9258 31.557 48.5916C33.3072 48.2935 34.1955 49.1579 34.3752 50.6947C34.5795 52.4175 34.5366 54.1663 34.5999 55.9052C34.6244 56.0032 34.6509 56.1033 34.6795 56.1993C34.7592 56.6055 34.8286 57.0157 34.9225 57.4179C35.4658 59.7371 36.4603 61.774 38.5903 63.1087C38.6394 63.1667 38.6843 63.2248 38.7313 63.2808C38.9845 63.3708 39.2459 63.4389 39.4869 63.5529C40.7857 64.1692 42.1724 64.3353 43.5795 64.2533C45.0335 64.1692 46.4528 63.9011 47.8415 63.3928C49.8306 62.6705 51.6993 61.7961 53.2473 60.3414C53.4903 60.1152 53.766 59.9071 54.0519 59.7391C54.4277 59.519 54.7401 59.645 54.8116 60.0692C54.8647 60.3914 54.8238 60.7315 54.8259 61.0657C54.8279 61.738 54.7462 62.4044 55.3895 62.9246C56.3453 63.701 57.4522 63.807 58.606 63.749C60.4869 63.659 62.2166 63.0226 63.9035 62.2683C65.9967 61.3358 67.8082 60.0172 69.3072 58.3064C70.0097 57.504 70.6959 56.6836 71.3555 55.8452C71.862 55.1988 72.3255 54.5205 72.7912 53.8462C73.9225 52.2074 74.911 50.4786 75.8177 48.7117C76.6346 47.1149 77.5087 45.4861 77.8293 43.7133C78.0274 42.6167 78.2173 41.4982 78.2132 40.3937C78.2091 39.109 77.8293 37.8204 77.3657 36.6298L77.3739 36.6258ZM19.9042 56.8517C19.9042 56.8377 19.9042 56.8236 19.9083 56.8076L19.9654 56.8557C19.943 56.8537 19.9246 56.8497 19.9042 56.8497V56.8517Z" fill="#195950"/>
<path d="M129.844 50.6235C129.685 51.0597 129.421 51.4779 129.162 51.8641C128.605 52.6925 128.022 53.5069 127.418 54.3033C126.799 55.1197 126.182 56.0421 125.443 56.7565C124.267 57.895 122.619 55.2938 122.082 54.5514C120.46 52.3083 117.628 50.9577 114.826 51.0917C114.305 51.1177 113.77 51.1958 113.319 51.4559C112.733 51.7961 112.367 52.3984 112.01 52.9686C108.552 58.4873 103.167 63.3297 96.6113 64.1461C95.484 64.2861 94.2934 64.2941 93.2682 63.8179C92.241 63.3417 91.4364 62.2671 91.5957 61.1646C91.6712 60.6384 91.8775 59.94 91.3935 59.6979C91.0484 59.5258 90.6501 59.7799 90.3479 60.0161C87.4541 62.2792 84.1273 64.1921 80.4554 64.6623C76.7836 65.1325 72.7277 63.9199 70.5773 60.9645C69.9442 60.0941 69.4806 59.0276 69.6624 57.9751C69.7563 57.4248 70.0218 56.9165 70.2812 56.4203C71.4085 54.2693 72.5378 52.1182 73.6651 49.9672C73.4813 52.3763 75.1314 54.6875 77.3288 55.788C79.5242 56.8865 82.1464 56.9205 84.5501 56.3823C89.4554 55.2837 93.74 51.7981 95.7434 47.2739C96.0191 46.6536 96.5011 45.8812 97.1689 46.0593C97.9306 46.2634 97.7897 47.3599 97.4793 48.0723C96.6685 49.9312 95.8557 51.7921 95.045 53.651C94.8019 54.2072 94.5691 54.8876 94.9306 55.3798C95.1409 55.6659 95.5045 55.802 95.8496 55.9001C99.1457 56.8365 102.767 55.744 105.57 53.803C108.374 51.8621 110.513 49.1548 112.6 46.4835C114.687 43.8122 116.811 41.0969 119.596 39.1319C119.801 38.9878 120.025 38.8418 120.276 38.8438C120.811 38.8478 121.083 39.4561 121.277 39.9443C122.66 43.414 126.399 45.3009 129.031 47.9882C129.446 48.4104 129.848 48.8826 129.965 49.4569C130.044 49.8511 129.983 50.2413 129.844 50.6195V50.6235Z" fill="#195950"/>
<path d="M96.9889 42.6312C96.9767 42.6252 96.9624 42.6192 96.9501 42.6132C97.1176 41.6427 97.4954 40.7062 98.0509 39.8838C98.6227 39.0374 99.4253 38.127 99.1537 37.1465C98.9188 36.2961 97.9774 35.8559 97.1176 35.5958C96.1578 35.3056 95.1734 35.1055 94.1789 34.9735C93.4784 34.8794 92.7228 34.7994 92.1918 34.3411C91.6486 33.8709 91.473 33.0925 91.5669 32.3882C91.6608 31.6839 91.9835 31.0315 92.3021 30.3932C92.7779 29.4408 93.2537 28.4883 93.7296 27.5358C93.9481 27.0976 94.1728 26.6334 94.1339 26.1472C94.0849 25.5329 93.6173 25.0186 93.0781 24.7025C92.0366 24.0922 90.7602 24.0782 89.5717 23.8401C88.3831 23.6039 87.0985 22.9656 86.8351 21.8051C86.7003 21.2148 86.8637 20.6005 87.0536 20.0242C87.4825 18.7256 88.0563 17.479 88.6282 16.2344C88.7364 16.0002 88.8528 15.7561 89.0652 15.604C89.3286 15.418 89.6778 15.416 90.0026 15.432C92.1346 15.55 94.2299 16.2424 95.9985 17.4129C96.7582 17.9152 97.4832 18.5375 97.8262 19.3679C98.251 20.4004 98.0182 21.583 97.6159 22.6235C97.2136 23.664 96.6459 24.6504 96.3885 25.735C96.3273 25.9911 96.2844 26.2592 96.3456 26.5153C96.4478 26.9536 96.8399 27.2817 97.2646 27.4538C97.6894 27.6259 98.153 27.6739 98.6064 27.758C100.197 28.0541 101.788 28.9185 102.44 30.3712C102.819 31.2136 102.848 32.1701 102.74 33.0865C102.538 34.7794 101.888 36.3901 101.169 37.9429C100.706 38.9454 100.195 39.9439 99.507 40.8203C99.1659 41.2565 98.78 41.6627 98.3409 42.0049C98.0448 42.237 97.4137 42.7953 96.9951 42.6252L96.9889 42.6312Z" fill="#56B948"/>
<path d="M68.1513 23.2751C68.2636 22.4547 68.5658 21.6603 69.0294 20.97C69.5277 20.2296 70.2466 19.4432 70.0097 18.5888C69.8095 17.8665 69.011 17.4923 68.282 17.2682C67.4712 17.0181 66.638 16.842 65.7966 16.7359C65.2044 16.6619 64.5651 16.6059 64.1036 16.2337C63.6053 15.8315 63.4358 15.1371 63.5134 14.5088C63.5931 13.8805 63.8831 13.2982 64.169 12.732C64.5897 11.8956 65.0103 11.0612 65.431 10.2248C65.5781 9.93061 65.7292 9.62447 65.7333 9.29631C65.7415 8.64199 65.1656 8.11974 64.5672 7.8336C63.4787 7.30934 62.2207 7.26732 61.0566 6.93316C60.5318 6.78309 59.9947 6.54897 59.6965 6.10075C59.2289 5.39441 59.5168 4.46196 59.8191 3.67557C60.1887 2.71111 60.5583 1.74464 60.928 0.780167C61.0076 0.574067 61.0914 0.359963 61.2609 0.213892C61.5182 -0.0102169 61.9001 -0.0142167 62.2432 0.00979499C63.783 0.117847 65.2983 0.544052 66.6604 1.2544C67.8592 1.8807 69.0355 2.89119 69.109 4.22184C69.1458 4.88416 68.9007 5.52847 68.6598 6.14677C68.3493 6.94316 68.0389 7.74155 67.7285 8.53794C67.6182 8.82408 67.5039 9.12622 67.559 9.42837C67.6795 10.0747 68.4576 10.3368 69.107 10.4969C70.4569 10.825 71.911 11.3093 72.6359 12.4718C73.2098 13.3903 73.1996 14.5489 73.0035 15.6074C72.7238 17.1161 72.1029 18.5448 71.4086 19.9195C70.704 21.3101 69.7646 22.9089 68.141 23.3491C68.1431 23.3271 68.1472 23.3051 68.1492 23.2811L68.1513 23.2751Z" fill="#56B948"/>
<path d="M7.98612 56.071C7.99633 55.987 8.07393 55.8889 8.24344 55.7709C8.8418 55.3607 9.62601 55.3727 10.349 55.2686C11.0719 55.1646 11.8806 54.8184 12.0399 54.1201C12.1134 53.7979 12.0297 53.4638 11.9255 53.1496C11.705 52.4933 11.3925 51.865 10.9943 51.2947C10.5389 50.6384 9.94255 49.93 10.11 49.1557C10.204 48.7235 10.5307 48.3693 10.9126 48.1372C11.2945 47.9051 11.7315 47.777 12.1645 47.6529C12.9773 47.4168 13.7921 47.1827 14.6049 46.9466C14.9991 46.8325 15.4218 46.6985 15.6587 46.3703C15.918 46.0101 15.8731 45.5199 15.7383 45.0997C15.3891 44.0192 14.5314 43.1628 14.1229 42.1022C14.0106 41.8121 13.9351 41.498 13.9841 41.1898C14.1148 40.3814 15.0113 39.9572 15.7894 39.6651C16.5715 39.3729 17.3517 39.0788 18.1338 38.7866C18.3299 38.7126 18.5362 38.6386 18.7424 38.6726C18.9916 38.7126 19.1856 38.9007 19.349 39.0888C20.0882 39.9412 20.5539 40.9857 20.9296 42.0402C21.2502 42.9407 21.5116 43.9451 21.1543 44.8316C20.8398 45.6119 20.0964 46.1542 19.3183 46.5064C18.5402 46.8606 17.7009 47.0667 16.9269 47.4248C16.6655 47.5449 16.3959 47.699 16.2775 47.9571C16.1223 48.2933 16.2734 48.6814 16.4388 49.0116C16.9555 50.0561 17.6253 51.1486 17.4252 52.2912C17.2618 53.2236 16.5368 53.972 15.7404 54.5103C14.6335 55.2606 13.3489 55.7149 12.0583 56.089C11.2598 56.3212 10.4347 56.5293 9.59742 56.5273C9.31355 56.5273 7.9371 56.4592 7.98203 56.073L7.98612 56.071Z" fill="#56B948"/>
<path d="M48.1135 36.0857C48.0788 35.9476 48.0808 35.7976 48.089 35.6535C48.1768 33.9127 48.7793 32.1978 49.8024 30.7731C50.1761 30.2529 50.6724 29.7366 51.3177 29.6806C51.718 29.6466 52.1081 29.7987 52.4777 29.9467C53.3987 30.3149 54.3198 30.6831 55.2428 31.0533C56.0924 31.3934 56.9685 31.7516 57.5914 32.4119C58.3715 33.2423 58.6268 34.4349 58.5941 35.5615C58.543 37.3563 57.8446 39.0972 56.8153 40.5819C56.2374 41.4143 55.5573 42.1747 54.8201 42.875C54.4362 43.2392 54.0379 43.5874 53.6295 43.9235C53.5703 43.9715 52.5349 44.5498 52.5655 44.4618C52.9576 43.3332 53.8889 42.4628 54.4035 41.3823C54.5893 40.9901 54.7221 40.5579 54.6629 40.1297C54.5771 39.4994 54.0931 38.9891 53.558 38.6289C52.0672 37.6285 50.1087 37.5244 48.5689 36.598C48.4198 36.5079 48.2708 36.4059 48.1829 36.2578C48.1523 36.2038 48.1298 36.1477 48.1155 36.0897L48.1135 36.0857Z" fill="#56B948"/>
<path d="M24.34 78.9649C24.34 78.7568 24.3645 78.5607 24.4156 78.3766C24.4646 78.1865 24.5687 78.0265 24.7301 77.8944C24.7934 77.8384 24.8608 77.7904 24.9343 77.7523C25.0078 77.7143 25.0834 77.6823 25.1589 77.6583C25.2345 77.6343 25.3121 77.6163 25.3877 77.6063C25.4632 77.5963 25.5368 77.5863 25.6062 77.5823H25.6409C25.6552 77.5823 25.6675 77.5823 25.6797 77.5783C25.6205 77.4782 25.5715 77.3742 25.5368 77.2641C25.502 77.154 25.4734 77.046 25.4571 76.938C25.4408 76.8299 25.4285 76.7278 25.4244 76.6298C25.4204 76.5317 25.4183 76.4437 25.4183 76.3697C25.4183 76.2676 25.4224 76.1496 25.4326 76.0155C25.4408 75.8814 25.4632 75.7474 25.4959 75.6093C25.5286 75.4712 25.5776 75.3392 25.6409 75.2071C25.7042 75.075 25.792 74.961 25.9023 74.8609C26.0065 74.7689 26.1229 74.6949 26.2515 74.6428C26.3802 74.5908 26.5109 74.5508 26.6477 74.5248C26.7825 74.4988 26.9173 74.4828 27.05 74.4767C27.1828 74.4707 27.3073 74.4688 27.4217 74.4688C27.5361 74.4688 27.6586 74.4707 27.7914 74.4767C27.9241 74.4828 28.0589 74.4988 28.1937 74.5248C28.3285 74.5508 28.4612 74.5908 28.5899 74.6428C28.7185 74.6949 28.837 74.7669 28.9391 74.8609C29.0473 74.961 29.1331 75.075 29.1964 75.2051C29.2597 75.3352 29.3087 75.4692 29.3414 75.6033C29.3741 75.7374 29.3965 75.8714 29.4047 76.0015C29.4129 76.1296 29.419 76.2436 29.419 76.3417C29.419 76.7378 29.372 77.054 29.2801 77.2921C29.1882 77.5282 29.0739 77.7123 28.937 77.8464C28.837 77.9384 28.7226 78.0125 28.5919 78.0645C28.4612 78.1185 28.3264 78.1565 28.1875 78.1826C28.0487 78.2086 27.9118 78.2246 27.7791 78.2306C27.6464 78.2366 27.5238 78.2386 27.4176 78.2386C27.2726 78.2386 27.1113 78.2366 26.9336 78.2306C26.756 78.2246 26.5844 78.2146 26.4149 78.1986H26.0677C25.9595 78.1986 25.837 78.2126 25.7042 78.2386C25.5715 78.2666 25.4571 78.3386 25.357 78.4567C25.2754 78.5527 25.2243 78.6608 25.2018 78.7828C25.1794 78.9049 25.1671 79.037 25.1671 79.181V79.9994H24.3359V78.9629L24.34 78.9649ZM26.2781 76.3637C26.2781 76.5177 26.2883 76.6798 26.3087 76.8519C26.3291 77.024 26.4006 77.1761 26.5211 77.3101C26.6416 77.4442 26.7825 77.5282 26.9479 77.5642C27.1093 77.5983 27.2685 77.6143 27.4238 77.6143C27.579 77.6143 27.7362 77.5983 27.8955 77.5642C28.0568 77.5262 28.1977 77.4402 28.3182 77.3101C28.4408 77.1721 28.5123 77.022 28.5327 76.8579C28.5449 76.7739 28.5531 76.6918 28.5592 76.6078C28.5653 76.5237 28.5674 76.4437 28.5674 76.3617V76.1416C28.5674 76.0835 28.5633 76.0195 28.5572 75.9515C28.5511 75.8834 28.5368 75.8174 28.5184 75.7514C28.5 75.6853 28.4755 75.6213 28.4449 75.5593C28.4142 75.4973 28.3734 75.4412 28.3244 75.3912C28.2611 75.3232 28.1937 75.2691 28.1222 75.2311C28.0507 75.1931 27.9731 75.1631 27.8955 75.1451C27.8159 75.1251 27.7383 75.1131 27.6586 75.1071C27.579 75.1011 27.5014 75.0991 27.4238 75.0991C27.3564 75.0991 27.2828 75.1011 27.1991 75.1051C27.1154 75.1091 27.0357 75.1211 26.952 75.1431C26.8683 75.1651 26.7907 75.1931 26.7151 75.2311C26.6395 75.2691 26.5722 75.3232 26.515 75.3912C26.4557 75.4572 26.4088 75.5333 26.3781 75.6213C26.3475 75.7094 26.323 75.7974 26.3087 75.8874C26.2944 75.9775 26.2842 76.0655 26.2822 76.1496C26.2801 76.2336 26.2781 76.3056 26.2781 76.3637Z" fill="#195950"/>
<path d="M29.8931 73.3281H30.7242V78.1985H29.8931V73.3281Z" fill="#195950"/>
<path d="M31.1895 78.1994V77.5751H32.5373C32.6231 77.5751 32.7109 77.5711 32.8028 77.5631C32.8947 77.5551 32.9825 77.5371 33.0662 77.5111C33.15 77.4851 33.2276 77.445 33.3011 77.393C33.3726 77.341 33.4338 77.271 33.4808 77.1849C33.5053 77.1369 33.5278 77.0809 33.5441 77.0148C33.5605 76.9488 33.5727 76.8808 33.5809 76.8107C33.589 76.7407 33.5952 76.6707 33.5972 76.6026C33.6013 76.5346 33.6033 76.4746 33.6033 76.4186C33.6033 76.3885 33.6033 76.3445 33.6033 76.2885C33.6033 76.2305 33.5993 76.1684 33.5952 76.1024C33.5911 76.0364 33.585 75.9683 33.5768 75.9003C33.5686 75.8323 33.5584 75.7742 33.5441 75.7242C33.5217 75.6482 33.4849 75.5741 33.4379 75.5021C33.391 75.4301 33.3297 75.368 33.2562 75.316C33.1826 75.264 33.0928 75.22 32.9866 75.1879C32.8804 75.1559 32.7579 75.1399 32.617 75.1399H31.2752V74.5156H32.8865C33.056 74.5156 33.2031 74.5296 33.3297 74.5556C33.4563 74.5837 33.5666 74.6177 33.6585 74.6577C33.7504 74.6977 33.828 74.7417 33.8892 74.7858C33.9505 74.8298 33.9995 74.8718 34.0363 74.9078C34.1404 75.0139 34.2221 75.1319 34.2793 75.26C34.3365 75.3881 34.3794 75.5181 34.408 75.6502C34.4366 75.7822 34.4509 75.9143 34.457 76.0444C34.4611 76.1744 34.4631 76.2945 34.4631 76.4065C34.4631 76.5186 34.4611 76.6287 34.457 76.7327C34.4529 76.8368 34.4427 76.9368 34.4284 77.0349C34.4141 77.1329 34.3916 77.2269 34.363 77.317C34.3345 77.407 34.2956 77.4931 34.2466 77.5751H34.9635V78.1994H31.1915H31.1895Z" fill="#195950"/>
<path d="M34.8965 78.1946V77.5703L36.4567 77.5743V78.1986L34.8965 78.1946Z" fill="#195950"/>
<path d="M36.3931 78.1946V77.5703L37.9533 77.5743V78.1986L36.3931 78.1946Z" fill="#195950"/>
<path d="M37.8916 78.1946V77.5703L39.4518 77.5743V78.1986L37.8916 78.1946Z" fill="#195950"/>
<path d="M39.3887 78.1946V77.5703L40.9489 77.5743V78.1986L39.3887 78.1946Z" fill="#195950"/>
<path d="M40.8862 78.1946V77.5703L42.4465 77.5743V78.1986L40.8862 78.1946Z" fill="#195950"/>
<path d="M42.3823 78.1946V77.5703L43.9426 77.5743V78.1986L42.3823 78.1946Z" fill="#195950"/>
<path d="M43.8779 77.5745H44.4845C44.4171 77.4764 44.366 77.3744 44.3293 77.2663C44.2925 77.1583 44.2639 77.0502 44.2435 76.9442C44.2231 76.8381 44.2108 76.7361 44.2067 76.636C44.2026 76.538 44.2006 76.4479 44.2006 76.3699C44.2006 76.2678 44.2047 76.1498 44.2149 76.0157C44.2251 75.8817 44.2455 75.7456 44.2782 75.6075C44.3109 75.4695 44.3599 75.3354 44.4232 75.2033C44.4865 75.0713 44.5743 74.9572 44.6846 74.8612C44.7888 74.7671 44.9052 74.6931 45.0338 74.641C45.1625 74.589 45.2932 74.551 45.43 74.525C45.5648 74.501 45.6996 74.485 45.8344 74.479C45.9692 74.473 46.0917 74.471 46.206 74.471C46.3204 74.471 46.4429 74.473 46.5757 74.479C46.7084 74.485 46.8432 74.499 46.978 74.525C47.1128 74.549 47.2455 74.589 47.3742 74.641C47.5028 74.6931 47.6213 74.7671 47.7234 74.8612C47.8337 74.9592 47.9215 75.0733 47.9848 75.2033C48.0481 75.3354 48.0971 75.4695 48.1278 75.6055C48.1604 75.7416 48.1809 75.8756 48.1911 76.0037C48.1992 76.1338 48.2054 76.2458 48.2054 76.3399C48.2054 76.634 48.1788 76.8801 48.1237 77.0782C48.0685 77.2763 47.9991 77.4404 47.9133 77.5725H48.5239V78.1968H43.8779V77.5725V77.5745ZM45.0604 76.3619C45.0604 76.4379 45.0604 76.516 45.0645 76.594C45.0665 76.672 45.0767 76.7501 45.093 76.8261C45.1094 76.9021 45.1339 76.9782 45.1645 77.0542C45.1951 77.1283 45.2421 77.2003 45.3013 77.2683C45.3565 77.3324 45.4178 77.3844 45.4851 77.4224C45.5525 77.4624 45.622 77.4924 45.6935 77.5144C45.7649 77.5365 45.8384 77.5505 45.914 77.5605C45.9896 77.5705 46.0631 77.5745 46.1346 77.5745H46.204C46.2816 77.5745 46.3612 77.5705 46.4409 77.5645C46.5205 77.5585 46.5981 77.5445 46.6758 77.5244C46.7534 77.5044 46.8269 77.4744 46.8984 77.4324C46.9698 77.3924 47.0372 77.3364 47.0985 77.2683C47.1618 77.2003 47.2088 77.1303 47.2435 77.0582C47.2782 76.9862 47.3027 76.9122 47.317 76.8361C47.3313 76.7601 47.3415 76.682 47.3456 76.604C47.3497 76.524 47.3517 76.4439 47.3517 76.3619V76.1418C47.3517 76.0817 47.3476 76.0177 47.3415 75.9497C47.3354 75.8836 47.3211 75.8156 47.3027 75.7496C47.2843 75.6836 47.2598 75.6195 47.2271 75.5575C47.1945 75.4955 47.1557 75.4414 47.1067 75.3914C47.0433 75.3254 46.976 75.2734 46.9045 75.2353C46.831 75.1973 46.7554 75.1673 46.6778 75.1473C46.6002 75.1273 46.5205 75.1133 46.4409 75.1073C46.3612 75.1013 46.2836 75.0993 46.206 75.0993C46.1386 75.0993 46.0651 75.1013 45.9834 75.1073C45.9018 75.1133 45.8201 75.1253 45.7363 75.1473C45.6546 75.1673 45.575 75.1973 45.4994 75.2353C45.4239 75.2734 45.3565 75.3254 45.2993 75.3914C45.2401 75.4574 45.1931 75.5335 45.1625 75.6215C45.1318 75.7096 45.1073 75.7976 45.093 75.8877C45.0787 75.9777 45.0685 76.0657 45.0665 76.1498C45.0645 76.2338 45.0624 76.3059 45.0624 76.3639L45.0604 76.3619ZM45.234 73.9647V73.3164H46.0631V73.9647H45.234ZM46.351 73.9647V73.3164H47.1802V73.9647H46.351Z" fill="#195950"/>
<path d="M48.4565 78.1968V77.5725H48.5403C48.6955 77.5725 48.818 77.5565 48.912 77.5225C49.0038 77.4884 49.0815 77.4324 49.1407 77.3524C49.204 77.2663 49.2448 77.1703 49.2632 77.0642C49.2836 76.9582 49.2938 76.8461 49.2959 76.7281C49.2938 76.7121 49.2918 76.6981 49.2918 76.684V76.636H49.2959V74.513H50.125V76.636L50.1414 77.1383C50.17 77.2363 50.2128 77.3144 50.2741 77.3704C50.3333 77.4284 50.4028 77.4724 50.4783 77.5024C50.5539 77.5325 50.6356 77.5525 50.7213 77.5625C50.8071 77.5725 50.8868 77.5765 50.9644 77.5765H51.0542V78.2008H50.7152C50.6335 78.2008 50.5518 78.1988 50.4681 78.1928C50.3844 78.1868 50.2986 78.1748 50.2128 78.1568C50.1271 78.1387 50.0433 78.1107 49.9616 78.0727C49.88 78.0347 49.8024 77.9847 49.7309 77.9226C49.6574 77.9867 49.5798 78.0367 49.5001 78.0727C49.4205 78.1087 49.3367 78.1367 49.253 78.1568C49.1672 78.1768 49.0794 78.1888 48.9896 78.1928C48.8997 78.1968 48.8058 78.1988 48.7077 78.1988H48.4586L48.4565 78.1968ZM48.7241 73.9647V73.3164H49.5532V73.9647H48.7241ZM49.8412 73.9647V73.3164H50.6703V73.9647H49.8412Z" fill="#195950"/>
<path d="M52.4055 77.5751H53.8371V74.5156H54.6682V77.5751H55.4422C55.479 77.5751 55.5198 77.5751 55.5627 77.5691C55.6056 77.5651 55.6505 77.5591 55.6955 77.5471C55.7404 77.5351 55.7853 77.5191 55.8282 77.4971C55.8711 77.4751 55.9099 77.443 55.9446 77.403C55.9793 77.367 56.0079 77.327 56.0284 77.283C56.0488 77.239 56.0651 77.1929 56.0774 77.1469C56.0896 77.1009 56.0958 77.0549 56.0998 77.0088C56.1039 76.9628 56.106 76.9208 56.106 76.8808V74.5176H56.9351V77.0068C56.9351 77.1929 56.9065 77.365 56.8493 77.5211C56.7921 77.6792 56.7064 77.8072 56.5961 77.9093C56.5267 77.9693 56.4511 78.0193 56.3674 78.0594C56.2836 78.0974 56.1999 78.1274 56.1162 78.1474C56.0324 78.1674 55.9487 78.1814 55.865 78.1894C55.7813 78.1974 55.7057 78.2014 55.6363 78.2014H50.9678V77.5771H51.5784V74.5176H52.4096V77.5771L52.4055 77.5751Z" fill="#195950"/>
<path d="M57.477 78.1953V77.571H58.59L57.6057 73.3289H58.4369L59.4212 77.571H59.6091C59.7643 77.571 59.8868 77.555 59.9808 77.5209C60.0727 77.4869 60.1503 77.4309 60.2095 77.3508C60.2769 77.2628 60.3198 77.1628 60.3382 77.0487C60.3565 76.9347 60.3668 76.8186 60.3668 76.6965V73.3349H61.1959V76.9427C61.1959 77.0787 61.1857 77.1988 61.1632 77.3028C61.1408 77.4069 61.1101 77.4989 61.0713 77.579H61.6043V78.2033L57.4791 78.1993L57.477 78.1953ZM57.6465 72.7886H58.0652C58.0815 72.7886 58.0897 72.7826 58.0897 72.7686C58.0897 72.7646 58.0897 72.7606 58.0897 72.7586C58.0897 72.7566 58.0795 72.7526 58.0631 72.7466C58.0468 72.7406 58.0203 72.7326 57.9835 72.7206C57.9467 72.7086 57.8936 72.6926 57.8242 72.6706C57.7568 72.6486 57.7098 72.6186 57.6813 72.5845C57.6527 72.5505 57.6384 72.5025 57.6384 72.4425C57.6384 72.3664 57.6588 72.3124 57.6976 72.2804C57.7364 72.2504 57.7895 72.2344 57.8528 72.2344H58.3695V72.4285H57.9508C57.9508 72.4285 57.9386 72.4285 57.9243 72.4285C57.912 72.4285 57.9059 72.4325 57.9059 72.4445C57.9059 72.4485 57.91 72.4545 57.9182 72.4605C57.9263 72.4665 57.9406 72.4725 57.959 72.4785C57.9774 72.4845 58.006 72.4945 58.0407 72.5065C58.0754 72.5185 58.1183 72.5325 58.1734 72.5505C58.2469 72.5745 58.3021 72.6066 58.3388 72.6426C58.3756 72.6786 58.3919 72.7306 58.3919 72.7986C58.3919 72.8567 58.3756 72.9047 58.3409 72.9407C58.3082 72.9767 58.2612 72.9947 58.2 72.9947H57.6486V72.7906L57.6465 72.7886Z" fill="#195950"/>
<path d="M61.5322 78.1964V77.5721H61.9386C62.0938 77.5721 62.2164 77.5561 62.3103 77.5221C62.4022 77.488 62.4798 77.432 62.539 77.352C62.6064 77.2639 62.6493 77.1639 62.6677 77.0498C62.6861 76.9358 62.6963 76.8197 62.6963 76.6977V73.332H63.5254V76.9418C63.5254 77.0678 63.5152 77.1819 63.4968 77.2819C63.4764 77.382 63.4499 77.47 63.4172 77.5461C63.3845 77.6221 63.3437 77.6901 63.2987 77.7482C63.2538 77.8062 63.2068 77.8562 63.1578 77.9003C63.0823 77.9683 63.0026 78.0223 62.9209 78.0623C62.8392 78.1024 62.7535 78.1324 62.6656 78.1524C62.5778 78.1724 62.488 78.1864 62.3961 78.1924C62.3042 78.1984 62.2082 78.2004 62.1081 78.2004H61.5363L61.5322 78.1964Z" fill="#195950"/>
<path d="M66.9345 78.1992C66.8365 78.1992 66.7344 78.1912 66.6241 78.1752C66.5138 78.1592 66.4056 78.1252 66.2973 78.0732C66.1891 78.0211 66.085 77.9471 65.9869 77.853C65.8889 77.757 65.8031 77.6309 65.7316 77.4689C65.7092 77.4148 65.6867 77.3508 65.6643 77.2808C65.6418 77.2087 65.6234 77.1267 65.605 77.0326C65.5887 76.9386 65.5744 76.8325 65.5642 76.7125C65.554 76.5924 65.5479 76.4564 65.5479 76.3023C65.5479 76.2042 65.5499 76.1022 65.556 75.9941C65.5621 75.8861 65.5744 75.78 65.5969 75.672C65.6173 75.5639 65.6479 75.4579 65.6847 75.3538C65.7214 75.2498 65.7745 75.1517 65.8378 75.0617C65.9277 74.9316 66.0319 74.8316 66.1462 74.7575C66.2626 74.6835 66.377 74.6295 66.4954 74.5935C66.6118 74.5574 66.7242 74.5354 66.8324 74.5274C66.9406 74.5194 67.0305 74.5154 67.104 74.5154H68.217V74.0912H69.0482V77.5769H69.7997V78.2012H66.9325L66.9345 78.1992ZM66.5077 77.1567C66.5485 77.2487 66.6016 77.3228 66.6629 77.3768C66.7242 77.4308 66.7895 77.4729 66.8589 77.5029C66.9284 77.5329 66.9978 77.5509 67.0693 77.5609C67.1408 77.5709 67.2061 77.5749 67.2694 77.5749H68.215C68.215 77.5429 68.215 77.5089 68.215 77.4748C68.215 77.4388 68.215 77.4068 68.215 77.3788V75.1397H67.2653C67.2102 75.1397 67.151 75.1437 67.0877 75.1497C67.0244 75.1557 66.9631 75.1717 66.8998 75.1958C66.8365 75.2198 66.7773 75.2538 66.7201 75.2958C66.6629 75.3398 66.6118 75.3958 66.5669 75.4659C66.5465 75.4999 66.5261 75.5399 66.5056 75.5859C66.4852 75.632 66.4689 75.69 66.4546 75.76C66.4403 75.8301 66.428 75.9101 66.4178 76.0021C66.4076 76.0942 66.4035 76.2042 66.4035 76.3283C66.4035 76.4724 66.4076 76.5944 66.4158 76.6945C66.424 76.7925 66.4321 76.8746 66.4444 76.9366C66.4566 76.9986 66.4648 77.0487 66.4771 77.0827C66.4893 77.1167 66.4975 77.1407 66.5056 77.1567H66.5077ZM66.5873 73.4569V72.8086H67.4165V73.4569H66.5873ZM67.7044 73.4569V72.8086H68.5335V73.4569H67.7044Z" fill="#195950"/>
<path d="M69.7178 78.1946V77.5703L71.278 77.5743V78.1986L69.7178 78.1946Z" fill="#195950"/>
<path d="M71.2144 78.1946V77.5703L72.7746 77.5743V78.1986L71.2144 78.1946Z" fill="#195950"/>
<path d="M72.7134 78.1946V77.5703L74.2736 77.5743V78.1986L72.7134 78.1946Z" fill="#195950"/>
<path d="M74.2104 78.1946V77.5703L75.7707 77.5743V78.1986L74.2104 78.1946Z" fill="#195950"/>
<path d="M75.708 78.1946V77.5703L77.2683 77.5743V78.1986L75.708 78.1946Z" fill="#195950"/>
<path d="M77.2046 78.1945V77.5702H77.2883C77.4435 77.5702 77.5661 77.5542 77.66 77.5202C77.7519 77.4861 77.8295 77.4301 77.8887 77.3501C77.952 77.264 77.9929 77.168 78.0113 77.0619C78.0317 76.9559 78.0419 76.8438 78.0439 76.7258C78.0419 76.7098 78.0399 76.6958 78.0399 76.6818V76.6337H78.0439V74.5107H78.8731V76.6337L78.8894 77.136C78.918 77.234 78.9609 77.3121 79.0222 77.3681C79.0814 77.4261 79.1508 77.4701 79.2264 77.5001C79.3019 77.5302 79.3836 77.5502 79.4694 77.5602C79.5552 77.5702 79.6348 77.5742 79.7124 77.5742H79.8023V78.1985H79.4633C79.3816 78.1985 79.2999 78.1965 79.2162 78.1905C79.1324 78.1845 79.0467 78.1725 78.9609 78.1545C78.8751 78.1365 78.7914 78.1084 78.7097 78.0704C78.628 78.0324 78.5504 77.9824 78.4789 77.9204C78.4054 77.9844 78.3278 78.0344 78.2482 78.0704C78.1685 78.1064 78.0868 78.1345 78.0011 78.1545C77.9153 78.1745 77.8275 78.1865 77.7376 78.1905C77.6477 78.1945 77.5538 78.1965 77.4558 78.1965H77.2066L77.2046 78.1945ZM78.0337 73.9764V73.3281H78.8629V73.9764H78.0337Z" fill="#195950"/>
<path d="M79.728 77.5745H80.3346C80.2672 77.4764 80.2161 77.3744 80.1794 77.2663C80.1426 77.1583 80.114 77.0502 80.0936 76.9442C80.0732 76.8381 80.0609 76.7361 80.0568 76.636C80.0527 76.538 80.0507 76.4479 80.0507 76.3699C80.0507 76.2678 80.0548 76.1498 80.065 76.0157C80.0732 75.8817 80.0956 75.7456 80.1283 75.6075C80.161 75.4695 80.21 75.3354 80.2733 75.2033C80.3366 75.0713 80.4244 74.9572 80.5347 74.8612C80.6389 74.7671 80.7553 74.6931 80.8839 74.641C81.0126 74.589 81.1433 74.551 81.2801 74.525C81.4149 74.501 81.5497 74.485 81.6845 74.479C81.8192 74.473 81.9418 74.471 82.0561 74.471C82.1705 74.471 82.293 74.473 82.4258 74.479C82.5585 74.485 82.6933 74.499 82.8281 74.525C82.9629 74.549 83.0956 74.589 83.2243 74.641C83.3529 74.6931 83.4714 74.7671 83.5735 74.8612C83.6838 74.9592 83.7716 75.0733 83.8349 75.2033C83.8982 75.3334 83.9472 75.4695 83.9799 75.6055C84.0126 75.7416 84.033 75.8756 84.0412 76.0037C84.0514 76.1338 84.0555 76.2458 84.0555 76.3399C84.0555 76.634 84.0289 76.8801 83.9738 77.0782C83.9186 77.2763 83.8492 77.4404 83.7634 77.5725H84.374V78.1968H79.728V77.5725V77.5745ZM80.9105 76.3619C80.9105 76.4379 80.9105 76.516 80.9145 76.594C80.9166 76.672 80.9268 76.7501 80.9431 76.8261C80.9595 76.9021 80.984 76.9782 81.0146 77.0542C81.0452 77.1283 81.0922 77.2003 81.1515 77.2683C81.2066 77.3324 81.2678 77.3844 81.3352 77.4224C81.4026 77.4624 81.4721 77.4924 81.5436 77.5144C81.615 77.5365 81.6886 77.5505 81.7641 77.5605C81.8397 77.5705 81.9132 77.5745 81.9847 77.5745H82.0541C82.1317 77.5745 82.2113 77.5705 82.291 77.5645C82.3706 77.5585 82.4482 77.5445 82.5259 77.5244C82.6014 77.5044 82.677 77.4744 82.7485 77.4324C82.8199 77.3924 82.8873 77.3364 82.9486 77.2683C83.0119 77.2003 83.0589 77.1303 83.0936 77.0582C83.1283 76.9862 83.1528 76.9122 83.1671 76.8361C83.1814 76.7601 83.1916 76.682 83.1957 76.604C83.1998 76.524 83.2018 76.4439 83.2018 76.3619V76.1418C83.2018 76.0817 83.1977 76.0177 83.1916 75.9497C83.1855 75.8836 83.1712 75.8156 83.1528 75.7496C83.1344 75.6836 83.1099 75.6195 83.0793 75.5575C83.0487 75.4955 83.0078 75.4414 82.9588 75.3914C82.8955 75.3254 82.8281 75.2734 82.7566 75.2353C82.6831 75.1973 82.6075 75.1673 82.5299 75.1473C82.4503 75.1273 82.3727 75.1133 82.293 75.1073C82.2134 75.1013 82.1358 75.0993 82.0582 75.0993C81.9908 75.0993 81.9173 75.1013 81.8335 75.1073C81.7519 75.1133 81.6702 75.1253 81.5864 75.1473C81.5048 75.1673 81.4251 75.1973 81.3495 75.2353C81.274 75.2734 81.2066 75.3254 81.1474 75.3914C81.0881 75.4574 81.0412 75.5335 81.0105 75.6215C80.9799 75.7096 80.9554 75.7976 80.9411 75.8877C80.9268 75.9777 80.9166 76.0657 80.9145 76.1498C80.9125 76.2338 80.9105 76.3059 80.9105 76.3639V76.3619ZM81.0841 73.9647V73.3164H81.9132V73.9647H81.0841ZM82.2011 73.9647V73.3164H83.0303V73.9647H82.2011Z" fill="#195950"/>
<path d="M84.3096 78.1968V77.5725H84.3933C84.5485 77.5725 84.671 77.5565 84.765 77.5225C84.8569 77.4884 84.9345 77.4324 84.9937 77.3524C85.057 77.2663 85.0979 77.1703 85.1162 77.0642C85.1367 76.9582 85.1469 76.8461 85.1489 76.7281C85.1469 76.7121 85.1448 76.6981 85.1448 76.684V76.636H85.1489V74.513H85.9781V76.636L85.9944 77.1383C86.023 77.2363 86.0659 77.3144 86.1271 77.3704C86.1864 77.4284 86.2558 77.4724 86.3314 77.5024C86.4069 77.5325 86.4886 77.5525 86.5744 77.5625C86.6602 77.5725 86.7398 77.5765 86.8174 77.5765H86.9073V78.2008H86.5682C86.4866 78.2008 86.4049 78.1988 86.3211 78.1928C86.2374 78.1868 86.1516 78.1748 86.0659 78.1568C85.9801 78.1387 85.8964 78.1107 85.8147 78.0727C85.733 78.0347 85.6554 77.9847 85.5839 77.9226C85.5104 77.9867 85.4328 78.0367 85.3531 78.0727C85.2735 78.1087 85.1918 78.1367 85.106 78.1568C85.0203 78.1768 84.9325 78.1888 84.8426 78.1928C84.7527 78.1968 84.6588 78.1988 84.5608 78.1988H84.3116L84.3096 78.1968ZM84.5771 73.9647V73.3164H85.4062V73.9647H84.5771ZM85.6942 73.9647V73.3164H86.5233V73.9647H85.6942Z" fill="#195950"/>
<path d="M86.8146 78.2005V77.5762H86.9535C87.0086 77.5762 87.072 77.5742 87.1434 77.5702C87.2149 77.5662 87.2864 77.5521 87.3599 77.5281C87.4334 77.5041 87.5029 77.4661 87.5703 77.4161C87.6376 77.3661 87.6928 77.294 87.7398 77.2C87.7602 77.158 87.7826 77.0919 87.8092 77.0039C87.8337 76.9158 87.8521 76.7838 87.8602 76.6097C87.8582 76.5637 87.8562 76.5216 87.8562 76.4836V76.3716C87.8562 76.2695 87.8602 76.1515 87.8705 76.0174C87.8786 75.8833 87.9011 75.7473 87.9338 75.6092C87.9664 75.4711 88.0155 75.3371 88.0788 75.205C88.1421 75.0729 88.2299 74.9589 88.3402 74.8628C88.4443 74.7688 88.5607 74.6948 88.6894 74.6427C88.818 74.5907 88.9487 74.5527 89.0835 74.5267C89.2183 74.5027 89.3531 74.4867 89.4879 74.4807C89.6227 74.4747 89.7452 74.4727 89.8596 74.4727C89.9739 74.4727 90.0965 74.4747 90.2292 74.4807C90.362 74.4867 90.4967 74.5007 90.6315 74.5267C90.7663 74.5507 90.899 74.5907 91.0277 74.6427C91.1564 74.6948 91.2748 74.7688 91.3769 74.8628C91.4872 74.9609 91.575 75.0749 91.6383 75.205C91.7016 75.3371 91.7506 75.4711 91.7813 75.6072C91.8119 75.7433 91.8344 75.8773 91.8446 76.0054C91.8528 76.1355 91.8589 76.2475 91.8589 76.3416C91.8589 76.5377 91.8466 76.7157 91.8221 76.8738C91.7976 77.0319 91.7649 77.172 91.7221 77.294C91.6792 77.4161 91.6281 77.5241 91.5689 77.6142C91.5097 77.7062 91.4464 77.7843 91.3769 77.8463C91.2769 77.9383 91.1625 78.0124 91.0318 78.0644C90.9011 78.1164 90.7663 78.1564 90.6274 78.1805C90.4886 78.2045 90.3517 78.2225 90.219 78.2305C90.0842 78.2365 89.9637 78.2405 89.8575 78.2405C89.7452 78.2405 89.6206 78.2365 89.4858 78.2305C89.3511 78.2245 89.2163 78.2065 89.0815 78.1805C88.9467 78.1544 88.814 78.1144 88.6873 78.0644C88.5587 78.0124 88.4423 77.9403 88.3381 77.8463C88.332 77.8423 88.3218 77.8323 88.3075 77.8183C88.2299 77.9003 88.1421 77.9663 88.0502 78.0144C87.9562 78.0644 87.8602 78.1024 87.7622 78.1304C87.6642 78.1584 87.5662 78.1765 87.4661 78.1845C87.366 78.1945 87.2721 78.1985 87.1822 78.1985H86.8105L86.8146 78.2005ZM88.9528 75.3911C88.8814 75.4771 88.8303 75.5712 88.7976 75.6732C88.767 75.7753 88.7466 75.8813 88.7363 75.9894C88.7261 76.0974 88.7221 76.2055 88.7241 76.3115C88.7261 76.4176 88.7241 76.5196 88.72 76.6137C88.7261 76.7357 88.7466 76.8578 88.7792 76.9779C88.8119 77.0979 88.8711 77.208 88.959 77.31C89.0223 77.3781 89.0897 77.4321 89.1611 77.4721C89.2346 77.5121 89.3082 77.5441 89.3858 77.5641C89.4634 77.5842 89.543 77.5982 89.6227 77.6042C89.7023 77.6102 89.782 77.6142 89.8575 77.6142C89.9331 77.6142 90.0148 77.6102 90.0944 77.6042C90.1741 77.5982 90.2517 77.5842 90.3293 77.5641C90.4048 77.5441 90.4804 77.5141 90.5519 77.4721C90.6233 77.4321 90.6907 77.3781 90.752 77.31C90.8133 77.242 90.8623 77.17 90.895 77.0939C90.9276 77.0179 90.9542 76.9399 90.9705 76.8578C90.9869 76.7758 90.995 76.6937 90.9991 76.6097C91.0012 76.5257 91.0032 76.4436 91.0032 76.3616V76.1415C91.0032 76.0814 90.9991 76.0174 90.993 75.9494C90.9869 75.8833 90.9726 75.8153 90.9542 75.7493C90.9358 75.6832 90.9113 75.6192 90.8786 75.5572C90.848 75.4951 90.8071 75.4411 90.7581 75.3911C90.6969 75.3251 90.6274 75.273 90.556 75.235C90.4824 75.197 90.4069 75.167 90.3293 75.147C90.2517 75.127 90.172 75.113 90.0924 75.107C90.0127 75.101 89.9351 75.099 89.8575 75.099C89.7901 75.099 89.7166 75.101 89.6349 75.107C89.5532 75.113 89.4715 75.125 89.3878 75.147C89.3061 75.167 89.2265 75.197 89.1509 75.235C89.0754 75.273 89.008 75.3251 88.9508 75.3911H88.9528Z" fill="#195950"/>
<path d="M95.1264 78.1992C95.0284 78.1992 94.9263 78.1912 94.816 78.1752C94.7057 78.1592 94.5975 78.1252 94.4892 78.0732C94.381 78.0211 94.2769 77.9471 94.1788 77.853C94.0808 77.757 93.995 77.6309 93.9235 77.4689C93.9011 77.4148 93.8786 77.3508 93.8562 77.2808C93.8337 77.2087 93.8153 77.1267 93.7969 77.0326C93.7806 76.9386 93.7663 76.8325 93.7561 76.7125C93.7459 76.5924 93.7397 76.4564 93.7397 76.3023C93.7397 76.2042 93.7418 76.1022 93.7479 75.9941C93.754 75.8861 93.7663 75.78 93.7888 75.672C93.8092 75.5639 93.8398 75.4579 93.8766 75.3538C93.9133 75.2498 93.9664 75.1517 94.0297 75.0617C94.1196 74.9316 94.2238 74.8316 94.3381 74.7575C94.4545 74.6835 94.5689 74.6295 94.6873 74.5935C94.8037 74.5574 94.9161 74.5354 95.0243 74.5274C95.1325 74.5194 95.2224 74.5154 95.2959 74.5154H96.4089V74.0912H97.2401V77.5769H97.9916V78.2012H95.1244L95.1264 78.1992ZM94.6996 77.1567C94.7404 77.2487 94.7935 77.3228 94.8548 77.3768C94.9161 77.4308 94.9814 77.4729 95.0509 77.5029C95.1203 77.5329 95.1897 77.5509 95.2612 77.5609C95.3327 77.5709 95.398 77.5749 95.4613 77.5749H96.4069C96.4069 77.5429 96.4069 77.5089 96.4069 77.4748C96.4069 77.4388 96.4069 77.4068 96.4069 77.3788V75.1397H95.4572C95.4021 75.1397 95.3429 75.1437 95.2796 75.1497C95.2163 75.1557 95.155 75.1717 95.0917 75.1958C95.0284 75.2198 94.9692 75.2538 94.912 75.2958C94.8548 75.3398 94.8037 75.3958 94.7588 75.4659C94.7384 75.4999 94.718 75.5399 94.6975 75.5859C94.6771 75.632 94.6608 75.69 94.6465 75.76C94.6322 75.8301 94.6199 75.9101 94.6097 76.0021C94.5995 76.0942 94.5954 76.2042 94.5954 76.3283C94.5954 76.4724 94.5995 76.5944 94.6077 76.6945C94.6159 76.7925 94.624 76.8746 94.6363 76.9366C94.6485 76.9986 94.6567 77.0487 94.669 77.0827C94.6812 77.1167 94.6894 77.1407 94.6975 77.1567H94.6996ZM94.7792 73.4569V72.8086H95.6084V73.4569H94.7792ZM95.8963 73.4569V72.8086H96.7255V73.4569H95.8963Z" fill="#195950"/>
<path d="M99.0213 75.0472C99.0151 75.1632 99.0458 75.2632 99.1172 75.3513C99.1867 75.4393 99.3092 75.4954 99.4787 75.5194H101.915C102.105 75.5194 102.264 75.5474 102.395 75.6054C102.526 75.6634 102.632 75.7475 102.714 75.8575C102.795 75.9676 102.854 76.1057 102.893 76.2697C102.93 76.4338 102.952 76.6219 102.959 76.832C102.959 76.836 102.959 76.84 102.959 76.842C102.959 76.844 102.959 76.846 102.959 76.848V77.0181C102.955 77.2282 102.932 77.4083 102.895 77.5584C102.859 77.7084 102.797 77.8305 102.718 77.9245C102.636 78.0206 102.532 78.0886 102.401 78.1326C102.27 78.1767 102.111 78.1967 101.921 78.1967H97.896V77.5724H101.588C101.692 77.5724 101.776 77.5544 101.842 77.5163C101.907 77.4783 101.958 77.4283 101.997 77.3623C102.036 77.2962 102.06 77.2202 102.074 77.1322C102.089 77.0441 102.097 76.9501 102.103 76.848C102.099 76.746 102.089 76.6519 102.074 76.5659C102.06 76.4798 102.034 76.4058 101.997 76.3438C101.958 76.2817 101.907 76.2317 101.842 76.1957C101.776 76.1597 101.692 76.1417 101.588 76.1417H99.4848C99.2418 76.1417 99.0437 76.1077 98.8865 76.0416C98.7292 75.9756 98.6067 75.8896 98.5168 75.7835C98.427 75.6775 98.3657 75.5614 98.3351 75.4333C98.3044 75.3053 98.2922 75.1812 98.2983 75.0611C98.3044 74.9391 98.3228 74.817 98.3514 74.693C98.38 74.5689 98.429 74.4549 98.5005 74.3488C98.572 74.2428 98.6679 74.1487 98.7884 74.0647C98.9089 73.9826 99.0662 73.9186 99.2541 73.8766L101.729 73.3203V73.9526L99.5318 74.5089C99.4338 74.5329 99.3541 74.5669 99.2908 74.6049C99.2275 74.645 99.1765 74.689 99.1377 74.737C99.0989 74.785 99.0723 74.837 99.0539 74.8891C99.0376 74.9431 99.0274 74.9931 99.0253 75.0431L99.0213 75.0472Z" fill="#195950"/>
<path d="M103.267 78.8078C103.379 78.8098 103.479 78.8078 103.561 78.8078C103.642 78.8078 103.718 78.7958 103.781 78.7838C103.845 78.7718 103.902 78.7538 103.951 78.7338C104 78.7118 104.049 78.6837 104.098 78.6497C104.147 78.6157 104.188 78.5777 104.224 78.5377C104.259 78.4977 104.29 78.4496 104.314 78.3936C104.339 78.3376 104.357 78.2735 104.369 78.1995C104.382 78.1255 104.388 78.0394 104.388 77.9394V74.5117H105.217V77.5712H105.834V78.1955H105.213C105.207 78.3436 105.184 78.4696 105.148 78.5777C105.111 78.6857 105.068 78.7778 105.019 78.8538C104.97 78.9299 104.921 78.9939 104.868 79.0439C104.817 79.0939 104.772 79.134 104.735 79.162C104.582 79.268 104.388 79.3441 104.153 79.3881C103.918 79.4321 103.622 79.4481 103.265 79.4341V78.8058L103.267 78.8078Z" fill="#195950"/>
<path d="M105.753 78.1946V77.5703L107.313 77.5743V78.1986L105.753 78.1946Z" fill="#195950"/>
<path d="M107.251 78.1946V77.5703L108.811 77.5743V78.1986L107.251 78.1946Z" fill="#195950"/>
<path d="M110.169 77.5769H111.601V74.5174H112.432V77.5769H113.206C113.243 77.5769 113.284 77.5769 113.326 77.5709C113.369 77.5649 113.414 77.5609 113.459 77.5489C113.504 77.5369 113.549 77.5209 113.592 77.4989C113.635 77.4769 113.674 77.4448 113.708 77.4048C113.743 77.3688 113.772 77.3288 113.792 77.2848C113.813 77.2407 113.829 77.1947 113.841 77.1487C113.853 77.1027 113.86 77.0567 113.864 77.0106C113.868 76.9646 113.87 76.9226 113.87 76.8826V74.5194H114.699V77.0086C114.699 77.1947 114.67 77.3668 114.613 77.5229C114.556 77.681 114.47 77.809 114.36 77.9111C114.29 77.9711 114.215 78.0211 114.131 78.0611C114.047 78.0992 113.964 78.1292 113.88 78.1492C113.796 78.1692 113.712 78.1832 113.629 78.1912C113.545 78.1992 113.469 78.2032 113.4 78.2032H108.729V77.5789H109.34V74.5194H110.171V77.5789L110.169 77.5769ZM110.324 73.4569V72.8086H111.154V73.4569H110.324ZM111.442 73.4569V72.8086H112.271V73.4569H111.442ZM112.569 73.4569V72.8086H113.398V73.4569H112.569Z" fill="#195950"/>
</svg>
