<svg width="25" height="24" viewBox="0 0 25 24" fill="none" xmlns="http://www.w3.org/2000/svg">
<path d="M17.6666 21.75H7.66663C3.25663 21.75 1.91663 20.41 1.91663 16V8C1.91663 3.59 3.25663 2.25 7.66663 2.25H17.6666C22.0766 2.25 23.4166 3.59 23.4166 8V16C23.4166 20.41 22.0766 21.75 17.6666 21.75ZM7.66663 3.75C4.08663 3.75 3.41663 4.43 3.41663 8V16C3.41663 19.57 4.08663 20.25 7.66663 20.25H17.6666C21.2466 20.25 21.9166 19.57 21.9166 16V8C21.9166 4.43 21.2466 3.75 17.6666 3.75H7.66663Z" fill="#808080" fill-opacity="0.8"/>
<path d="M19.6666 8.75H14.6666C14.2566 8.75 13.9166 8.41 13.9166 8C13.9166 7.59 14.2566 7.25 14.6666 7.25H19.6666C20.0766 7.25 20.4166 7.59 20.4166 8C20.4166 8.41 20.0766 8.75 19.6666 8.75Z" fill="#808080" fill-opacity="0.8"/>
<path d="M19.6666 12.75H15.6666C15.2566 12.75 14.9166 12.41 14.9166 12C14.9166 11.59 15.2566 11.25 15.6666 11.25H19.6666C20.0766 11.25 20.4166 11.59 20.4166 12C20.4166 12.41 20.0766 12.75 19.6666 12.75Z" fill="#808080" fill-opacity="0.8"/>
<path d="M19.6666 16.75H17.6666C17.2566 16.75 16.9166 16.41 16.9166 16C16.9166 15.59 17.2566 15.25 17.6666 15.25H19.6666C20.0766 15.25 20.4166 15.59 20.4166 16C20.4166 16.41 20.0766 16.75 19.6666 16.75Z" fill="#808080" fill-opacity="0.8"/>
<path d="M9.16663 12.0399C7.75663 12.0399 6.60663 10.8899 6.60663 9.47992C6.60663 8.06992 7.75663 6.91992 9.16663 6.91992C10.5766 6.91992 11.7266 8.06992 11.7266 9.47992C11.7266 10.8899 10.5766 12.0399 9.16663 12.0399ZM9.16663 8.41992C8.58663 8.41992 8.10663 8.89992 8.10663 9.47992C8.10663 10.0599 8.58663 10.5399 9.16663 10.5399C9.74663 10.5399 10.2266 10.0599 10.2266 9.47992C10.2266 8.89992 9.74663 8.41992 9.16663 8.41992Z" fill="#808080" fill-opacity="0.8"/>
<path d="M12.6667 17.0798C12.2867 17.0798 11.9567 16.7898 11.9167 16.3998C11.8067 15.3198 10.9367 14.4498 9.84665 14.3498C9.38665 14.3098 8.92665 14.3098 8.46665 14.3498C7.37665 14.4498 6.50665 15.3098 6.39665 16.3998C6.35665 16.8098 5.98665 17.1198 5.57665 17.0698C5.16665 17.0298 4.86665 16.6598 4.90665 16.2498C5.08665 14.4498 6.51665 13.0198 8.32665 12.8598C8.87665 12.8098 9.43665 12.8098 9.98665 12.8598C11.7867 13.0298 13.2267 14.4598 13.4067 16.2498C13.4467 16.6598 13.1467 17.0298 12.7367 17.0698C12.7167 17.0798 12.6867 17.0798 12.6667 17.0798Z" fill="#808080" fill-opacity="0.8"/>
</svg>
