<svg width="25" height="24" viewBox="0 0 25 24" fill="none" xmlns="http://www.w3.org/2000/svg">
<path d="M9.82968 11.62C9.79967 11.62 9.77968 11.62 9.74968 11.62C9.69968 11.61 9.62967 11.61 9.56967 11.62C6.66967 11.53 4.47968 9.25 4.47968 6.44C4.47968 3.58 6.80968 1.25 9.66968 1.25C12.5297 1.25 14.8597 3.58 14.8597 6.44C14.8497 9.25 12.6497 11.53 9.85967 11.62C9.84967 11.62 9.83968 11.62 9.82968 11.62ZM9.66968 2.75C7.63968 2.75 5.97968 4.41 5.97968 6.44C5.97968 8.44 7.53967 10.05 9.52968 10.12C9.58967 10.11 9.71968 10.11 9.84968 10.12C11.8097 10.03 13.3497 8.42 13.3597 6.44C13.3597 4.41 11.6997 2.75 9.66968 2.75Z" fill="#808080" fill-opacity="0.8"/>
<path d="M17.2097 11.75C17.1797 11.75 17.1497 11.75 17.1197 11.74C16.7097 11.78 16.2897 11.49 16.2497 11.08C16.2097 10.67 16.4597 10.3 16.8697 10.25C16.9897 10.24 17.1197 10.24 17.2297 10.24C18.6897 10.16 19.8297 8.96 19.8297 7.49C19.8297 5.97 18.5997 4.74 17.0797 4.74C16.6697 4.75 16.3297 4.41 16.3297 4C16.3297 3.59 16.6697 3.25 17.0797 3.25C19.4197 3.25 21.3297 5.16 21.3297 7.5C21.3297 9.8 19.5297 11.66 17.2397 11.75C17.2297 11.75 17.2197 11.75 17.2097 11.75Z" fill="#808080" fill-opacity="0.8"/>
<path d="M9.83965 22.55C7.87965 22.55 5.90965 22.05 4.41965 21.05C3.02965 20.13 2.26965 18.87 2.26965 17.5C2.26965 16.13 3.02965 14.86 4.41965 13.93C7.41965 11.94 12.2797 11.94 15.2597 13.93C16.6397 14.85 17.4097 16.11 17.4097 17.48C17.4097 18.85 16.6497 20.12 15.2597 21.05C13.7597 22.05 11.7997 22.55 9.83965 22.55ZM5.24965 15.19C4.28965 15.83 3.76965 16.65 3.76965 17.51C3.76965 18.36 4.29965 19.18 5.24965 19.81C7.73965 21.48 11.9397 21.48 14.4297 19.81C15.3897 19.17 15.9097 18.35 15.9097 17.49C15.9097 16.64 15.3797 15.82 14.4297 15.19C11.9397 13.53 7.73965 13.53 5.24965 15.19Z" fill="#808080" fill-opacity="0.8"/>
<path d="M19.0097 20.75C18.6597 20.75 18.3497 20.51 18.2797 20.15C18.1997 19.74 18.4597 19.35 18.8597 19.26C19.4897 19.13 20.0697 18.88 20.5197 18.53C21.0897 18.1 21.3997 17.56 21.3997 16.99C21.3997 16.42 21.0897 15.88 20.5297 15.46C20.0897 15.12 19.5397 14.88 18.8897 14.73C18.4897 14.64 18.2297 14.24 18.3197 13.83C18.4097 13.43 18.8097 13.17 19.2197 13.26C20.0797 13.45 20.8297 13.79 21.4397 14.26C22.3697 14.96 22.8997 15.95 22.8997 16.99C22.8997 18.03 22.3597 19.02 21.4297 19.73C20.8097 20.21 20.0297 20.56 19.1697 20.73C19.1097 20.75 19.0597 20.75 19.0097 20.75Z" fill="#808080" fill-opacity="0.8"/>
</svg>
