<svg width="24" height="24" viewBox="0 0 24 24" fill="none" xmlns="http://www.w3.org/2000/svg">
<path d="M12 22.75C6.07 22.75 1.25 17.93 1.25 12C1.25 6.07 6.07 1.25 12 1.25C17.93 1.25 22.75 6.07 22.75 12C22.75 17.93 17.93 22.75 12 22.75ZM12 2.75C6.9 2.75 2.75 6.9 2.75 12C2.75 17.1 6.9 21.25 12 21.25C17.1 21.25 21.25 17.1 21.25 12C21.25 6.9 17.1 2.75 12 2.75Z" fill="black"/>
<path d="M15.71 15.9317C15.58 15.9317 15.45 15.9017 15.33 15.8217L12.23 13.9717C11.46 13.5117 10.89 12.5017 10.89 11.6117V7.51172C10.89 7.10172 11.23 6.76172 11.64 6.76172C12.05 6.76172 12.39 7.10172 12.39 7.51172V11.6117C12.39 11.9717 12.69 12.5017 13 12.6817L16.1 14.5317C16.46 14.7417 16.57 15.2017 16.36 15.5617C16.21 15.8017 15.96 15.9317 15.71 15.9317Z" fill="black"/>
</svg>
