<svg width="24" height="24" viewBox="0 0 24 24" fill="none" xmlns="http://www.w3.org/2000/svg">
<path d="M9.4802 20.6886C8.9802 20.6886 8.6302 20.5186 8.4202 20.3586C8.0202 20.0686 7.40019 19.3186 7.79019 17.6386L8.36017 15.1786C8.41017 14.9686 8.30018 14.5886 8.15018 14.4286L6.16019 12.4386C5.11019 11.3886 5.20018 10.4786 5.34018 10.0286C5.48018 9.5786 5.94018 8.78859 7.40018 8.53859L9.9502 8.11859C10.1402 8.08859 10.4502 7.8586 10.5302 7.6886L11.9402 4.86859C12.6202 3.50859 13.5202 3.30859 14.0002 3.30859C14.4802 3.30859 15.3802 3.50859 16.0602 4.86859L17.4702 7.6886C17.5602 7.8586 17.8602 8.08859 18.0502 8.11859L20.6002 8.53859C22.0602 8.77859 22.5202 9.5786 22.6602 10.0286C22.8002 10.4786 22.8902 11.3886 21.8402 12.4386L19.8502 14.4286C19.7002 14.5786 19.5902 14.9686 19.6402 15.1786L20.2102 17.6386C20.6002 19.3286 19.9802 20.0686 19.5802 20.3586C19.1802 20.6486 18.2902 21.0186 16.7902 20.1286L14.4002 18.7086C14.2002 18.5886 13.7802 18.5886 13.5802 18.7086L11.1902 20.1286C10.5002 20.5486 9.9202 20.6886 9.4802 20.6886ZM14.0002 4.80859C13.8402 4.80859 13.5502 4.99859 13.2802 5.53859L11.8702 8.3586C11.5702 8.9686 10.8602 9.4886 10.1902 9.5986L7.6402 10.0186C7.0702 10.1186 6.8102 10.3286 6.7602 10.4886C6.7102 10.6486 6.80018 10.9686 7.21018 11.3786L9.2002 13.3686C9.7102 13.8786 9.98019 14.8086 9.82019 15.5086L9.25019 17.9686C9.08019 18.6786 9.19017 19.0586 9.30017 19.1486C9.41017 19.2286 9.81018 19.2186 10.4302 18.8386L12.8302 17.4186C13.5002 17.0186 14.5102 17.0186 15.1702 17.4186L17.5602 18.8386C18.1902 19.2086 18.5902 19.2286 18.7002 19.1486C18.8102 19.0686 18.9202 18.6886 18.7502 17.9686L18.1802 15.5086C18.0202 14.7986 18.2802 13.8786 18.8002 13.3686L20.7902 11.3786C21.2002 10.9686 21.2902 10.6386 21.2402 10.4886C21.1902 10.3386 20.9302 10.1186 20.3602 10.0186L17.8102 9.5986C17.1402 9.4886 16.4302 8.9686 16.1302 8.3586L14.7202 5.53859C14.4502 4.99859 14.1602 4.80859 14.0002 4.80859Z" fill="black"/>
<path d="M8 5.75H2C1.59 5.75 1.25 5.41 1.25 5C1.25 4.59 1.59 4.25 2 4.25H8C8.41 4.25 8.75 4.59 8.75 5C8.75 5.41 8.41 5.75 8 5.75Z" fill="black"/>
<path d="M5 19.75H2C1.59 19.75 1.25 19.41 1.25 19C1.25 18.59 1.59 18.25 2 18.25H5C5.41 18.25 5.75 18.59 5.75 19C5.75 19.41 5.41 19.75 5 19.75Z" fill="black"/>
<path d="M3 12.75H2C1.59 12.75 1.25 12.41 1.25 12C1.25 11.59 1.59 11.25 2 11.25H3C3.41 11.25 3.75 11.59 3.75 12C3.75 12.41 3.41 12.75 3 12.75Z" fill="black"/>
</svg>
