<svg width="20" height="20" viewBox="0 0 20 20" fill="none" xmlns="http://www.w3.org/2000/svg">
<path d="M17.5001 5.60791C17.4834 5.60791 17.4584 5.60791 17.4334 5.60791C13.0251 5.16624 8.62505 4.99957 4.26672 5.44124L2.56672 5.60791C2.21672 5.64124 1.90839 5.39124 1.87505 5.04124C1.84172 4.69124 2.09172 4.39124 2.43339 4.35791L4.13339 4.19124C8.56672 3.74124 13.0584 3.91624 17.5584 4.35791C17.9001 4.39124 18.1501 4.69957 18.1167 5.04124C18.0917 5.36624 17.8167 5.60791 17.5001 5.60791Z" fill="#F54141"/>
<path d="M7.08326 4.7665C7.04993 4.7665 7.01659 4.7665 6.97493 4.75817C6.64159 4.69984 6.40826 4.37484 6.46659 4.0415L6.64993 2.94984C6.78326 2.14984 6.96659 1.0415 8.90826 1.0415H11.0916C13.0416 1.0415 13.2249 2.1915 13.3499 2.95817L13.5333 4.0415C13.5916 4.38317 13.3583 4.70817 13.0249 4.75817C12.6833 4.8165 12.3583 4.58317 12.3083 4.24984L12.1249 3.1665C12.0083 2.4415 11.9833 2.29984 11.0999 2.29984H8.91659C8.03326 2.29984 8.01659 2.4165 7.89159 3.15817L7.69993 4.2415C7.64993 4.54984 7.38326 4.7665 7.08326 4.7665Z" fill="#F54141"/>
<path d="M12.675 18.9582H7.325C4.41666 18.9582 4.3 17.3498 4.20833 16.0498L3.66666 7.65815C3.64166 7.31649 3.90833 7.01649 4.25 6.99149C4.6 6.97482 4.89166 7.23315 4.91666 7.57482L5.45833 15.9665C5.55 17.2332 5.58333 17.7082 7.325 17.7082H12.675C14.425 17.7082 14.4583 17.2332 14.5417 15.9665L15.0833 7.57482C15.1083 7.23315 15.4083 6.97482 15.75 6.99149C16.0917 7.01649 16.3583 7.30815 16.3333 7.65815L15.7917 16.0498C15.7 17.3498 15.5833 18.9582 12.675 18.9582Z" fill="#F54141"/>
<path d="M11.3834 14.375H8.6084C8.26673 14.375 7.9834 14.0917 7.9834 13.75C7.9834 13.4083 8.26673 13.125 8.6084 13.125H11.3834C11.7251 13.125 12.0084 13.4083 12.0084 13.75C12.0084 14.0917 11.7251 14.375 11.3834 14.375Z" fill="#F54141"/>
<path d="M12.0833 11.0415H7.91663C7.57496 11.0415 7.29163 10.7582 7.29163 10.4165C7.29163 10.0748 7.57496 9.7915 7.91663 9.7915H12.0833C12.425 9.7915 12.7083 10.0748 12.7083 10.4165C12.7083 10.7582 12.425 11.0415 12.0833 11.0415Z" fill="#F54141"/>
</svg>
