<svg width="24" height="28" viewBox="0 0 24 28" fill="none" xmlns="http://www.w3.org/2000/svg">
<path d="M23.4932 9.26683C22.0932 3.10683 16.7199 0.333496 11.9999 0.333496C11.9999 0.333496 11.9999 0.333496 11.9865 0.333496C7.27988 0.333496 1.89322 3.0935 0.493216 9.2535C-1.06678 16.1335 3.14655 21.9602 6.95988 25.6268C8.37322 26.9868 10.1866 27.6668 11.9999 27.6668C13.8132 27.6668 15.6266 26.9868 17.0266 25.6268C20.8399 21.9602 25.0532 16.1468 23.4932 9.26683ZM11.9999 15.9468C9.67988 15.9468 7.79988 14.0668 7.79988 11.7468C7.79988 9.42683 9.67988 7.54683 11.9999 7.54683C14.3199 7.54683 16.1999 9.42683 16.1999 11.7468C16.1999 14.0668 14.3199 15.9468 11.9999 15.9468Z" fill="#FF0000"/>
</svg>
